<ttFont>
    <TTGlyph name="A" xMin="32" yMin="0" xMax="416" yMax="1728">
      <contour>
        <pt x="416" y="0" on="1"/>
        <pt x="288" y="0" on="1"/>
        <pt x="272" y="416" on="1"/>
        <pt x="177" y="416" on="1"/>
        <pt x="160" y="0" on="1"/>
        <pt x="32" y="0" on="1"/>
        <pt x="128" y="1728" on="1"/>
        <pt x="320" y="1728" on="1"/>
      </contour>
      <contour>
        <pt x="256" y="896" on="1"/>
        <pt x="224" y="1664" on="1"/>
        <pt x="192" y="896" on="1"/>
        <pt x="177" y="512" on="1"/>
        <pt x="272" y="512" on="1"/>
      </contour>
    </TTGlyph>
    <TTGlyph name="AE" xMin="6" yMin="0" xMax="581" yMax="1761">
      <contour>
        <pt x="581" y="1644" on="1"/>
        <pt x="408" y="1644" on="1"/>
        <pt x="406" y="996" on="1"/>
        <pt x="537" y="996" on="1"/>
        <pt x="537" y="876" on="1"/>
        <pt x="406" y="876" on="1"/>
        <pt x="406" y="112" on="1"/>
        <pt x="581" y="112" on="1"/>
        <pt x="581" y="0" on="1"/>
        <pt x="274" y="0" on="1"/>
        <pt x="268" y="383" on="1"/>
        <pt x="190" y="383" on="1"/>
        <pt x="144" y="0" on="1"/>
        <pt x="6" y="0" on="1"/>
        <pt x="213" y="1761" on="1"/>
        <pt x="581" y="1761" on="1"/>
      </contour>
      <contour>
        <pt x="267" y="502" on="1"/>
        <pt x="295" y="1472" on="1"/>
        <pt x="202" y="502" on="1"/>
      </contour>
    </TTGlyph>
    <TTGlyph name="Aacute" xMin="32" yMin="0" xMax="464" yMax="2281">
      <component glyphName="acute" x="176" y="1769" flags="0x1004"/>
      <component glyphName="A" x="0" y="0" flags="0x1204"/>
    </TTGlyph>
    <TTGlyph name="Abreve" xMin="32" yMin="0" xMax="416" yMax="2089">
      <component glyphName="breve" x="60" y="1781" flags="0x1004"/>
      <component glyphName="A" x="0" y="0" flags="0x1204"/>
    </TTGlyph>
    <TTGlyph name="Acedilla" xMin="71" yMin="-443" xMax="455" yMax="1728">
      <component glyphName="A" x="39" y="0" flags="0x1004"/>
      <component glyphName="cedilla" x="29" y="-34" flags="0x1004"/>
    </TTGlyph>
    <TTGlyph name="Acircumflex" xMin="32" yMin="0" xMax="416" yMax="2211">
      <component glyphName="circumflex" x="61" y="1781" flags="0x1004"/>
      <component glyphName="A" x="0" y="0" flags="0x1204"/>
    </TTGlyph>
    <TTGlyph name="Adieresis" xMin="32" yMin="0" xMax="416" yMax="2024">
      <component glyphName="dieresis" x="-64" y="1789" flags="0x1004"/>
      <component glyphName="A" x="0" y="0" flags="0x1204"/>
    </TTGlyph>
    <TTGlyph name="Agrave" xMin="-16" yMin="0" xMax="416" yMax="2281">
      <component glyphName="grave" x="-16" y="1769" flags="0x1004"/>
      <component glyphName="A" x="0" y="0" flags="0x1204"/>
    </TTGlyph>
    <TTGlyph name="Amacron" xMin="32" yMin="0" xMax="416" yMax="1970">
      <component glyphName="macron" x="60" y="1778" flags="0x1004"/>
      <component glyphName="A" x="0" y="0" flags="0x1204"/>
    </TTGlyph>
    <TTGlyph name="Aogonek" xMin="71" yMin="-283" xMax="552" yMax="1728">
      <component glyphName="A" x="39" y="0" flags="0x1004"/>
      <component glyphName="ogonek" x="206" y="0" flags="0x1004"/>
    </TTGlyph>
    <TTGlyph name="Aring" xMin="32" yMin="0" xMax="416" yMax="2016">
      <component glyphName="ring" x="48" y="1668" flags="0x1004"/>
      <component glyphName="A" x="0" y="0" flags="0x1204"/>
    </TTGlyph>
    <TTGlyph name="Atilde" xMin="32" yMin="0" xMax="416" yMax="2024">
      <component glyphName="tilde" x="49" y="1764" flags="0x1004"/>
      <component glyphName="A" x="0" y="0" flags="0x1204"/>
    </TTGlyph>
    <TTGlyph name="B" xMin="64" yMin="0" xMax="448" yMax="1728">
      <contour>
        <pt x="448" y="160" on="1"/>
        <pt x="448" y="100" on="0"/>
        <pt x="404" y="35" on="0"/>
        <pt x="332" y="5" on="0"/>
        <pt x="240" y="0" on="0"/>
        <pt x="192" y="0" on="1"/>
        <pt x="64" y="0" on="1"/>
        <pt x="64" y="1728" on="1"/>
        <pt x="192" y="1728" on="1"/>
        <pt x="252" y="1728" on="0"/>
        <pt x="347" y="1723" on="0"/>
        <pt x="413" y="1693" on="0"/>
        <pt x="448" y="1628" on="0"/>
        <pt x="448" y="1568" on="1"/>
        <pt x="448" y="1024" on="1"/>
        <pt x="448" y="976" on="0"/>
        <pt x="400" y="924" on="0"/>
        <pt x="352" y="911" on="1"/>
        <pt x="400" y="900" on="0"/>
        <pt x="448" y="848" on="0"/>
        <pt x="448" y="800" on="1"/>
      </contour>
      <contour>
        <pt x="192" y="960" on="1"/>
        <pt x="288" y="960" on="1"/>
        <pt x="300" y="960" on="0"/>
        <pt x="313" y="971" on="0"/>
        <pt x="319" y="989" on="0"/>
        <pt x="320" y="1012" on="0"/>
        <pt x="320" y="1024" on="1"/>
        <pt x="320" y="1568" on="1"/>
        <pt x="320" y="1592" on="0"/>
        <pt x="307" y="1618" on="0"/>
        <pt x="277" y="1630" on="0"/>
        <pt x="228" y="1632" on="0"/>
        <pt x="192" y="1632" on="1"/>
      </contour>
      <contour>
        <pt x="320" y="800" on="1"/>
        <pt x="320" y="812" on="0"/>
        <pt x="319" y="835" on="0"/>
        <pt x="313" y="853" on="0"/>
        <pt x="300" y="864" on="0"/>
        <pt x="288" y="864" on="1"/>
        <pt x="192" y="864" on="1"/>
        <pt x="192" y="96" on="1"/>
        <pt x="228" y="96" on="0"/>
        <pt x="277" y="98" on="0"/>
        <pt x="307" y="110" on="0"/>
        <pt x="320" y="136" on="0"/>
        <pt x="320" y="160" on="1"/>
      </contour>
    </TTGlyph>
    <TTGlyph name="C" xMin="64" yMin="-32" xMax="448" yMax="1743">
      <contour>
        <pt x="448" y="1024" on="1"/>
        <pt x="320" y="1024" on="1"/>
        <pt x="320" y="1568" on="1"/>
        <pt x="320" y="1592" on="0"/>
        <pt x="309" y="1623" on="0"/>
        <pt x="291" y="1640" on="0"/>
        <pt x="268" y="1647" on="0"/>
        <pt x="256" y="1647" on="1"/>
        <pt x="244" y="1647" on="0"/>
        <pt x="221" y="1640" on="0"/>
        <pt x="203" y="1623" on="0"/>
        <pt x="192" y="1592" on="0"/>
        <pt x="192" y="1568" on="1"/>
        <pt x="192" y="160" on="1"/>
        <pt x="192" y="148" on="0"/>
        <pt x="194" y="115" on="0"/>
        <pt x="206" y="85" on="0"/>
        <pt x="232" y="64" on="0"/>
        <pt x="256" y="64" on="1"/>
        <pt x="280" y="64" on="0"/>
        <pt x="306" y="85" on="0"/>
        <pt x="318" y="115" on="0"/>
        <pt x="320" y="148" on="0"/>
        <pt x="320" y="160" on="1"/>
        <pt x="320" y="832" on="1"/>
        <pt x="448" y="832" on="1"/>
        <pt x="448" y="160" on="1"/>
        <pt x="448" y="148" on="0"/>
        <pt x="442" y="85" on="0"/>
        <pt x="406" y="19" on="0"/>
        <pt x="328" y="-32" on="0"/>
        <pt x="256" y="-32" on="1"/>
        <pt x="184" y="-32" on="0"/>
        <pt x="106" y="19" on="0"/>
        <pt x="70" y="85" on="0"/>
        <pt x="64" y="148" on="0"/>
        <pt x="64" y="160" on="1"/>
        <pt x="64" y="1568" on="1"/>
        <pt x="64" y="1614" on="0"/>
        <pt x="98" y="1681" on="0"/>
        <pt x="153" y="1723" on="0"/>
        <pt x="221" y="1743" on="0"/>
        <pt x="256" y="1743" on="1"/>
        <pt x="293" y="1743" on="0"/>
        <pt x="362" y="1721" on="0"/>
        <pt x="416" y="1677" on="0"/>
        <pt x="448" y="1611" on="0"/>
        <pt x="448" y="1568" on="1"/>
      </contour>
    </TTGlyph>
    <TTGlyph name="Cacute" xMin="64" yMin="-32" xMax="496" yMax="2281">
      <component glyphName="acute" x="208" y="1769" flags="0x1004"/>
      <component glyphName="C" x="0" y="0" flags="0x1204"/>
    </TTGlyph>
    <TTGlyph name="Ccaron" xMin="64" yMin="-32" xMax="448" yMax="2211">
      <component glyphName="caron" x="92" y="1781" flags="0x1004"/>
      <component glyphName="C" x="0" y="0" flags="0x1204"/>
    </TTGlyph>
    <TTGlyph name="Ccedilla" xMin="123" yMin="-409" xMax="512" yMax="1743">
      <component glyphName="C" x="64" y="0" flags="0x1004"/>
      <component glyphName="cedilla" x="52" y="0" flags="0x1004"/>
    </TTGlyph>
    <TTGlyph name="Ccircumflex" xMin="64" yMin="-32" xMax="448" yMax="2211">
      <component glyphName="circumflex" x="93" y="1781" flags="0x1004"/>
      <component glyphName="C" x="0" y="0" flags="0x1204"/>
    </TTGlyph>
    <TTGlyph name="Cdotaccent" xMin="64" yMin="-32" xMax="448" yMax="2050">
      <component glyphName="dotaccent" x="110" y="1766" flags="0x1004"/>
      <component glyphName="C" x="0" y="0" flags="0x1204"/>
    </TTGlyph>
    <TTGlyph name="D" xMin="64" yMin="0" xMax="448" yMax="1728">
      <contour>
        <pt x="320" y="1568" on="1"/>
        <pt x="320" y="1592" on="0"/>
        <pt x="307" y="1618" on="0"/>
        <pt x="277" y="1630" on="0"/>
        <pt x="228" y="1632" on="0"/>
        <pt x="192" y="1632" on="1"/>
        <pt x="192" y="96" on="1"/>
        <pt x="228" y="96" on="0"/>
        <pt x="277" y="98" on="0"/>
        <pt x="307" y="110" on="0"/>
        <pt x="320" y="136" on="0"/>
        <pt x="320" y="160" on="1"/>
      </contour>
      <contour>
        <pt x="448" y="160" on="1"/>
        <pt x="448" y="100" on="0"/>
        <pt x="404" y="35" on="0"/>
        <pt x="332" y="5" on="0"/>
        <pt x="240" y="0" on="0"/>
        <pt x="192" y="0" on="1"/>
        <pt x="64" y="0" on="1"/>
        <pt x="64" y="1728" on="1"/>
        <pt x="192" y="1728" on="1"/>
        <pt x="240" y="1728" on="0"/>
        <pt x="332" y="1723" on="0"/>
        <pt x="404" y="1693" on="0"/>
        <pt x="448" y="1628" on="0"/>
        <pt x="448" y="1568" on="1"/>
      </contour>
    </TTGlyph>
    <TTGlyph name="Dcaron" xMin="64" yMin="0" xMax="448" yMax="2211">
      <component glyphName="caron" x="92" y="1781" flags="0x1004"/>
      <component glyphName="D" x="0" y="0" flags="0x1204"/>
    </TTGlyph>
    <TTGlyph name="Dcroat" xMin="-1" yMin="0" xMax="421" yMax="1761">
      <contour>
        <pt x="250" y="886" on="1"/>
        <pt x="-1" y="886" on="1"/>
        <pt x="-1" y="991" on="1"/>
        <pt x="250" y="991" on="1"/>
      </contour>
      <contour>
        <pt x="286" y="1605" on="1"/>
        <pt x="286" y="1635" on="0"/>
        <pt x="240" y="1644" on="0"/>
        <pt x="189" y="1644" on="1"/>
        <pt x="189" y="114" on="1"/>
        <pt x="213" y="114" on="0"/>
        <pt x="249" y="115" on="0"/>
        <pt x="274" y="121" on="0"/>
        <pt x="286" y="136" on="0"/>
        <pt x="286" y="150" on="1"/>
      </contour>
      <contour>
        <pt x="421" y="150" on="1"/>
        <pt x="421" y="120" on="0"/>
        <pt x="393" y="65" on="0"/>
        <pt x="345" y="24" on="0"/>
        <pt x="279" y="0" on="0"/>
        <pt x="242" y="0" on="1"/>
        <pt x="55" y="0" on="1"/>
        <pt x="55" y="1761" on="1"/>
        <pt x="242" y="1761" on="1"/>
        <pt x="278" y="1761" on="0"/>
        <pt x="343" y="1738" on="0"/>
        <pt x="392" y="1698" on="0"/>
        <pt x="421" y="1644" on="0"/>
        <pt x="421" y="1613" on="1"/>
      </contour>
    </TTGlyph>
    <TTGlyph name="Delta" xMin="24" yMin="0" xMax="412" yMax="1761">
      <contour>
        <pt x="412" y="0" on="1"/>
        <pt x="24" y="0" on="1"/>
        <pt x="123" y="1761" on="1"/>
        <pt x="313" y="1761" on="1"/>
      </contour>
      <contour>
        <pt x="278" y="114" on="1"/>
        <pt x="217" y="1475" on="1"/>
        <pt x="156" y="114" on="1"/>
      </contour>
    </TTGlyph>
    <TTGlyph name="E" xMin="64" yMin="0" xMax="352" yMax="1728">
      <contour>
        <pt x="352" y="1632" on="1"/>
        <pt x="192" y="1632" on="1"/>
        <pt x="192" y="960" on="1"/>
        <pt x="320" y="960" on="1"/>
        <pt x="320" y="864" on="1"/>
        <pt x="192" y="864" on="1"/>
        <pt x="192" y="96" on="1"/>
        <pt x="352" y="96" on="1"/>
        <pt x="352" y="0" on="1"/>
        <pt x="64" y="0" on="1"/>
        <pt x="64" y="1728" on="1"/>
        <pt x="352" y="1728" on="1"/>
      </contour>
    </TTGlyph>
    <TTGlyph name="Eacute" xMin="64" yMin="0" xMax="448" yMax="2281">
      <component glyphName="acute" x="160" y="1769" flags="0x1004"/>
      <component glyphName="E" x="0" y="0" flags="0x1204"/>
    </TTGlyph>
    <TTGlyph name="Ecaron" xMin="64" yMin="0" xMax="352" yMax="2211">
      <component glyphName="caron" x="44" y="1781" flags="0x1004"/>
      <component glyphName="E" x="0" y="0" flags="0x1204"/>
    </TTGlyph>
    <TTGlyph name="Ecedilla" xMin="64" yMin="-409" xMax="352" yMax="1728">
      <component glyphName="E" x="0" y="0" flags="0x1004"/>
      <component glyphName="cedilla" x="9" y="0" flags="0x1004"/>
    </TTGlyph>
    <TTGlyph name="Ecircumflex" xMin="64" yMin="0" xMax="352" yMax="2211">
      <component glyphName="circumflex" x="45" y="1781" flags="0x1004"/>
      <component glyphName="E" x="0" y="0" flags="0x1204"/>
    </TTGlyph>
    <TTGlyph name="Edieresis" xMin="35" yMin="0" xMax="381" yMax="2024">
      <component glyphName="dieresis" x="-80" y="1789" flags="0x1004"/>
      <component glyphName="E" x="0" y="0" flags="0x1204"/>
    </TTGlyph>
    <TTGlyph name="Edotaccent" xMin="64" yMin="0" xMax="352" yMax="2050">
      <component glyphName="dotaccent" x="62" y="1766" flags="0x1004"/>
      <component glyphName="E" x="0" y="0" flags="0x1204"/>
    </TTGlyph>
    <TTGlyph name="Egrave" xMin="-32" yMin="0" xMax="352" yMax="2281">
      <component glyphName="grave" x="-32" y="1769" flags="0x1004"/>
      <component glyphName="E" x="0" y="0" flags="0x1204"/>
    </TTGlyph>
    <TTGlyph name="Emacron" xMin="44" yMin="0" xMax="372" yMax="1970">
      <component glyphName="macron" x="44" y="1778" flags="0x1004"/>
      <component glyphName="E" x="0" y="0" flags="0x1204"/>
    </TTGlyph>
    <TTGlyph name="Eng" xMin="55" yMin="-478" xMax="424" yMax="1761">
      <contour>
        <pt x="424" y="-328" on="1"/>
        <pt x="424" y="-360" on="0"/>
        <pt x="396" y="-415" on="0"/>
        <pt x="347" y="-455" on="0"/>
        <pt x="282" y="-478" on="0"/>
        <pt x="245" y="-478" on="1"/>
        <pt x="207" y="-478" on="0"/>
        <pt x="140" y="-455" on="0"/>
        <pt x="89" y="-415" on="0"/>
        <pt x="60" y="-361" on="0"/>
        <pt x="60" y="-330" on="1"/>
        <pt x="60" y="-69" on="1"/>
        <pt x="194" y="-69" on="1"/>
        <pt x="194" y="-330" on="1"/>
        <pt x="194" y="-352" on="0"/>
        <pt x="224" y="-370" on="0"/>
        <pt x="245" y="-370" on="1"/>
        <pt x="264" y="-370" on="0"/>
        <pt x="289" y="-347" on="0"/>
        <pt x="289" y="-330" on="1"/>
        <pt x="289" y="382" on="1"/>
        <pt x="424" y="382" on="1"/>
      </contour>
      <contour>
        <pt x="424" y="0" on="1"/>
        <pt x="289" y="0" on="1"/>
        <pt x="189" y="982" on="1"/>
        <pt x="189" y="0" on="1"/>
        <pt x="55" y="0" on="1"/>
        <pt x="55" y="1761" on="1"/>
        <pt x="187" y="1761" on="1"/>
        <pt x="298" y="738" on="1"/>
        <pt x="298" y="1761" on="1"/>
        <pt x="424" y="1761" on="1"/>
      </contour>
    </TTGlyph>
    <TTGlyph name="Eogonek" xMin="64" yMin="-283" xMax="497" yMax="1728">
      <component glyphName="E" x="0" y="0" flags="0x1004"/>
      <component glyphName="ogonek" x="151" y="0" flags="0x1004"/>
    </TTGlyph>
    <TTGlyph name="Ering" xMin="64" yMin="0" xMax="360" yMax="2101">
      <component glyphName="E" x="0" y="0" flags="0x1004"/>
      <component glyphName="ring" x="42" y="1753" flags="0x1004"/>
    </TTGlyph>
    <TTGlyph name="Eth" xMin="12" yMin="0" xMax="428" yMax="1761">
      <contour>
        <pt x="428" y="165" on="1"/>
        <pt x="428" y="124" on="0"/>
        <pt x="395" y="63" on="0"/>
        <pt x="340" y="21" on="0"/>
        <pt x="270" y="0" on="0"/>
        <pt x="234" y="0" on="1"/>
        <pt x="59" y="0" on="1"/>
        <pt x="59" y="815" on="1"/>
        <pt x="12" y="815" on="1"/>
        <pt x="12" y="937" on="1"/>
        <pt x="59" y="937" on="1"/>
        <pt x="59" y="1761" on="1"/>
        <pt x="234" y="1761" on="1"/>
        <pt x="267" y="1761" on="0"/>
        <pt x="336" y="1742" on="0"/>
        <pt x="392" y="1701" on="0"/>
        <pt x="428" y="1636" on="0"/>
        <pt x="428" y="1590" on="1"/>
      </contour>
      <contour>
        <pt x="248" y="815" on="1"/>
        <pt x="198" y="815" on="1"/>
        <pt x="198" y="120" on="1"/>
        <pt x="219" y="120" on="0"/>
        <pt x="255" y="121" on="0"/>
        <pt x="280" y="130" on="0"/>
        <pt x="294" y="149" on="0"/>
        <pt x="294" y="166" on="1"/>
        <pt x="294" y="1592" on="1"/>
        <pt x="294" y="1611" on="0"/>
        <pt x="280" y="1632" on="0"/>
        <pt x="255" y="1642" on="0"/>
        <pt x="219" y="1644" on="0"/>
        <pt x="198" y="1644" on="1"/>
        <pt x="198" y="937" on="1"/>
        <pt x="248" y="937" on="1"/>
      </contour>
    </TTGlyph>
    <TTGlyph name="Euro" xMin="-12" yMin="-21" xMax="512" yMax="1784">
      <contour>
        <pt x="500" y="1030" on="1"/>
        <pt x="274" y="1030" on="1"/>
        <pt x="274" y="976" on="1"/>
        <pt x="485" y="976" on="1"/>
        <pt x="473" y="870" on="1"/>
        <pt x="274" y="870" on="1"/>
        <pt x="274" y="127" on="1"/>
        <pt x="274" y="111" on="0"/>
        <pt x="304" y="88" on="0"/>
        <pt x="324" y="88" on="1"/>
        <pt x="343" y="88" on="0"/>
        <pt x="372" y="111" on="0"/>
        <pt x="372" y="127" on="1"/>
        <pt x="372" y="621" on="1"/>
        <pt x="507" y="621" on="1"/>
        <pt x="507" y="127" on="1"/>
        <pt x="507" y="95" on="0"/>
        <pt x="481" y="41" on="0"/>
        <pt x="433" y="2" on="0"/>
        <pt x="365" y="-21" on="0"/>
        <pt x="324" y="-21" on="1"/>
        <pt x="286" y="-21" on="0"/>
        <pt x="219" y="3" on="0"/>
        <pt x="169" y="43" on="0"/>
        <pt x="141" y="98" on="0"/>
        <pt x="141" y="130" on="1"/>
        <pt x="141" y="870" on="1"/>
        <pt x="-12" y="870" on="1"/>
        <pt x="-12" y="976" on="1"/>
        <pt x="141" y="976" on="1"/>
        <pt x="141" y="1030" on="1"/>
        <pt x="-9" y="1030" on="1"/>
        <pt x="-9" y="1137" on="1"/>
        <pt x="141" y="1137" on="1"/>
        <pt x="141" y="1634" on="1"/>
        <pt x="141" y="1666" on="0"/>
        <pt x="168" y="1721" on="0"/>
        <pt x="217" y="1761" on="0"/>
        <pt x="284" y="1784" on="0"/>
        <pt x="325" y="1784" on="1"/>
        <pt x="365" y="1784" on="0"/>
        <pt x="432" y="1761" on="0"/>
        <pt x="480" y="1722" on="0"/>
        <pt x="507" y="1668" on="0"/>
        <pt x="507" y="1638" on="1"/>
        <pt x="507" y="1348" on="1"/>
        <pt x="372" y="1348" on="1"/>
        <pt x="372" y="1628" on="1"/>
        <pt x="372" y="1644" on="0"/>
        <pt x="344" y="1667" on="0"/>
        <pt x="325" y="1667" on="1"/>
        <pt x="302" y="1667" on="0"/>
        <pt x="274" y="1644" on="0"/>
        <pt x="274" y="1628" on="1"/>
        <pt x="274" y="1137" on="1"/>
        <pt x="512" y="1137" on="1"/>
      </contour>
    </TTGlyph>
    <TTGlyph name="F" xMin="64" yMin="0" xMax="352" yMax="1728">
      <contour>
        <pt x="352" y="1632" on="1"/>
        <pt x="192" y="1632" on="1"/>
        <pt x="192" y="992" on="1"/>
        <pt x="320" y="992" on="1"/>
        <pt x="320" y="896" on="1"/>
        <pt x="192" y="896" on="1"/>
        <pt x="192" y="0" on="1"/>
        <pt x="64" y="0" on="1"/>
        <pt x="64" y="1728" on="1"/>
        <pt x="352" y="1728" on="1"/>
      </contour>
    </TTGlyph>
    <TTGlyph name="G" xMin="64" yMin="-32" xMax="448" yMax="1743">
      <contour>
        <pt x="448" y="1024" on="1"/>
        <pt x="320" y="1024" on="1"/>
        <pt x="320" y="1568" on="1"/>
        <pt x="320" y="1580" on="0"/>
        <pt x="318" y="1608" on="0"/>
        <pt x="306" y="1631" on="0"/>
        <pt x="280" y="1647" on="0"/>
        <pt x="256" y="1647" on="1"/>
        <pt x="232" y="1647" on="0"/>
        <pt x="206" y="1631" on="0"/>
        <pt x="194" y="1608" on="0"/>
        <pt x="192" y="1580" on="0"/>
        <pt x="192" y="1568" on="1"/>
        <pt x="192" y="160" on="1"/>
        <pt x="192" y="148" on="0"/>
        <pt x="194" y="115" on="0"/>
        <pt x="206" y="85" on="0"/>
        <pt x="232" y="64" on="0"/>
        <pt x="256" y="64" on="1"/>
        <pt x="280" y="64" on="0"/>
        <pt x="306" y="85" on="0"/>
        <pt x="318" y="115" on="0"/>
        <pt x="320" y="148" on="0"/>
        <pt x="320" y="160" on="1"/>
        <pt x="320" y="800" on="1"/>
        <pt x="288" y="800" on="1"/>
        <pt x="288" y="896" on="1"/>
        <pt x="448" y="896" on="1"/>
        <pt x="448" y="160" on="1"/>
        <pt x="448" y="148" on="0"/>
        <pt x="442" y="85" on="0"/>
        <pt x="406" y="19" on="0"/>
        <pt x="328" y="-32" on="0"/>
        <pt x="256" y="-32" on="1"/>
        <pt x="184" y="-32" on="0"/>
        <pt x="106" y="19" on="0"/>
        <pt x="70" y="85" on="0"/>
        <pt x="64" y="148" on="0"/>
        <pt x="64" y="160" on="1"/>
        <pt x="64" y="1568" on="1"/>
        <pt x="64" y="1576" on="0"/>
        <pt x="66" y="1608" on="0"/>
        <pt x="76" y="1647" on="0"/>
        <pt x="100" y="1688" on="0"/>
        <pt x="142" y="1722" on="0"/>
        <pt x="208" y="1743" on="0"/>
        <pt x="256" y="1743" on="1"/>
        <pt x="304" y="1743" on="0"/>
        <pt x="370" y="1722" on="0"/>
        <pt x="412" y="1688" on="0"/>
        <pt x="436" y="1647" on="0"/>
        <pt x="446" y="1608" on="0"/>
        <pt x="448" y="1576" on="0"/>
        <pt x="448" y="1568" on="1"/>
      </contour>
    </TTGlyph>
    <TTGlyph name="Gbreve" xMin="64" yMin="-32" xMax="448" yMax="2089">
      <component glyphName="breve" x="92" y="1781" flags="0x1004"/>
      <component glyphName="G" x="0" y="0" flags="0x1204"/>
    </TTGlyph>
    <TTGlyph name="Gcircumflex" xMin="64" yMin="-32" xMax="448" yMax="2211">
      <component glyphName="circumflex" x="93" y="1781" flags="0x1004"/>
      <component glyphName="G" x="0" y="0" flags="0x1204"/>
    </TTGlyph>
    <TTGlyph name="Gcommaaccent" xMin="64" yMin="-506" xMax="448" yMax="1743">
      <component glyphName="comma" x="160" y="-346" flags="0x1004"/>
      <component glyphName="G" x="0" y="0" flags="0x1204"/>
    </TTGlyph>
    <TTGlyph name="Gdotaccent" xMin="64" yMin="-32" xMax="448" yMax="2050">
      <component glyphName="dotaccent" x="110" y="1766" flags="0x1004"/>
      <component glyphName="G" x="0" y="0" flags="0x1204"/>
    </TTGlyph>
    <TTGlyph name="H" xMin="64" yMin="0" xMax="448" yMax="1728">
      <contour>
        <pt x="192" y="928" on="1"/>
        <pt x="320" y="928" on="1"/>
        <pt x="320" y="1728" on="1"/>
        <pt x="448" y="1728" on="1"/>
        <pt x="448" y="0" on="1"/>
        <pt x="320" y="0" on="1"/>
        <pt x="320" y="832" on="1"/>
        <pt x="192" y="832" on="1"/>
        <pt x="192" y="0" on="1"/>
        <pt x="64" y="0" on="1"/>
        <pt x="64" y="1728" on="1"/>
        <pt x="192" y="1728" on="1"/>
      </contour>
    </TTGlyph>
    <TTGlyph name="Hbar" xMin="64" yMin="0" xMax="448" yMax="1728">
      <contour>
        <pt x="192" y="928" on="1"/>
        <pt x="320" y="928" on="1"/>
        <pt x="320" y="1310" on="1"/>
        <pt x="192" y="1310" on="1"/>
      </contour>
      <contour>
        <pt x="320" y="1415" on="1"/>
        <pt x="320" y="1728" on="1"/>
        <pt x="448" y="1728" on="1"/>
        <pt x="448" y="0" on="1"/>
        <pt x="320" y="0" on="1"/>
        <pt x="320" y="832" on="1"/>
        <pt x="192" y="832" on="1"/>
        <pt x="192" y="0" on="1"/>
        <pt x="64" y="0" on="1"/>
        <pt x="64" y="1728" on="1"/>
        <pt x="192" y="1728" on="1"/>
        <pt x="192" y="1415" on="1"/>
      </contour>
    </TTGlyph>
    <TTGlyph name="Hcircumflex" xMin="64" yMin="0" xMax="448" yMax="2211">
      <component glyphName="circumflex" x="93" y="1781" flags="0x1004"/>
      <component glyphName="H" x="0" y="0" flags="0x1204"/>
    </TTGlyph>
    <TTGlyph name="I" xMin="80" yMin="0" xMax="208" yMax="1728">
      <contour>
        <pt x="208" y="1728" on="1"/>
        <pt x="208" y="0" on="1"/>
        <pt x="80" y="0" on="1"/>
        <pt x="80" y="1728" on="1"/>
      </contour>
    </TTGlyph>
    <TTGlyph name="Iacute" xMin="80" yMin="0" xMax="384" yMax="2281">
      <component glyphName="acute" x="96" y="1769" flags="0x1004"/>
      <component glyphName="I" x="0" y="0" flags="0x1204"/>
    </TTGlyph>
    <TTGlyph name="Ibreve" xMin="-48" yMin="0" xMax="336" yMax="2089">
      <component glyphName="breve" x="-20" y="1781" flags="0x1004"/>
      <component glyphName="I" x="0" y="0" flags="0x1204"/>
    </TTGlyph>
    <TTGlyph name="Icircumflex" xMin="12" yMin="0" xMax="276" yMax="2211">
      <component glyphName="circumflex" x="-19" y="1781" flags="0x1004"/>
      <component glyphName="I" x="0" y="0" flags="0x1204"/>
    </TTGlyph>
    <TTGlyph name="Idieresis" xMin="-29" yMin="0" xMax="317" yMax="2024">
      <component glyphName="dieresis" x="-144" y="1789" flags="0x1004"/>
      <component glyphName="I" x="0" y="0" flags="0x1204"/>
    </TTGlyph>
    <TTGlyph name="Idotaccent" xMin="53" yMin="0" xMax="235" yMax="2050">
      <component glyphName="dotaccent" x="-2" y="1766" flags="0x1004"/>
      <component glyphName="I" x="0" y="0" flags="0x1204"/>
    </TTGlyph>
    <TTGlyph name="Igrave" xMin="-96" yMin="0" xMax="208" yMax="2281">
      <component glyphName="grave" x="-96" y="1769" flags="0x1004"/>
      <component glyphName="I" x="0" y="0" flags="0x1204"/>
    </TTGlyph>
    <TTGlyph name="Imacron" xMin="-20" yMin="0" xMax="308" yMax="1970">
      <component glyphName="macron" x="-20" y="1778" flags="0x1004"/>
      <component glyphName="I" x="0" y="0" flags="0x1204"/>
    </TTGlyph>
    <TTGlyph name="Iogonek" xMin="63" yMin="-280" xMax="346" yMax="1728">
      <component glyphName="I" x="0" y="0" flags="0x1004"/>
      <component glyphName="ogonek" x="0" y="3" flags="0x1004"/>
    </TTGlyph>
    <TTGlyph name="Iring" xMin="-15" yMin="0" xMax="270" yMax="2094">
      <component glyphName="I" x="0" y="0" flags="0x1004"/>
      <component glyphName="ring" x="-48" y="1746" flags="0x1004"/>
    </TTGlyph>
    <TTGlyph name="Itilde" xMin="-46" yMin="0" xMax="334" yMax="2024">
      <component glyphName="tilde" x="-31" y="1764" flags="0x1004"/>
      <component glyphName="I" x="0" y="0" flags="0x1204"/>
    </TTGlyph>
    <TTGlyph name="J" xMin="64" yMin="-32" xMax="448" yMax="1728">
      <contour>
        <pt x="448" y="160" on="1"/>
        <pt x="445" y="106" on="0"/>
        <pt x="424" y="64" on="1"/>
        <pt x="415" y="46" on="0"/>
        <pt x="387" y="11" on="0"/>
        <pt x="347" y="-16" on="0"/>
        <pt x="292" y="-32" on="0"/>
        <pt x="256" y="-32" on="1"/>
        <pt x="220" y="-32" on="0"/>
        <pt x="165" y="-16" on="0"/>
        <pt x="125" y="11" on="0"/>
        <pt x="97" y="46" on="0"/>
        <pt x="88" y="64" on="1"/>
        <pt x="67" y="106" on="0"/>
        <pt x="64" y="160" on="1"/>
        <pt x="64" y="832" on="1"/>
        <pt x="192" y="832" on="1"/>
        <pt x="192" y="160" on="1"/>
        <pt x="192" y="148" on="0"/>
        <pt x="194" y="115" on="0"/>
        <pt x="206" y="85" on="0"/>
        <pt x="232" y="64" on="0"/>
        <pt x="256" y="64" on="1"/>
        <pt x="280" y="64" on="0"/>
        <pt x="306" y="85" on="0"/>
        <pt x="318" y="115" on="0"/>
        <pt x="320" y="148" on="0"/>
        <pt x="320" y="160" on="1"/>
        <pt x="320" y="1728" on="1"/>
        <pt x="448" y="1728" on="1"/>
      </contour>
    </TTGlyph>
    <TTGlyph name="Jcircumflex" xMin="64" yMin="-32" xMax="516" yMax="2211">
      <component glyphName="circumflex" x="221" y="1781" flags="0x1004"/>
      <component glyphName="J" x="0" y="0" flags="0x1204"/>
    </TTGlyph>
    <TTGlyph name="K" xMin="64" yMin="0" xMax="448" yMax="1728">
      <contour>
        <pt x="448" y="0" on="1"/>
        <pt x="320" y="0" on="1"/>
        <pt x="192" y="864" on="1"/>
        <pt x="192" y="0" on="1"/>
        <pt x="64" y="0" on="1"/>
        <pt x="64" y="1728" on="1"/>
        <pt x="192" y="1728" on="1"/>
        <pt x="192" y="928" on="1"/>
        <pt x="320" y="1728" on="1"/>
        <pt x="448" y="1728" on="1"/>
        <pt x="320" y="992" on="1"/>
        <pt x="306" y="896" on="1"/>
        <pt x="320" y="800" on="1"/>
      </contour>
    </TTGlyph>
    <TTGlyph name="Kcommaaccent" xMin="64" yMin="-474" xMax="448" yMax="1728">
      <component glyphName="comma" x="160" y="-314" flags="0x1004"/>
      <component glyphName="K" x="0" y="0" flags="0x1204"/>
    </TTGlyph>
    <TTGlyph name="L" xMin="64" yMin="0" xMax="320" yMax="1728">
      <contour>
        <pt x="192" y="1728" on="1"/>
        <pt x="192" y="96" on="1"/>
        <pt x="320" y="96" on="1"/>
        <pt x="320" y="0" on="1"/>
        <pt x="64" y="0" on="1"/>
        <pt x="64" y="1728" on="1"/>
      </contour>
    </TTGlyph>
    <TTGlyph name="Lacute" xMin="64" yMin="0" xMax="368" yMax="2281">
      <component glyphName="acute" x="80" y="1769" flags="0x1004"/>
      <component glyphName="L" x="0" y="0" flags="0x1204"/>
    </TTGlyph>
    <TTGlyph name="Lcaron" xMin="64" yMin="0" xMax="631" yMax="1743">
      <component glyphName="comma" x="471" y="1551" flags="0x1004"/>
      <component glyphName="L" x="0" y="0" flags="0x1004"/>
    </TTGlyph>
    <TTGlyph name="Lcommaaccent" xMin="64" yMin="-474" xMax="320" yMax="1728">
      <component glyphName="comma" x="96" y="-314" flags="0x1004"/>
      <component glyphName="L" x="0" y="0" flags="0x1204"/>
    </TTGlyph>
    <TTGlyph name="Lslash" xMin="-15" yMin="0" xMax="350" yMax="1761">
      <contour>
        <pt x="206" y="1761" on="1"/>
        <pt x="206" y="910" on="1"/>
        <pt x="350" y="939" on="1"/>
        <pt x="350" y="822" on="1"/>
        <pt x="206" y="794" on="1"/>
        <pt x="206" y="111" on="1"/>
        <pt x="350" y="111" on="1"/>
        <pt x="350" y="0" on="1"/>
        <pt x="72" y="0" on="1"/>
        <pt x="72" y="767" on="1"/>
        <pt x="-15" y="750" on="1"/>
        <pt x="-15" y="867" on="1"/>
        <pt x="72" y="884" on="1"/>
        <pt x="72" y="1761" on="1"/>
      </contour>
    </TTGlyph>
    <TTGlyph name="M" xMin="64" yMin="0" xMax="576" yMax="1728">
      <contour>
        <pt x="416" y="1728" on="1"/>
        <pt x="544" y="1728" on="1"/>
        <pt x="576" y="0" on="1"/>
        <pt x="448" y="0" on="1"/>
        <pt x="448" y="1184" on="1"/>
        <pt x="352" y="96" on="1"/>
        <pt x="288" y="96" on="1"/>
        <pt x="192" y="1184" on="1"/>
        <pt x="192" y="0" on="1"/>
        <pt x="64" y="0" on="1"/>
        <pt x="96" y="1728" on="1"/>
        <pt x="224" y="1728" on="1"/>
        <pt x="320" y="544" on="1"/>
      </contour>
    </TTGlyph>
    <TTGlyph name="N" xMin="64" yMin="0" xMax="448" yMax="1728">
      <contour>
        <pt x="448" y="0" on="1"/>
        <pt x="320" y="0" on="1"/>
        <pt x="160" y="1280" on="1"/>
        <pt x="160" y="0" on="1"/>
        <pt x="64" y="0" on="1"/>
        <pt x="64" y="1728" on="1"/>
        <pt x="192" y="1728" on="1"/>
        <pt x="352" y="448" on="1"/>
        <pt x="352" y="1728" on="1"/>
        <pt x="448" y="1728" on="1"/>
      </contour>
    </TTGlyph>
    <TTGlyph name="Nacute" xMin="64" yMin="0" xMax="496" yMax="2281">
      <component glyphName="acute" x="208" y="1769" flags="0x1004"/>
      <component glyphName="N" x="0" y="0" flags="0x1204"/>
    </TTGlyph>
    <TTGlyph name="Nbreve" xMin="37" yMin="0" xMax="448" yMax="2054">
      <component glyphName="N" x="0" y="0" flags="0x1004"/>
      <component glyphName="breve" x="65" y="1746" flags="0x1004"/>
    </TTGlyph>
    <TTGlyph name="Ncaron" xMin="64" yMin="0" xMax="448" yMax="2211">
      <component glyphName="caron" x="92" y="1781" flags="0x1004"/>
      <component glyphName="N" x="0" y="0" flags="0x1204"/>
    </TTGlyph>
    <TTGlyph name="Ncircumflex" xMin="64" yMin="0" xMax="448" yMax="2176">
      <component glyphName="N" x="0" y="0" flags="0x1004"/>
      <component glyphName="circumflex" x="72" y="1746" flags="0x1004"/>
    </TTGlyph>
    <TTGlyph name="Ncommaaccent" xMin="64" yMin="-474" xMax="448" yMax="1728">
      <component glyphName="comma" x="160" y="-314" flags="0x1004"/>
      <component glyphName="N" x="0" y="0" flags="0x1204"/>
    </TTGlyph>
    <TTGlyph name="Ndieresis" xMin="64" yMin="0" xMax="448" yMax="1981">
      <component glyphName="N" x="0" y="0" flags="0x1004"/>
      <component glyphName="dieresis" x="-45" y="1746" flags="0x1004"/>
    </TTGlyph>
    <TTGlyph name="Ngrave" xMin="16" yMin="0" xMax="448" yMax="2258">
      <component glyphName="N" x="0" y="0" flags="0x1004"/>
      <component glyphName="grave" x="16" y="1746" flags="0x1004"/>
    </TTGlyph>
    <TTGlyph name="Nmacron" xMin="64" yMin="0" xMax="448" yMax="1938">
      <component glyphName="N" x="0" y="0" flags="0x1004"/>
      <component glyphName="macron" x="77" y="1746" flags="0x1004"/>
    </TTGlyph>
    <TTGlyph name="Nring" xMin="64" yMin="0" xMax="448" yMax="2094">
      <component glyphName="N" x="0" y="0" flags="0x1004"/>
      <component glyphName="ring" x="58" y="1746" flags="0x1004"/>
    </TTGlyph>
    <TTGlyph name="Ntilde" xMin="64" yMin="0" xMax="448" yMax="2024">
      <component glyphName="tilde" x="81" y="1764" flags="0x1004"/>
      <component glyphName="N" x="0" y="0" flags="0x1204"/>
    </TTGlyph>
    <TTGlyph name="O" xMin="64" yMin="-32" xMax="448" yMax="1743">
      <contour>
        <pt x="448" y="160" on="1"/>
        <pt x="448" y="148" on="0"/>
        <pt x="442" y="85" on="0"/>
        <pt x="406" y="19" on="0"/>
        <pt x="328" y="-32" on="0"/>
        <pt x="256" y="-32" on="1"/>
        <pt x="184" y="-32" on="0"/>
        <pt x="106" y="19" on="0"/>
        <pt x="70" y="85" on="0"/>
        <pt x="64" y="148" on="0"/>
        <pt x="64" y="160" on="1"/>
        <pt x="64" y="1568" on="1"/>
        <pt x="64" y="1576" on="0"/>
        <pt x="66" y="1608" on="0"/>
        <pt x="76" y="1647" on="0"/>
        <pt x="100" y="1688" on="0"/>
        <pt x="142" y="1722" on="0"/>
        <pt x="208" y="1743" on="0"/>
        <pt x="256" y="1743" on="1"/>
        <pt x="304" y="1743" on="0"/>
        <pt x="370" y="1722" on="0"/>
        <pt x="412" y="1688" on="0"/>
        <pt x="436" y="1647" on="0"/>
        <pt x="446" y="1608" on="0"/>
        <pt x="448" y="1576" on="0"/>
        <pt x="448" y="1568" on="1"/>
      </contour>
      <contour>
        <pt x="192" y="160" on="1"/>
        <pt x="192" y="148" on="0"/>
        <pt x="194" y="115" on="0"/>
        <pt x="206" y="85" on="0"/>
        <pt x="232" y="64" on="0"/>
        <pt x="256" y="64" on="1"/>
        <pt x="280" y="64" on="0"/>
        <pt x="306" y="85" on="0"/>
        <pt x="318" y="115" on="0"/>
        <pt x="320" y="148" on="0"/>
        <pt x="320" y="160" on="1"/>
        <pt x="320" y="1568" on="1"/>
        <pt x="320" y="1580" on="0"/>
        <pt x="318" y="1608" on="0"/>
        <pt x="306" y="1631" on="0"/>
        <pt x="280" y="1647" on="0"/>
        <pt x="256" y="1647" on="1"/>
        <pt x="232" y="1647" on="0"/>
        <pt x="206" y="1631" on="0"/>
        <pt x="194" y="1608" on="0"/>
        <pt x="192" y="1580" on="0"/>
        <pt x="192" y="1568" on="1"/>
      </contour>
    </TTGlyph>
    <TTGlyph name="OE" xMin="52" yMin="-21" xMax="595" yMax="1784">
      <contour>
        <pt x="52" y="1637" on="1"/>
        <pt x="52" y="1667" on="0"/>
        <pt x="81" y="1721" on="0"/>
        <pt x="130" y="1761" on="0"/>
        <pt x="195" y="1784" on="0"/>
        <pt x="231" y="1784" on="1"/>
        <pt x="284" y="1784" on="0"/>
        <pt x="328" y="1761" on="1"/>
        <pt x="595" y="1761" on="1"/>
        <pt x="595" y="1644" on="1"/>
        <pt x="415" y="1644" on="1"/>
        <pt x="415" y="996" on="1"/>
        <pt x="548" y="996" on="1"/>
        <pt x="548" y="876" on="1"/>
        <pt x="415" y="876" on="1"/>
        <pt x="415" y="112" on="1"/>
        <pt x="595" y="112" on="1"/>
        <pt x="595" y="0" on="1"/>
        <pt x="324" y="0" on="1"/>
        <pt x="301" y="-11" on="0"/>
        <pt x="279" y="-15" on="1"/>
        <pt x="256" y="-21" on="0"/>
        <pt x="231" y="-21" on="1"/>
        <pt x="195" y="-21" on="0"/>
        <pt x="130" y="2" on="0"/>
        <pt x="81" y="42" on="0"/>
        <pt x="52" y="95" on="0"/>
        <pt x="52" y="124" on="1"/>
      </contour>
      <contour>
        <pt x="186" y="127" on="1"/>
        <pt x="186" y="112" on="0"/>
        <pt x="211" y="88" on="0"/>
        <pt x="231" y="88" on="1"/>
        <pt x="252" y="88" on="0"/>
        <pt x="279" y="112" on="0"/>
        <pt x="279" y="127" on="1"/>
        <pt x="279" y="1638" on="1"/>
        <pt x="279" y="1655" on="0"/>
        <pt x="250" y="1679" on="0"/>
        <pt x="231" y="1679" on="1"/>
        <pt x="211" y="1679" on="0"/>
        <pt x="186" y="1655" on="0"/>
        <pt x="186" y="1638" on="1"/>
      </contour>
    </TTGlyph>
    <TTGlyph name="Oacute" xMin="64" yMin="-32" xMax="496" yMax="2281">
      <component glyphName="acute" x="208" y="1769" flags="0x1004"/>
      <component glyphName="O" x="0" y="0" flags="0x1204"/>
    </TTGlyph>
    <TTGlyph name="Obreve" xMin="64" yMin="-32" xMax="448" yMax="2089">
      <component glyphName="breve" x="92" y="1781" flags="0x1004"/>
      <component glyphName="O" x="0" y="0" flags="0x1204"/>
    </TTGlyph>
    <TTGlyph name="Ocircumflex" xMin="64" yMin="-32" xMax="448" yMax="2211">
      <component glyphName="circumflex" x="93" y="1781" flags="0x1004"/>
      <component glyphName="O" x="0" y="0" flags="0x1204"/>
    </TTGlyph>
    <TTGlyph name="Odieresis" xMin="64" yMin="-32" xMax="448" yMax="2024">
      <component glyphName="dieresis" x="-32" y="1789" flags="0x1004"/>
      <component glyphName="O" x="0" y="0" flags="0x1204"/>
    </TTGlyph>
    <TTGlyph name="Odotaccent" xMin="64" yMin="-32" xMax="448" yMax="2030">
      <component glyphName="O" x="0" y="0" flags="0x1004"/>
      <component glyphName="dotaccent" x="82" y="1746" flags="0x1004"/>
    </TTGlyph>
    <TTGlyph name="Ograve" xMin="16" yMin="-32" xMax="448" yMax="2281">
      <component glyphName="grave" x="16" y="1769" flags="0x1004"/>
      <component glyphName="O" x="0" y="0" flags="0x1204"/>
    </TTGlyph>
    <TTGlyph name="Ohungarumlaut" xMin="64" yMin="-32" xMax="621" yMax="2275">
      <component glyphName="hungarumlaut" x="86" y="1781" flags="0x1004"/>
      <component glyphName="O" x="0" y="0" flags="0x1204"/>
    </TTGlyph>
    <TTGlyph name="Omacron" xMin="64" yMin="-32" xMax="448" yMax="1970">
      <component glyphName="macron" x="92" y="1778" flags="0x1004"/>
      <component glyphName="O" x="0" y="0" flags="0x1204"/>
    </TTGlyph>
    <TTGlyph name="Omega" xMin="30" yMin="0" xMax="484" yMax="1782">
      <contour>
        <pt x="259" y="1680" on="1"/>
        <pt x="237" y="1680" on="0"/>
        <pt x="216" y="1662" on="0"/>
        <pt x="207" y="1631" on="0"/>
        <pt x="207" y="1610" on="1"/>
        <pt x="207" y="1563" on="1"/>
        <pt x="207" y="422" on="1"/>
        <pt x="207" y="337" on="0"/>
        <pt x="216" y="220" on="0"/>
        <pt x="221" y="181" on="1"/>
        <pt x="227" y="137" on="0"/>
        <pt x="236" y="107" on="1"/>
        <pt x="236" y="0" on="1"/>
        <pt x="30" y="0" on="1"/>
        <pt x="30" y="107" on="1"/>
        <pt x="130" y="107" on="1"/>
        <pt x="114" y="136" on="0"/>
        <pt x="100" y="181" on="1"/>
        <pt x="88" y="220" on="0"/>
        <pt x="70" y="337" on="0"/>
        <pt x="70" y="421" on="1"/>
        <pt x="70" y="1563" on="1"/>
        <pt x="70" y="1600" on="0"/>
        <pt x="81" y="1678" on="0"/>
        <pt x="120" y="1741" on="0"/>
        <pt x="195" y="1782" on="0"/>
        <pt x="259" y="1782" on="1"/>
        <pt x="322" y="1782" on="0"/>
        <pt x="397" y="1741" on="0"/>
        <pt x="436" y="1678" on="0"/>
        <pt x="448" y="1600" on="0"/>
        <pt x="448" y="1563" on="1"/>
        <pt x="448" y="421" on="1"/>
        <pt x="448" y="337" on="0"/>
        <pt x="429" y="220" on="0"/>
        <pt x="418" y="181" on="1"/>
        <pt x="404" y="136" on="0"/>
        <pt x="388" y="107" on="1"/>
        <pt x="484" y="107" on="1"/>
        <pt x="484" y="0" on="1"/>
        <pt x="282" y="0" on="1"/>
        <pt x="282" y="107" on="1"/>
        <pt x="286" y="122" on="0"/>
        <pt x="293" y="159" on="0"/>
        <pt x="296" y="181" on="1"/>
        <pt x="301" y="220" on="0"/>
        <pt x="310" y="337" on="0"/>
        <pt x="310" y="422" on="1"/>
        <pt x="310" y="1563" on="1"/>
        <pt x="310" y="1610" on="1"/>
        <pt x="310" y="1631" on="0"/>
        <pt x="302" y="1662" on="0"/>
        <pt x="280" y="1680" on="0"/>
      </contour>
    </TTGlyph>
    <TTGlyph name="Oring" xMin="64" yMin="-32" xMax="448" yMax="2094">
      <component glyphName="O" x="0" y="0" flags="0x1004"/>
      <component glyphName="ring" x="55" y="1746" flags="0x1004"/>
    </TTGlyph>
    <TTGlyph name="Oslash" xMin="52" yMin="-21" xMax="415" yMax="1784">
      <contour>
        <pt x="52" y="1637" on="1"/>
        <pt x="52" y="1667" on="0"/>
        <pt x="81" y="1721" on="0"/>
        <pt x="130" y="1761" on="0"/>
        <pt x="195" y="1784" on="0"/>
        <pt x="231" y="1784" on="1"/>
        <pt x="269" y="1784" on="0"/>
        <pt x="336" y="1760" on="0"/>
        <pt x="386" y="1719" on="0"/>
        <pt x="415" y="1665" on="0"/>
        <pt x="415" y="1635" on="1"/>
        <pt x="415" y="130" on="1"/>
        <pt x="415" y="98" on="0"/>
        <pt x="386" y="43" on="0"/>
        <pt x="336" y="3" on="0"/>
        <pt x="269" y="-21" on="0"/>
        <pt x="231" y="-21" on="1"/>
        <pt x="195" y="-21" on="0"/>
        <pt x="130" y="2" on="0"/>
        <pt x="81" y="42" on="0"/>
        <pt x="52" y="95" on="0"/>
        <pt x="52" y="124" on="1"/>
      </contour>
      <contour>
        <pt x="186" y="127" on="1"/>
        <pt x="186" y="112" on="0"/>
        <pt x="211" y="88" on="0"/>
        <pt x="231" y="88" on="1"/>
        <pt x="252" y="88" on="0"/>
        <pt x="279" y="112" on="0"/>
        <pt x="279" y="127" on="1"/>
        <pt x="279" y="1225" on="1"/>
      </contour>
      <contour>
        <pt x="279" y="1638" on="1"/>
        <pt x="279" y="1655" on="0"/>
        <pt x="250" y="1679" on="0"/>
        <pt x="231" y="1679" on="1"/>
        <pt x="211" y="1679" on="0"/>
        <pt x="186" y="1655" on="0"/>
        <pt x="186" y="1638" on="1"/>
        <pt x="186" y="539" on="1"/>
      </contour>
    </TTGlyph>
    <TTGlyph name="Otilde" xMin="64" yMin="-32" xMax="448" yMax="2024">
      <component glyphName="tilde" x="81" y="1764" flags="0x1004"/>
      <component glyphName="O" x="0" y="0" flags="0x1204"/>
    </TTGlyph>
    <TTGlyph name="P" xMin="64" yMin="0" xMax="448" yMax="1728">
      <contour>
        <pt x="448" y="992" on="1"/>
        <pt x="448" y="932" on="0"/>
        <pt x="404" y="867" on="0"/>
        <pt x="332" y="837" on="0"/>
        <pt x="240" y="832" on="0"/>
        <pt x="192" y="832" on="1"/>
        <pt x="192" y="0" on="1"/>
        <pt x="64" y="0" on="1"/>
        <pt x="64" y="1728" on="1"/>
        <pt x="192" y="1728" on="1"/>
        <pt x="288" y="1728" on="0"/>
        <pt x="392" y="1696" on="0"/>
        <pt x="440" y="1648" on="0"/>
        <pt x="448" y="1592" on="0"/>
        <pt x="448" y="1568" on="1"/>
      </contour>
      <contour>
        <pt x="320" y="1568" on="1"/>
        <pt x="320" y="1592" on="0"/>
        <pt x="307" y="1618" on="0"/>
        <pt x="277" y="1630" on="0"/>
        <pt x="228" y="1632" on="0"/>
        <pt x="192" y="1632" on="1"/>
        <pt x="192" y="928" on="1"/>
        <pt x="216" y="928" on="0"/>
        <pt x="262" y="930" on="0"/>
        <pt x="298" y="942" on="0"/>
        <pt x="320" y="968" on="0"/>
        <pt x="320" y="992" on="1"/>
      </contour>
    </TTGlyph>
    <TTGlyph name="Q" xMin="64" yMin="-256" xMax="448" yMax="1743">
      <contour>
        <pt x="192" y="1568" on="1"/>
        <pt x="192" y="1580" on="0"/>
        <pt x="194" y="1608" on="0"/>
        <pt x="206" y="1631" on="0"/>
        <pt x="232" y="1647" on="0"/>
        <pt x="280" y="1647" on="0"/>
        <pt x="306" y="1631" on="0"/>
        <pt x="318" y="1608" on="0"/>
        <pt x="320" y="1580" on="0"/>
        <pt x="320" y="1568" on="1"/>
        <pt x="320" y="160" on="1"/>
        <pt x="320" y="148" on="0"/>
        <pt x="318" y="115" on="0"/>
        <pt x="306" y="85" on="0"/>
        <pt x="280" y="64" on="0"/>
        <pt x="232" y="64" on="0"/>
        <pt x="206" y="85" on="0"/>
        <pt x="194" y="115" on="0"/>
        <pt x="192" y="148" on="0"/>
        <pt x="192" y="160" on="1"/>
      </contour>
      <contour>
        <pt x="448" y="1568" on="1"/>
        <pt x="448" y="1576" on="0"/>
        <pt x="446" y="1608" on="0"/>
        <pt x="436" y="1647" on="0"/>
        <pt x="412" y="1688" on="0"/>
        <pt x="370" y="1722" on="0"/>
        <pt x="304" y="1743" on="0"/>
        <pt x="208" y="1743" on="0"/>
        <pt x="142" y="1722" on="0"/>
        <pt x="100" y="1688" on="0"/>
        <pt x="76" y="1647" on="0"/>
        <pt x="66" y="1608" on="0"/>
        <pt x="64" y="1576" on="0"/>
        <pt x="64" y="1568" on="1"/>
        <pt x="64" y="160" on="1"/>
        <pt x="64" y="148" on="0"/>
        <pt x="70" y="85" on="0"/>
        <pt x="106" y="19" on="0"/>
        <pt x="145" y="-6" on="1"/>
        <pt x="166" y="-20" on="0"/>
        <pt x="195" y="-26" on="1"/>
        <pt x="224" y="-256" on="1"/>
        <pt x="352" y="-256" on="1"/>
        <pt x="323" y="-25" on="1"/>
        <pt x="349" y="-18" on="0"/>
        <pt x="367" y="-6" on="1"/>
        <pt x="406" y="19" on="0"/>
        <pt x="442" y="85" on="0"/>
        <pt x="448" y="148" on="0"/>
        <pt x="448" y="160" on="1"/>
      </contour>
    </TTGlyph>
    <TTGlyph name="R" xMin="64" yMin="0" xMax="448" yMax="1728">
      <contour>
        <pt x="448" y="1024" on="1"/>
        <pt x="448" y="952" on="0"/>
        <pt x="400" y="896" on="0"/>
        <pt x="352" y="896" on="1"/>
        <pt x="376" y="896" on="0"/>
        <pt x="412" y="874" on="0"/>
        <pt x="436" y="838" on="0"/>
        <pt x="448" y="792" on="0"/>
        <pt x="448" y="768" on="1"/>
        <pt x="448" y="0" on="1"/>
        <pt x="320" y="0" on="1"/>
        <pt x="320" y="800" on="1"/>
        <pt x="320" y="824" on="0"/>
        <pt x="298" y="850" on="0"/>
        <pt x="262" y="862" on="0"/>
        <pt x="216" y="864" on="0"/>
        <pt x="192" y="864" on="1"/>
        <pt x="192" y="0" on="1"/>
        <pt x="64" y="0" on="1"/>
        <pt x="64" y="1728" on="1"/>
        <pt x="192" y="1728" on="1"/>
        <pt x="240" y="1728" on="0"/>
        <pt x="332" y="1723" on="0"/>
        <pt x="404" y="1693" on="0"/>
        <pt x="448" y="1628" on="0"/>
        <pt x="448" y="1568" on="1"/>
      </contour>
      <contour>
        <pt x="320" y="1568" on="1"/>
        <pt x="320" y="1592" on="0"/>
        <pt x="307" y="1618" on="0"/>
        <pt x="277" y="1630" on="0"/>
        <pt x="228" y="1632" on="0"/>
        <pt x="192" y="1632" on="1"/>
        <pt x="192" y="928" on="1"/>
        <pt x="216" y="928" on="0"/>
        <pt x="262" y="930" on="0"/>
        <pt x="298" y="942" on="0"/>
        <pt x="320" y="968" on="0"/>
        <pt x="320" y="992" on="1"/>
      </contour>
    </TTGlyph>
    <TTGlyph name="Racute" xMin="64" yMin="0" xMax="448" yMax="2281">
      <component glyphName="acute" x="80" y="1769" flags="0x1004"/>
      <component glyphName="R" x="0" y="0" flags="0x1204"/>
    </TTGlyph>
    <TTGlyph name="Rcaron" xMin="-4" yMin="0" xMax="448" yMax="2211">
      <component glyphName="caron" x="-36" y="1781" flags="0x1004"/>
      <component glyphName="R" x="0" y="0" flags="0x1204"/>
    </TTGlyph>
    <TTGlyph name="Rcommaaccent" xMin="64" yMin="-474" xMax="448" yMax="1728">
      <component glyphName="comma" x="160" y="-314" flags="0x1004"/>
      <component glyphName="R" x="0" y="0" flags="0x1204"/>
    </TTGlyph>
    <TTGlyph name="S" xMin="32" yMin="-32" xMax="416" yMax="1743">
      <contour>
        <pt x="288" y="421" on="1"/>
        <pt x="288" y="527" on="0"/>
        <pt x="266" y="679" on="0"/>
        <pt x="230" y="792" on="0"/>
        <pt x="184" y="876" on="0"/>
        <pt x="136" y="950" on="0"/>
        <pt x="90" y="1024" on="0"/>
        <pt x="54" y="1118" on="0"/>
        <pt x="32" y="1241" on="0"/>
        <pt x="32" y="1327" on="1"/>
        <pt x="32" y="1568" on="1"/>
        <pt x="32" y="1592" on="0"/>
        <pt x="47" y="1653" on="0"/>
        <pt x="89" y="1706" on="0"/>
        <pt x="164" y="1743" on="0"/>
        <pt x="224" y="1743" on="1"/>
        <pt x="284" y="1743" on="0"/>
        <pt x="359" y="1706" on="0"/>
        <pt x="401" y="1653" on="0"/>
        <pt x="416" y="1592" on="0"/>
        <pt x="416" y="1568" on="1"/>
        <pt x="416" y="1120" on="1"/>
        <pt x="288" y="1120" on="1"/>
        <pt x="288" y="1568" on="1"/>
        <pt x="288" y="1592" on="0"/>
        <pt x="277" y="1623" on="0"/>
        <pt x="259" y="1640" on="0"/>
        <pt x="236" y="1647" on="0"/>
        <pt x="224" y="1647" on="1"/>
        <pt x="212" y="1647" on="0"/>
        <pt x="189" y="1640" on="0"/>
        <pt x="171" y="1623" on="0"/>
        <pt x="160" y="1592" on="0"/>
        <pt x="160" y="1568" on="1"/>
        <pt x="160" y="1373" on="1"/>
        <pt x="160" y="1260" on="0"/>
        <pt x="198" y="1108" on="0"/>
        <pt x="255" y="995" on="0"/>
        <pt x="321" y="903" on="0"/>
        <pt x="378" y="796" on="0"/>
        <pt x="416" y="655" on="0"/>
        <pt x="416" y="550" on="1"/>
        <pt x="416" y="160" on="1"/>
        <pt x="416" y="148" on="0"/>
        <pt x="410" y="85" on="0"/>
        <pt x="374" y="19" on="0"/>
        <pt x="296" y="-32" on="0"/>
        <pt x="224" y="-32" on="1"/>
        <pt x="152" y="-32" on="0"/>
        <pt x="74" y="19" on="0"/>
        <pt x="38" y="85" on="0"/>
        <pt x="32" y="148" on="0"/>
        <pt x="32" y="160" on="1"/>
        <pt x="32" y="736" on="1"/>
        <pt x="160" y="736" on="1"/>
        <pt x="160" y="160" on="1"/>
        <pt x="160" y="148" on="0"/>
        <pt x="162" y="115" on="0"/>
        <pt x="174" y="85" on="0"/>
        <pt x="200" y="64" on="0"/>
        <pt x="224" y="64" on="1"/>
        <pt x="248" y="64" on="0"/>
        <pt x="274" y="85" on="0"/>
        <pt x="286" y="115" on="0"/>
        <pt x="288" y="148" on="0"/>
        <pt x="288" y="160" on="1"/>
      </contour>
    </TTGlyph>
    <TTGlyph name="Sacute" xMin="32" yMin="-32" xMax="464" yMax="2281">
      <component glyphName="acute" x="176" y="1769" flags="0x1004"/>
      <component glyphName="S" x="0" y="0" flags="0x1204"/>
    </TTGlyph>
    <TTGlyph name="Sbreve" xMin="30" yMin="-32" xMax="448" yMax="2054">
      <component glyphName="S" x="32" y="0" flags="0x1204"/>
      <component glyphName="breve" x="58" y="1746" flags="0x1004"/>
    </TTGlyph>
    <TTGlyph name="Scaron" xMin="32" yMin="-32" xMax="416" yMax="2211">
      <component glyphName="caron" x="60" y="1781" flags="0x1004"/>
      <component glyphName="S" x="0" y="0" flags="0x1204"/>
    </TTGlyph>
    <TTGlyph name="Scedilla" xMin="32" yMin="-428" xMax="416" yMax="1743">
      <component glyphName="cedilla" x="42" y="-18" flags="0x1004"/>
      <component glyphName="S" x="0" y="0" flags="0x1204"/>
    </TTGlyph>
    <TTGlyph name="Scircumflex" xMin="32" yMin="-32" xMax="416" yMax="2211">
      <component glyphName="circumflex" x="61" y="1781" flags="0x1004"/>
      <component glyphName="S" x="0" y="0" flags="0x1204"/>
    </TTGlyph>
    <TTGlyph name="Sdieresis" xMin="46" yMin="-32" xMax="448" yMax="1981">
      <component glyphName="S" x="32" y="0" flags="0x1204"/>
      <component glyphName="dieresis" x="-69" y="1746" flags="0x1004"/>
    </TTGlyph>
    <TTGlyph name="Sgrave" xMin="64" yMin="-32" xMax="448" yMax="2258">
      <component glyphName="S" x="32" y="0" flags="0x1204"/>
      <component glyphName="grave" x="82" y="1746" flags="0x1004"/>
    </TTGlyph>
    <TTGlyph name="Smacron" xMin="62" yMin="-32" xMax="448" yMax="1938">
      <component glyphName="S" x="32" y="0" flags="0x1204"/>
      <component glyphName="macron" x="62" y="1746" flags="0x1004"/>
    </TTGlyph>
    <TTGlyph name="Sring" xMin="64" yMin="-32" xMax="448" yMax="2094">
      <component glyphName="S" x="32" y="0" flags="0x1204"/>
      <component glyphName="ring" x="51" y="1746" flags="0x1004"/>
    </TTGlyph>
    <TTGlyph name="Stilde" xMin="30" yMin="-32" xMax="448" yMax="2006">
      <component glyphName="S" x="32" y="0" flags="0x1204"/>
      <component glyphName="tilde" x="45" y="1746" flags="0x1004"/>
    </TTGlyph>
    <TTGlyph name="T" xMin="32" yMin="0" xMax="416" yMax="1728">
      <contour>
        <pt x="416" y="1728" on="1"/>
        <pt x="416" y="1632" on="1"/>
        <pt x="288" y="1632" on="1"/>
        <pt x="288" y="0" on="1"/>
        <pt x="160" y="0" on="1"/>
        <pt x="160" y="1632" on="1"/>
        <pt x="32" y="1632" on="1"/>
        <pt x="32" y="1728" on="1"/>
      </contour>
    </TTGlyph>
    <TTGlyph name="Tbar" xMin="21" yMin="0" xMax="416" yMax="1728">
      <component glyphName="T" x="0" y="0" flags="0x1004"/>
      <component glyphName="macron" x="21" y="1004" flags="0x1004"/>
    </TTGlyph>
    <TTGlyph name="Tcaron" xMin="32" yMin="0" xMax="416" yMax="2211">
      <component glyphName="caron" x="60" y="1781" flags="0x1004"/>
      <component glyphName="T" x="0" y="0" flags="0x1204"/>
    </TTGlyph>
    <TTGlyph name="Tcommaaccent" xMin="32" yMin="-396" xMax="416" yMax="1728">
      <component glyphName="cedilla" x="42" y="14" flags="0x1004"/>
      <component glyphName="T" x="0" y="0" flags="0x1204"/>
    </TTGlyph>
    <TTGlyph name="Thorn" xMin="55" yMin="0" xMax="413" yMax="1761">
      <contour>
        <pt x="413" y="609" on="1"/>
        <pt x="413" y="525" on="0"/>
        <pt x="298" y="458" on="0"/>
        <pt x="189" y="458" on="1"/>
        <pt x="189" y="0" on="1"/>
        <pt x="55" y="0" on="1"/>
        <pt x="55" y="1761" on="1"/>
        <pt x="189" y="1761" on="1"/>
        <pt x="189" y="1520" on="1"/>
        <pt x="230" y="1520" on="1"/>
        <pt x="267" y="1520" on="0"/>
        <pt x="334" y="1498" on="0"/>
        <pt x="384" y="1457" on="0"/>
        <pt x="413" y="1397" on="0"/>
        <pt x="413" y="1360" on="1"/>
      </contour>
      <contour>
        <pt x="276" y="1372" on="1"/>
        <pt x="276" y="1397" on="0"/>
        <pt x="228" y="1415" on="0"/>
        <pt x="189" y="1415" on="1"/>
        <pt x="189" y="573" on="1"/>
        <pt x="236" y="573" on="0"/>
        <pt x="276" y="587" on="0"/>
        <pt x="276" y="617" on="1"/>
      </contour>
    </TTGlyph>
    <TTGlyph name="U" xMin="64" yMin="-32" xMax="448" yMax="1728">
      <contour>
        <pt x="192" y="160" on="1"/>
        <pt x="192" y="148" on="0"/>
        <pt x="194" y="115" on="0"/>
        <pt x="206" y="85" on="0"/>
        <pt x="232" y="64" on="0"/>
        <pt x="256" y="64" on="1"/>
        <pt x="280" y="64" on="0"/>
        <pt x="306" y="85" on="0"/>
        <pt x="318" y="115" on="0"/>
        <pt x="320" y="148" on="0"/>
        <pt x="320" y="160" on="1"/>
        <pt x="320" y="1728" on="1"/>
        <pt x="448" y="1728" on="1"/>
        <pt x="448" y="160" on="1"/>
        <pt x="448" y="148" on="0"/>
        <pt x="442" y="85" on="0"/>
        <pt x="406" y="19" on="0"/>
        <pt x="328" y="-32" on="0"/>
        <pt x="256" y="-32" on="1"/>
        <pt x="184" y="-32" on="0"/>
        <pt x="106" y="19" on="0"/>
        <pt x="70" y="85" on="0"/>
        <pt x="64" y="148" on="0"/>
        <pt x="64" y="160" on="1"/>
        <pt x="64" y="1728" on="1"/>
        <pt x="192" y="1728" on="1"/>
      </contour>
    </TTGlyph>
    <TTGlyph name="Uacute" xMin="42" yMin="-32" xMax="451" yMax="2258">
      <component glyphName="U" x="3" y="0" flags="0x1004"/>
      <component glyphName="acute" x="42" y="1746" flags="0x1004"/>
    </TTGlyph>
    <TTGlyph name="Ubreve" xMin="64" yMin="-32" xMax="448" yMax="2089">
      <component glyphName="breve" x="92" y="1781" flags="0x1004"/>
      <component glyphName="U" x="0" y="0" flags="0x1204"/>
    </TTGlyph>
    <TTGlyph name="Ucircumflex" xMin="67" yMin="-32" xMax="451" yMax="2176">
      <component glyphName="U" x="3" y="0" flags="0x1004"/>
      <component glyphName="circumflex" x="63" y="1746" flags="0x1004"/>
    </TTGlyph>
    <TTGlyph name="Udieresis" xMin="54" yMin="-32" xMax="451" yMax="1981">
      <component glyphName="U" x="3" y="0" flags="0x1004"/>
      <component glyphName="dieresis" x="-61" y="1746" flags="0x1004"/>
    </TTGlyph>
    <TTGlyph name="Udotaccent" xMin="67" yMin="-32" xMax="451" yMax="2030">
      <component glyphName="U" x="3" y="0" flags="0x1004"/>
      <component glyphName="dotaccent" x="82" y="1746" flags="0x1004"/>
    </TTGlyph>
    <TTGlyph name="Ugrave" xMin="17" yMin="-32" xMax="451" yMax="2258">
      <component glyphName="U" x="3" y="0" flags="0x1004"/>
      <component glyphName="grave" x="17" y="1746" flags="0x1004"/>
    </TTGlyph>
    <TTGlyph name="Uhungarumlaut" xMin="64" yMin="-32" xMax="621" yMax="2275">
      <component glyphName="hungarumlaut" x="86" y="1781" flags="0x1004"/>
      <component glyphName="U" x="0" y="0" flags="0x1204"/>
    </TTGlyph>
    <TTGlyph name="Umacron" xMin="64" yMin="-32" xMax="448" yMax="1970">
      <component glyphName="macron" x="92" y="1778" flags="0x1004"/>
      <component glyphName="U" x="0" y="0" flags="0x1204"/>
    </TTGlyph>
    <TTGlyph name="Uogonek" xMin="64" yMin="-283" xMax="451" yMax="1728">
      <component glyphName="U" x="0" y="0" flags="0x1004"/>
      <component glyphName="ogonek" x="105" y="0" flags="0x1004"/>
    </TTGlyph>
    <TTGlyph name="Uring" xMin="64" yMin="-32" xMax="448" yMax="2147">
      <component glyphName="ring" x="80" y="1799" flags="0x1004"/>
      <component glyphName="U" x="0" y="0" flags="0x1204"/>
    </TTGlyph>
    <TTGlyph name="Utilde" xMin="64" yMin="-32" xMax="448" yMax="2024">
      <component glyphName="tilde" x="81" y="1764" flags="0x1004"/>
      <component glyphName="U" x="0" y="0" flags="0x1204"/>
    </TTGlyph>
    <TTGlyph name="V" xMin="32" yMin="0" xMax="416" yMax="1728">
      <contour>
        <pt x="193" y="1184" on="1"/>
        <pt x="224" y="544" on="1"/>
        <pt x="255" y="1184" on="1"/>
        <pt x="288" y="1728" on="1"/>
        <pt x="416" y="1728" on="1"/>
        <pt x="288" y="0" on="1"/>
        <pt x="160" y="0" on="1"/>
        <pt x="32" y="1728" on="1"/>
        <pt x="160" y="1728" on="1"/>
      </contour>
    </TTGlyph>
    <TTGlyph name="W" xMin="32" yMin="0" xMax="672" yMax="1728">
      <contour>
        <pt x="352" y="1472" on="1"/>
        <pt x="320" y="992" on="1"/>
        <pt x="256" y="0" on="1"/>
        <pt x="128" y="0" on="1"/>
        <pt x="32" y="1728" on="1"/>
        <pt x="160" y="1728" on="1"/>
        <pt x="192" y="512" on="1"/>
        <pt x="288" y="1728" on="1"/>
        <pt x="416" y="1728" on="1"/>
        <pt x="512" y="512" on="1"/>
        <pt x="544" y="1728" on="1"/>
        <pt x="672" y="1728" on="1"/>
        <pt x="576" y="0" on="1"/>
        <pt x="448" y="0" on="1"/>
        <pt x="384" y="992" on="1"/>
      </contour>
    </TTGlyph>
    <TTGlyph name="Wacute" xMin="32" yMin="0" xMax="672" yMax="2281">
      <component glyphName="acute" x="304" y="1769" flags="0x1004"/>
      <component glyphName="W" x="0" y="0" flags="0x1204"/>
    </TTGlyph>
    <TTGlyph name="Wbreve" xMin="32" yMin="0" xMax="672" yMax="2051">
      <component glyphName="W" x="0" y="0" flags="0x1004"/>
      <component glyphName="breve" x="184" y="1743" flags="0x1004"/>
    </TTGlyph>
    <TTGlyph name="Wcaron" xMin="32" yMin="0" xMax="672" yMax="2173">
      <component glyphName="W" x="0" y="0" flags="0x1004"/>
      <component glyphName="caron" x="184" y="1743" flags="0x1004"/>
    </TTGlyph>
    <TTGlyph name="Wcircumflex" xMin="32" yMin="0" xMax="672" yMax="2211">
      <component glyphName="circumflex" x="189" y="1781" flags="0x1004"/>
      <component glyphName="W" x="0" y="0" flags="0x1204"/>
    </TTGlyph>
    <TTGlyph name="Wdieresis" xMin="32" yMin="0" xMax="672" yMax="2024">
      <component glyphName="dieresis" x="64" y="1789" flags="0x1004"/>
      <component glyphName="W" x="0" y="0" flags="0x1204"/>
    </TTGlyph>
    <TTGlyph name="Wgrave" xMin="32" yMin="0" xMax="672" yMax="2281">
      <component glyphName="grave" x="112" y="1769" flags="0x1004"/>
      <component glyphName="W" x="0" y="0" flags="0x1204"/>
    </TTGlyph>
    <TTGlyph name="Wmacron" xMin="32" yMin="0" xMax="672" yMax="1935">
      <component glyphName="W" x="0" y="0" flags="0x1004"/>
      <component glyphName="macron" x="192" y="1743" flags="0x1004"/>
    </TTGlyph>
    <TTGlyph name="Wring" xMin="32" yMin="0" xMax="672" yMax="2091">
      <component glyphName="W" x="0" y="0" flags="0x1004"/>
      <component glyphName="ring" x="177" y="1743" flags="0x1004"/>
    </TTGlyph>
    <TTGlyph name="Wtilde" xMin="32" yMin="0" xMax="672" yMax="2003">
      <component glyphName="W" x="0" y="0" flags="0x1004"/>
      <component glyphName="tilde" x="171" y="1743" flags="0x1004"/>
    </TTGlyph>
    <TTGlyph name="X" xMin="32" yMin="0" xMax="384" yMax="1728">
      <contour>
        <pt x="192" y="1280" on="1"/>
        <pt x="209" y="1024" on="1"/>
        <pt x="224" y="1280" on="1"/>
        <pt x="256" y="1728" on="1"/>
        <pt x="384" y="1728" on="1"/>
        <pt x="288" y="864" on="1"/>
        <pt x="384" y="0" on="1"/>
        <pt x="256" y="0" on="1"/>
        <pt x="224" y="448" on="1"/>
        <pt x="208" y="704" on="1"/>
        <pt x="192" y="448" on="1"/>
        <pt x="160" y="0" on="1"/>
        <pt x="32" y="0" on="1"/>
        <pt x="128" y="864" on="1"/>
        <pt x="32" y="1728" on="1"/>
        <pt x="160" y="1728" on="1"/>
      </contour>
    </TTGlyph>
    <TTGlyph name="Y" xMin="32" yMin="0" xMax="416" yMax="1728">
      <contour>
        <pt x="192" y="1280" on="1"/>
        <pt x="224" y="832" on="1"/>
        <pt x="256" y="1280" on="1"/>
        <pt x="288" y="1728" on="1"/>
        <pt x="416" y="1728" on="1"/>
        <pt x="288" y="608" on="1"/>
        <pt x="288" y="0" on="1"/>
        <pt x="160" y="0" on="1"/>
        <pt x="160" y="608" on="1"/>
        <pt x="32" y="1728" on="1"/>
        <pt x="160" y="1728" on="1"/>
      </contour>
    </TTGlyph>
    <TTGlyph name="Yacute" xMin="5" yMin="0" xMax="448" yMax="2258">
      <component glyphName="Y" x="32" y="0" flags="0x1004"/>
      <component glyphName="acute" x="5" y="1746" flags="0x1004"/>
    </TTGlyph>
    <TTGlyph name="Ybreve" xMin="8" yMin="0" xMax="448" yMax="2054">
      <component glyphName="Y" x="32" y="0" flags="0x1004"/>
      <component glyphName="breve" x="36" y="1746" flags="0x1004"/>
    </TTGlyph>
    <TTGlyph name="Ycaron" xMin="64" yMin="0" xMax="448" yMax="2176">
      <component glyphName="Y" x="32" y="0" flags="0x1004"/>
      <component glyphName="caron" x="37" y="1746" flags="0x1004"/>
    </TTGlyph>
    <TTGlyph name="Ycircumflex" xMin="32" yMin="0" xMax="416" yMax="2211">
      <component glyphName="circumflex" x="61" y="1781" flags="0x1004"/>
      <component glyphName="Y" x="0" y="0" flags="0x1204"/>
    </TTGlyph>
    <TTGlyph name="Ydieresis" xMin="32" yMin="0" xMax="416" yMax="2024">
      <component glyphName="dieresis" x="-64" y="1789" flags="0x1004"/>
      <component glyphName="Y" x="0" y="0" flags="0x1204"/>
    </TTGlyph>
    <TTGlyph name="Ygrave" xMin="-16" yMin="0" xMax="416" yMax="2281">
      <component glyphName="grave" x="-16" y="1769" flags="0x1004"/>
      <component glyphName="Y" x="0" y="0" flags="0x1204"/>
    </TTGlyph>
    <TTGlyph name="Ymacron" xMin="40" yMin="0" xMax="448" yMax="1938">
      <component glyphName="Y" x="32" y="0" flags="0x1004"/>
      <component glyphName="macron" x="40" y="1746" flags="0x1004"/>
    </TTGlyph>
    <TTGlyph name="Yring" xMin="62" yMin="0" xMax="448" yMax="2094">
      <component glyphName="Y" x="32" y="0" flags="0x1004"/>
      <component glyphName="ring" x="29" y="1746" flags="0x1004"/>
    </TTGlyph>
    <TTGlyph name="Z" xMin="32" yMin="0" xMax="320" yMax="1728">
      <contour>
        <pt x="320" y="1728" on="1"/>
        <pt x="160" y="96" on="1"/>
        <pt x="320" y="96" on="1"/>
        <pt x="320" y="0" on="1"/>
        <pt x="32" y="0" on="1"/>
        <pt x="192" y="1632" on="1"/>
        <pt x="32" y="1632" on="1"/>
        <pt x="32" y="1728" on="1"/>
      </contour>
    </TTGlyph>
    <TTGlyph name="Zacute" xMin="32" yMin="0" xMax="416" yMax="2281">
      <component glyphName="acute" x="128" y="1769" flags="0x1004"/>
      <component glyphName="Z" x="0" y="0" flags="0x1204"/>
    </TTGlyph>
    <TTGlyph name="Zcaron" xMin="32" yMin="0" xMax="320" yMax="2211">
      <component glyphName="caron" x="12" y="1781" flags="0x1004"/>
      <component glyphName="Z" x="0" y="0" flags="0x1204"/>
    </TTGlyph>
    <TTGlyph name="Zdotaccent" xMin="32" yMin="0" xMax="320" yMax="2050">
      <component glyphName="dotaccent" x="30" y="1766" flags="0x1004"/>
      <component glyphName="Z" x="0" y="0" flags="0x1204"/>
    </TTGlyph>
    <TTGlyph name="a" xMin="32" yMin="0" xMax="416" yMax="1536">
      <contour>
        <pt x="416" y="0" on="1"/>
        <pt x="288" y="0" on="1"/>
        <pt x="268" y="332" on="1"/>
        <pt x="179" y="332" on="1"/>
        <pt x="160" y="0" on="1"/>
        <pt x="32" y="0" on="1"/>
        <pt x="160" y="1536" on="1"/>
        <pt x="288" y="1536" on="1"/>
      </contour>
      <contour>
        <pt x="261" y="436" on="1"/>
        <pt x="224" y="1216" on="1"/>
        <pt x="186" y="436" on="1"/>
      </contour>
    </TTGlyph>
    <TTGlyph name="aacute" xMin="32" yMin="0" xMax="464" yMax="2088">
      <component glyphName="acute" x="176" y="1576" flags="0x1004"/>
      <component glyphName="a" x="0" y="0" flags="0x1204"/>
    </TTGlyph>
    <TTGlyph name="abreve" xMin="32" yMin="0" xMax="416" yMax="1896">
      <component glyphName="breve" x="60" y="1588" flags="0x1004"/>
      <component glyphName="a" x="0" y="0" flags="0x1204"/>
    </TTGlyph>
    <TTGlyph name="acircumflex" xMin="32" yMin="0" xMax="416" yMax="2018">
      <component glyphName="circumflex" x="61" y="1588" flags="0x1004"/>
      <component glyphName="a" x="0" y="0" flags="0x1204"/>
    </TTGlyph>
    <TTGlyph name="acute" xMin="0" yMin="96" xMax="288" yMax="512">
      <contour>
        <pt x="288" y="512" on="1"/>
        <pt x="96" y="96" on="1"/>
        <pt x="0" y="96" on="1"/>
        <pt x="128" y="512" on="1"/>
      </contour>
    </TTGlyph>
    <TTGlyph name="adieresis" xMin="32" yMin="0" xMax="416" yMax="1831">
      <component glyphName="dieresis" x="-64" y="1596" flags="0x1004"/>
      <component glyphName="a" x="0" y="0" flags="0x1204"/>
    </TTGlyph>
    <TTGlyph name="adotaccent" xMin="64" yMin="0" xMax="448" yMax="1780">
      <component glyphName="a" x="32" y="0" flags="0x1004"/>
      <component glyphName="dotaccent" x="71" y="1496" flags="0x1004"/>
    </TTGlyph>
    <TTGlyph name="ae" xMin="11" yMin="0" xMax="568" yMax="1520">
      <contour>
        <pt x="568" y="1422" on="1"/>
        <pt x="402" y="1422" on="1"/>
        <pt x="402" y="858" on="1"/>
        <pt x="526" y="858" on="1"/>
        <pt x="526" y="752" on="1"/>
        <pt x="402" y="752" on="1"/>
        <pt x="402" y="101" on="1"/>
        <pt x="568" y="101" on="1"/>
        <pt x="568" y="0" on="1"/>
        <pt x="280" y="0" on="1"/>
        <pt x="283" y="332" on="1"/>
        <pt x="184" y="332" on="1"/>
        <pt x="139" y="0" on="1"/>
        <pt x="11" y="0" on="1"/>
        <pt x="220" y="1520" on="1"/>
        <pt x="568" y="1520" on="1"/>
      </contour>
      <contour>
        <pt x="282" y="436" on="1"/>
        <pt x="289" y="1259" on="1"/>
        <pt x="198" y="436" on="1"/>
      </contour>
    </TTGlyph>
    <TTGlyph name="afii61352" xMin="55" yMin="-21" xMax="885" yMax="1761">
      <contour>
        <pt x="424" y="0" on="1"/>
        <pt x="289" y="0" on="1"/>
        <pt x="189" y="982" on="1"/>
        <pt x="189" y="0" on="1"/>
        <pt x="55" y="0" on="1"/>
        <pt x="55" y="1761" on="1"/>
        <pt x="187" y="1761" on="1"/>
        <pt x="298" y="738" on="1"/>
        <pt x="298" y="1761" on="1"/>
        <pt x="424" y="1761" on="1"/>
      </contour>
      <contour>
        <pt x="885" y="130" on="1"/>
        <pt x="885" y="99" on="0"/>
        <pt x="856" y="44" on="0"/>
        <pt x="808" y="3" on="0"/>
        <pt x="744" y="-21" on="0"/>
        <pt x="710" y="-21" on="1"/>
        <pt x="674" y="-21" on="0"/>
        <pt x="609" y="3" on="0"/>
        <pt x="560" y="45" on="0"/>
        <pt x="531" y="102" on="0"/>
        <pt x="531" y="135" on="1"/>
        <pt x="531" y="1391" on="1"/>
        <pt x="531" y="1422" on="0"/>
        <pt x="560" y="1478" on="0"/>
        <pt x="609" y="1520" on="0"/>
        <pt x="674" y="1545" on="0"/>
        <pt x="710" y="1545" on="1"/>
        <pt x="744" y="1545" on="0"/>
        <pt x="808" y="1522" on="0"/>
        <pt x="856" y="1482" on="0"/>
        <pt x="885" y="1426" on="0"/>
        <pt x="885" y="1393" on="1"/>
      </contour>
      <contour>
        <pt x="746" y="1415" on="1"/>
        <pt x="746" y="1430" on="0"/>
        <pt x="725" y="1450" on="0"/>
        <pt x="710" y="1450" on="1"/>
        <pt x="693" y="1450" on="0"/>
        <pt x="669" y="1430" on="0"/>
        <pt x="669" y="1415" on="1"/>
        <pt x="669" y="109" on="1"/>
        <pt x="669" y="101" on="0"/>
        <pt x="690" y="78" on="0"/>
        <pt x="710" y="78" on="1"/>
        <pt x="725" y="78" on="0"/>
        <pt x="746" y="96" on="0"/>
        <pt x="746" y="109" on="1"/>
      </contour>
    </TTGlyph>
    <TTGlyph name="agrave" xMin="-16" yMin="0" xMax="416" yMax="2088">
      <component glyphName="grave" x="-16" y="1576" flags="0x1004"/>
      <component glyphName="a" x="0" y="0" flags="0x1204"/>
    </TTGlyph>
    <TTGlyph name="amacron" xMin="32" yMin="0" xMax="416" yMax="1777">
      <component glyphName="macron" x="60" y="1585" flags="0x1004"/>
      <component glyphName="a" x="0" y="0" flags="0x1204"/>
    </TTGlyph>
    <TTGlyph name="ampersand" xMin="52" yMin="-21" xMax="503" yMax="1784">
      <contour>
        <pt x="415" y="1077" on="1"/>
        <pt x="280" y="1077" on="1"/>
        <pt x="280" y="1638" on="1"/>
        <pt x="280" y="1652" on="0"/>
        <pt x="254" y="1674" on="0"/>
        <pt x="231" y="1674" on="1"/>
        <pt x="213" y="1674" on="0"/>
        <pt x="186" y="1652" on="0"/>
        <pt x="186" y="1638" on="1"/>
        <pt x="186" y="1062" on="1"/>
        <pt x="186" y="1029" on="0"/>
        <pt x="199" y="993" on="0"/>
        <pt x="223" y="977" on="0"/>
        <pt x="259" y="974" on="0"/>
        <pt x="282" y="974" on="1"/>
        <pt x="282" y="857" on="1"/>
        <pt x="259" y="857" on="0"/>
        <pt x="223" y="856" on="0"/>
        <pt x="199" y="845" on="0"/>
        <pt x="186" y="820" on="0"/>
        <pt x="186" y="797" on="1"/>
        <pt x="186" y="127" on="1"/>
        <pt x="186" y="112" on="0"/>
        <pt x="213" y="88" on="0"/>
        <pt x="231" y="88" on="1"/>
        <pt x="254" y="88" on="0"/>
        <pt x="280" y="112" on="0"/>
        <pt x="280" y="127" on="1"/>
        <pt x="280" y="749" on="1"/>
        <pt x="503" y="749" on="1"/>
        <pt x="502" y="638" on="1"/>
        <pt x="415" y="636" on="1"/>
        <pt x="415" y="124" on="1"/>
        <pt x="415" y="95" on="0"/>
        <pt x="386" y="42" on="0"/>
        <pt x="336" y="2" on="0"/>
        <pt x="269" y="-21" on="0"/>
        <pt x="231" y="-21" on="1"/>
        <pt x="195" y="-21" on="0"/>
        <pt x="130" y="2" on="0"/>
        <pt x="81" y="43" on="0"/>
        <pt x="52" y="97" on="0"/>
        <pt x="52" y="127" on="1"/>
        <pt x="52" y="801" on="1"/>
        <pt x="52" y="840" on="0"/>
        <pt x="83" y="890" on="0"/>
        <pt x="103" y="903" on="1"/>
        <pt x="127" y="919" on="0"/>
        <pt x="156" y="926" on="1"/>
        <pt x="125" y="932" on="0"/>
        <pt x="103" y="950" on="1"/>
        <pt x="83" y="964" on="0"/>
        <pt x="52" y="1017" on="0"/>
        <pt x="52" y="1062" on="1"/>
        <pt x="52" y="1638" on="1"/>
        <pt x="52" y="1668" on="0"/>
        <pt x="81" y="1722" on="0"/>
        <pt x="130" y="1761" on="0"/>
        <pt x="195" y="1784" on="0"/>
        <pt x="231" y="1784" on="1"/>
        <pt x="269" y="1784" on="0"/>
        <pt x="336" y="1762" on="0"/>
        <pt x="386" y="1723" on="0"/>
        <pt x="415" y="1669" on="0"/>
        <pt x="415" y="1638" on="1"/>
      </contour>
    </TTGlyph>
    <TTGlyph name="aogonek" xMin="64" yMin="-283" xMax="549" yMax="1536">
      <component glyphName="a" x="32" y="0" flags="0x1004"/>
      <component glyphName="ogonek" x="203" y="0" flags="0x1004"/>
    </TTGlyph>
    <TTGlyph name="apple" xMin="52" yMin="-21" xMax="406" yMax="1783">
      <contour>
        <pt x="406" y="130" on="1"/>
        <pt x="406" y="99" on="0"/>
        <pt x="377" y="44" on="0"/>
        <pt x="329" y="3" on="0"/>
        <pt x="265" y="-21" on="0"/>
        <pt x="230" y="-21" on="1"/>
        <pt x="193" y="-21" on="0"/>
        <pt x="128" y="3" on="0"/>
        <pt x="80" y="45" on="0"/>
        <pt x="52" y="102" on="0"/>
        <pt x="52" y="135" on="1"/>
        <pt x="52" y="1631" on="1"/>
        <pt x="52" y="1663" on="0"/>
        <pt x="80" y="1718" on="0"/>
        <pt x="128" y="1759" on="0"/>
        <pt x="193" y="1783" on="0"/>
        <pt x="230" y="1783" on="1"/>
        <pt x="265" y="1783" on="0"/>
        <pt x="329" y="1760" on="0"/>
        <pt x="377" y="1720" on="0"/>
        <pt x="406" y="1665" on="0"/>
        <pt x="406" y="1632" on="1"/>
      </contour>
      <contour>
        <pt x="338" y="994" on="1"/>
        <pt x="336" y="987" on="0"/>
        <pt x="331" y="931" on="0"/>
        <pt x="324" y="856" on="0"/>
        <pt x="316" y="771" on="0"/>
        <pt x="307" y="701" on="0"/>
        <pt x="295" y="656" on="0"/>
        <pt x="289" y="657" on="1"/>
        <pt x="292" y="719" on="0"/>
        <pt x="292" y="834" on="0"/>
        <pt x="287" y="931" on="0"/>
        <pt x="281" y="1007" on="0"/>
        <pt x="278" y="1030" on="1"/>
        <pt x="273" y="1065" on="1"/>
        <pt x="272" y="1018" on="1"/>
        <pt x="271" y="972" on="0"/>
        <pt x="265" y="838" on="0"/>
        <pt x="259" y="757" on="1"/>
        <pt x="255" y="716" on="0"/>
        <pt x="248" y="643" on="0"/>
        <pt x="243" y="611" on="1"/>
        <pt x="231" y="644" on="0"/>
        <pt x="217" y="725" on="0"/>
        <pt x="208" y="809" on="0"/>
        <pt x="205" y="893" on="0"/>
        <pt x="206" y="968" on="0"/>
        <pt x="208" y="1027" on="0"/>
        <pt x="210" y="1045" on="1"/>
        <pt x="211" y="1068" on="1"/>
        <pt x="196" y="1039" on="0"/>
        <pt x="182" y="945" on="0"/>
        <pt x="177" y="820" on="0"/>
        <pt x="181" y="669" on="0"/>
        <pt x="184" y="585" on="1"/>
        <pt x="166" y="618" on="0"/>
        <pt x="145" y="726" on="0"/>
        <pt x="133" y="844" on="0"/>
        <pt x="124" y="952" on="0"/>
        <pt x="117" y="985" on="1"/>
        <pt x="138" y="148" on="1"/>
        <pt x="138" y="111" on="0"/>
        <pt x="180" y="58" on="0"/>
        <pt x="230" y="58" on="1"/>
        <pt x="254" y="58" on="0"/>
        <pt x="286" y="73" on="0"/>
        <pt x="305" y="97" on="0"/>
        <pt x="314" y="125" on="0"/>
        <pt x="316" y="139" on="1"/>
      </contour>
    </TTGlyph>
    <TTGlyph name="approxequal" xMin="24" yMin="599" xMax="675" yMax="954">
      <contour>
        <pt x="24" y="795" on="1"/>
        <pt x="24" y="828" on="0"/>
        <pt x="34" y="886" on="0"/>
        <pt x="56" y="929" on="0"/>
        <pt x="94" y="954" on="0"/>
        <pt x="123" y="954" on="1"/>
        <pt x="139" y="954" on="0"/>
        <pt x="209" y="947" on="0"/>
        <pt x="298" y="938" on="0"/>
        <pt x="397" y="926" on="0"/>
        <pt x="488" y="917" on="0"/>
        <pt x="561" y="910" on="0"/>
        <pt x="579" y="910" on="1"/>
        <pt x="589" y="910" on="0"/>
        <pt x="601" y="924" on="0"/>
        <pt x="603" y="932" on="1"/>
        <pt x="607" y="943" on="0"/>
        <pt x="608" y="954" on="1"/>
        <pt x="675" y="954" on="1"/>
        <pt x="680" y="907" on="0"/>
        <pt x="669" y="874" on="1"/>
        <pt x="661" y="842" on="0"/>
        <pt x="617" y="795" on="0"/>
        <pt x="573" y="795" on="1"/>
        <pt x="556" y="795" on="0"/>
        <pt x="483" y="802" on="0"/>
        <pt x="391" y="811" on="0"/>
        <pt x="289" y="823" on="0"/>
        <pt x="200" y="832" on="0"/>
        <pt x="132" y="839" on="0"/>
        <pt x="120" y="839" on="1"/>
        <pt x="109" y="839" on="0"/>
        <pt x="99" y="825" on="0"/>
        <pt x="96" y="816" on="1"/>
        <pt x="93" y="808" on="0"/>
        <pt x="93" y="795" on="1"/>
      </contour>
      <contour>
        <pt x="24" y="599" on="1"/>
        <pt x="24" y="633" on="0"/>
        <pt x="34" y="691" on="0"/>
        <pt x="56" y="734" on="0"/>
        <pt x="94" y="759" on="0"/>
        <pt x="123" y="759" on="1"/>
        <pt x="139" y="759" on="0"/>
        <pt x="209" y="753" on="0"/>
        <pt x="298" y="743" on="0"/>
        <pt x="397" y="732" on="0"/>
        <pt x="488" y="722" on="0"/>
        <pt x="561" y="716" on="0"/>
        <pt x="579" y="716" on="1"/>
        <pt x="589" y="716" on="0"/>
        <pt x="601" y="728" on="0"/>
        <pt x="603" y="737" on="1"/>
        <pt x="607" y="748" on="0"/>
        <pt x="608" y="759" on="1"/>
        <pt x="675" y="759" on="1"/>
        <pt x="677" y="712" on="0"/>
        <pt x="666" y="679" on="1"/>
        <pt x="660" y="664" on="0"/>
        <pt x="644" y="636" on="0"/>
        <pt x="622" y="613" on="0"/>
        <pt x="589" y="599" on="0"/>
        <pt x="567" y="599" on="1"/>
        <pt x="550" y="599" on="0"/>
        <pt x="478" y="606" on="0"/>
        <pt x="387" y="616" on="0"/>
        <pt x="288" y="627" on="0"/>
        <pt x="200" y="637" on="0"/>
        <pt x="133" y="644" on="0"/>
        <pt x="120" y="644" on="1"/>
        <pt x="109" y="644" on="0"/>
        <pt x="99" y="630" on="0"/>
        <pt x="96" y="621" on="1"/>
        <pt x="93" y="613" on="0"/>
        <pt x="93" y="599" on="1"/>
      </contour>
    </TTGlyph>
    <TTGlyph name="aring" xMin="32" yMin="0" xMax="416" yMax="1954">
      <component glyphName="ring" x="48" y="1606" flags="0x1004"/>
      <component glyphName="a" x="0" y="0" flags="0x1204"/>
    </TTGlyph>
    <TTGlyph name="asciicircum" xMin="32" yMin="768" xMax="288" yMax="1120">
      <contour>
        <pt x="224" y="1120" on="1"/>
        <pt x="288" y="768" on="1"/>
        <pt x="192" y="768" on="1"/>
        <pt x="160" y="1024" on="1"/>
        <pt x="128" y="768" on="1"/>
        <pt x="32" y="768" on="1"/>
        <pt x="96" y="1120" on="1"/>
      </contour>
    </TTGlyph>
    <TTGlyph name="asciitilde" xMin="-15" yMin="101" xMax="365" yMax="260">
      <component glyphName="tilde" x="0" y="0" flags="0x1204"/>
    </TTGlyph>
    <TTGlyph name="asterisk" xMin="32" yMin="1161" xMax="576" yMax="1688">
      <contour>
        <pt x="408" y="1161" on="1"/>
        <pt x="305" y="1326" on="1"/>
        <pt x="207" y="1161" on="1"/>
        <pt x="122" y="1210" on="1"/>
        <pt x="224" y="1376" on="1"/>
        <pt x="32" y="1376" on="1"/>
        <pt x="32" y="1472" on="1"/>
        <pt x="225" y="1472" on="1"/>
        <pt x="122" y="1639" on="1"/>
        <pt x="206" y="1688" on="1"/>
        <pt x="305" y="1521" on="1"/>
        <pt x="408" y="1688" on="1"/>
        <pt x="492" y="1639" on="1"/>
        <pt x="383" y="1472" on="1"/>
        <pt x="576" y="1472" on="1"/>
        <pt x="576" y="1376" on="1"/>
        <pt x="384" y="1376" on="1"/>
        <pt x="492" y="1210" on="1"/>
      </contour>
    </TTGlyph>
    <TTGlyph name="at" xMin="64" yMin="-160" xMax="864" yMax="1760">
      <contour>
        <pt x="640" y="288" on="1"/>
        <pt x="640" y="240" on="0"/>
        <pt x="670" y="192" on="0"/>
        <pt x="706" y="192" on="0"/>
        <pt x="736" y="240" on="0"/>
        <pt x="736" y="288" on="1"/>
        <pt x="736" y="1376" on="1"/>
        <pt x="736" y="1442" on="0"/>
        <pt x="689" y="1541" on="0"/>
        <pt x="613" y="1607" on="0"/>
        <pt x="515" y="1640" on="0"/>
        <pt x="413" y="1640" on="0"/>
        <pt x="315" y="1607" on="0"/>
        <pt x="239" y="1541" on="0"/>
        <pt x="192" y="1442" on="0"/>
        <pt x="192" y="1376" on="1"/>
        <pt x="192" y="288" on="1"/>
        <pt x="192" y="198" on="0"/>
        <pt x="241" y="75" on="0"/>
        <pt x="325" y="-3" on="0"/>
        <pt x="435" y="-44" on="0"/>
        <pt x="556" y="-62" on="0"/>
        <pt x="680" y="-64" on="0"/>
        <pt x="736" y="-64" on="1"/>
        <pt x="704" y="-160" on="1"/>
        <pt x="632" y="-160" on="0"/>
        <pt x="481" y="-156" on="0"/>
        <pt x="339" y="-131" on="0"/>
        <pt x="213" y="-77" on="0"/>
        <pt x="119" y="22" on="0"/>
        <pt x="64" y="176" on="0"/>
        <pt x="64" y="288" on="1"/>
        <pt x="64" y="1376" on="1"/>
        <pt x="64" y="1472" on="0"/>
        <pt x="133" y="1616" on="0"/>
        <pt x="245" y="1712" on="0"/>
        <pt x="389" y="1760" on="0"/>
        <pt x="539" y="1760" on="0"/>
        <pt x="683" y="1712" on="0"/>
        <pt x="795" y="1616" on="0"/>
        <pt x="864" y="1472" on="0"/>
        <pt x="864" y="1376" on="1"/>
        <pt x="864" y="288" on="1"/>
        <pt x="864" y="224" on="0"/>
        <pt x="826" y="138" on="0"/>
        <pt x="767" y="90" on="0"/>
        <pt x="697" y="78" on="0"/>
        <pt x="633" y="100" on="0"/>
        <pt x="584" y="152" on="0"/>
        <pt x="576" y="192" on="1"/>
        <pt x="568" y="152" on="0"/>
        <pt x="519" y="100" on="0"/>
        <pt x="455" y="78" on="0"/>
        <pt x="385" y="90" on="0"/>
        <pt x="326" y="138" on="0"/>
        <pt x="288" y="224" on="0"/>
        <pt x="288" y="288" on="1"/>
        <pt x="288" y="1376" on="1"/>
        <pt x="288" y="1432" on="0"/>
        <pt x="340" y="1509" on="0"/>
        <pt x="418" y="1549" on="0"/>
        <pt x="510" y="1552" on="0"/>
        <pt x="588" y="1515" on="0"/>
        <pt x="640" y="1436" on="0"/>
        <pt x="640" y="1376" on="1"/>
      </contour>
      <contour>
        <pt x="512" y="1376" on="1"/>
        <pt x="512" y="1412" on="0"/>
        <pt x="482" y="1448" on="0"/>
        <pt x="446" y="1448" on="0"/>
        <pt x="416" y="1412" on="0"/>
        <pt x="416" y="1376" on="1"/>
        <pt x="416" y="288" on="1"/>
        <pt x="416" y="240" on="0"/>
        <pt x="446" y="192" on="0"/>
        <pt x="482" y="192" on="0"/>
        <pt x="512" y="240" on="0"/>
        <pt x="512" y="288" on="1"/>
      </contour>
    </TTGlyph>
    <TTGlyph name="atilde" xMin="32" yMin="0" xMax="416" yMax="1831">
      <component glyphName="tilde" x="49" y="1571" flags="0x1004"/>
      <component glyphName="a" x="0" y="0" flags="0x1204"/>
    </TTGlyph>
    <TTGlyph name="b" xMin="64" yMin="0" xMax="448" yMax="1536">
      <contour>
        <pt x="192" y="832" on="1"/>
        <pt x="288" y="832" on="1"/>
        <pt x="300" y="832" on="0"/>
        <pt x="313" y="843" on="0"/>
        <pt x="319" y="861" on="0"/>
        <pt x="320" y="884" on="0"/>
        <pt x="320" y="896" on="1"/>
        <pt x="320" y="1376" on="1"/>
        <pt x="320" y="1400" on="0"/>
        <pt x="307" y="1426" on="0"/>
        <pt x="277" y="1438" on="0"/>
        <pt x="228" y="1440" on="0"/>
        <pt x="192" y="1440" on="1"/>
      </contour>
      <contour>
        <pt x="320" y="672" on="1"/>
        <pt x="320" y="684" on="0"/>
        <pt x="319" y="707" on="0"/>
        <pt x="313" y="725" on="0"/>
        <pt x="300" y="736" on="0"/>
        <pt x="288" y="736" on="1"/>
        <pt x="192" y="736" on="1"/>
        <pt x="192" y="96" on="1"/>
        <pt x="214" y="96" on="0"/>
        <pt x="260" y="98" on="0"/>
        <pt x="297" y="109" on="0"/>
        <pt x="320" y="135" on="0"/>
        <pt x="320" y="160" on="1"/>
      </contour>
      <contour>
        <pt x="448" y="896" on="1"/>
        <pt x="448" y="848" on="0"/>
        <pt x="398" y="796" on="0"/>
        <pt x="343" y="783" on="1"/>
        <pt x="398" y="772" on="0"/>
        <pt x="448" y="720" on="0"/>
        <pt x="448" y="672" on="1"/>
        <pt x="448" y="160" on="1"/>
        <pt x="448" y="100" on="0"/>
        <pt x="404" y="35" on="0"/>
        <pt x="332" y="5" on="0"/>
        <pt x="240" y="0" on="0"/>
        <pt x="192" y="0" on="1"/>
        <pt x="64" y="0" on="1"/>
        <pt x="64" y="1536" on="1"/>
        <pt x="192" y="1536" on="1"/>
        <pt x="252" y="1536" on="0"/>
        <pt x="347" y="1531" on="0"/>
        <pt x="413" y="1501" on="0"/>
        <pt x="448" y="1436" on="0"/>
        <pt x="448" y="1376" on="1"/>
      </contour>
    </TTGlyph>
    <TTGlyph name="backslash" xMin="1" yMin="0" xMax="324" yMax="1761">
      <contour>
        <pt x="135" y="1761" on="1"/>
        <pt x="324" y="0" on="1"/>
        <pt x="190" y="0" on="1"/>
        <pt x="1" y="1761" on="1"/>
      </contour>
    </TTGlyph>
    <TTGlyph name="bar" xMin="58" yMin="-120" xMax="192" yMax="1882">
      <contour>
        <pt x="192" y="1882" on="1"/>
        <pt x="192" y="-120" on="1"/>
        <pt x="58" y="-120" on="1"/>
        <pt x="58" y="1882" on="1"/>
      </contour>
    </TTGlyph>
    <TTGlyph name="braceleft" xMin="55" yMin="-109" xMax="338" yMax="1876">
      <contour>
        <pt x="338" y="1876" on="1"/>
        <pt x="338" y="1758" on="1"/>
        <pt x="189" y="1758" on="1"/>
        <pt x="189" y="6" on="1"/>
        <pt x="338" y="6" on="1"/>
        <pt x="338" y="-109" on="1"/>
        <pt x="55" y="-109" on="1"/>
        <pt x="55" y="1876" on="1"/>
      </contour>
    </TTGlyph>
    <TTGlyph name="braceright" xMin="-1" yMin="-109" xMax="282" yMax="1876">
      <contour>
        <pt x="282" y="1876" on="1"/>
        <pt x="282" y="-109" on="1"/>
        <pt x="-1" y="-109" on="1"/>
        <pt x="-1" y="6" on="1"/>
        <pt x="145" y="6" on="1"/>
        <pt x="145" y="1758" on="1"/>
        <pt x="-1" y="1758" on="1"/>
        <pt x="-1" y="1876" on="1"/>
      </contour>
    </TTGlyph>
    <TTGlyph name="bracketleft" xMin="5" yMin="-96" xMax="262" yMax="1856">
      <component glyphName="bracketright" x="294" y="0" scalex="-0.999816894531" scaley="1.0" flags="0x1004"/>
    </TTGlyph>
    <TTGlyph name="bracketright" xMin="32" yMin="-96" xMax="288" yMax="1856">
      <contour>
        <pt x="288" y="1856" on="1"/>
        <pt x="288" y="-96" on="1"/>
        <pt x="32" y="-96" on="1"/>
        <pt x="32" y="0" on="1"/>
        <pt x="160" y="0" on="1"/>
        <pt x="160" y="1760" on="1"/>
        <pt x="32" y="1760" on="1"/>
        <pt x="32" y="1856" on="1"/>
      </contour>
    </TTGlyph>
    <TTGlyph name="breve" xMin="-28" yMin="84" xMax="356" yMax="308">
      <contour>
        <pt x="166" y="84" on="1"/>
        <pt x="63" y="84" on="0"/>
        <pt x="-28" y="189" on="0"/>
        <pt x="-28" y="308" on="1"/>
        <pt x="73" y="308" on="1"/>
        <pt x="73" y="272" on="0"/>
        <pt x="87" y="229" on="0"/>
        <pt x="111" y="206" on="0"/>
        <pt x="144" y="199" on="0"/>
        <pt x="163" y="199" on="1"/>
        <pt x="184" y="199" on="0"/>
        <pt x="218" y="206" on="0"/>
        <pt x="242" y="229" on="0"/>
        <pt x="255" y="272" on="0"/>
        <pt x="255" y="308" on="1"/>
        <pt x="356" y="308" on="1"/>
        <pt x="356" y="189" on="0"/>
        <pt x="266" y="84" on="0"/>
      </contour>
    </TTGlyph>
    <TTGlyph name="brokenbar" xMin="60" yMin="0" xMax="193" yMax="1761">
      <contour>
        <pt x="193" y="806" on="1"/>
        <pt x="193" y="0" on="1"/>
        <pt x="60" y="0" on="1"/>
        <pt x="60" y="806" on="1"/>
      </contour>
      <contour>
        <pt x="193" y="1761" on="1"/>
        <pt x="193" y="888" on="1"/>
        <pt x="60" y="888" on="1"/>
        <pt x="60" y="1761" on="1"/>
      </contour>
    </TTGlyph>
    <TTGlyph name="bullet" xMin="52" yMin="532" xMax="406" yMax="1313">
      <contour>
        <pt x="406" y="683" on="1"/>
        <pt x="406" y="652" on="0"/>
        <pt x="377" y="597" on="0"/>
        <pt x="329" y="556" on="0"/>
        <pt x="265" y="532" on="0"/>
        <pt x="230" y="532" on="1"/>
        <pt x="193" y="532" on="0"/>
        <pt x="128" y="556" on="0"/>
        <pt x="80" y="599" on="0"/>
        <pt x="52" y="656" on="0"/>
        <pt x="52" y="689" on="1"/>
        <pt x="52" y="1159" on="1"/>
        <pt x="52" y="1191" on="0"/>
        <pt x="80" y="1247" on="0"/>
        <pt x="128" y="1289" on="0"/>
        <pt x="193" y="1313" on="0"/>
        <pt x="230" y="1313" on="1"/>
        <pt x="265" y="1313" on="0"/>
        <pt x="329" y="1291" on="0"/>
        <pt x="377" y="1250" on="0"/>
        <pt x="406" y="1195" on="0"/>
        <pt x="406" y="1162" on="1"/>
      </contour>
    </TTGlyph>
    <TTGlyph name="c" xMin="64" yMin="-19" xMax="448" yMax="1555">
      <contour>
        <pt x="448" y="896" on="1"/>
        <pt x="320" y="896" on="1"/>
        <pt x="320" y="1392" on="1"/>
        <pt x="320" y="1426" on="0"/>
        <pt x="286" y="1455" on="0"/>
        <pt x="264" y="1455" on="1"/>
        <pt x="251" y="1455" on="0"/>
        <pt x="226" y="1446" on="0"/>
        <pt x="205" y="1429" on="0"/>
        <pt x="192" y="1406" on="0"/>
        <pt x="192" y="1392" on="1"/>
        <pt x="192" y="144" on="1"/>
        <pt x="192" y="130" on="0"/>
        <pt x="205" y="106" on="0"/>
        <pt x="226" y="89" on="0"/>
        <pt x="251" y="80" on="0"/>
        <pt x="264" y="80" on="1"/>
        <pt x="286" y="80" on="0"/>
        <pt x="320" y="110" on="0"/>
        <pt x="320" y="144" on="1"/>
        <pt x="320" y="704" on="1"/>
        <pt x="448" y="704" on="1"/>
        <pt x="448" y="144" on="1"/>
        <pt x="448" y="104" on="0"/>
        <pt x="414" y="43" on="0"/>
        <pt x="360" y="2" on="0"/>
        <pt x="290" y="-19" on="0"/>
        <pt x="254" y="-19" on="1"/>
        <pt x="218" y="-19" on="0"/>
        <pt x="150" y="1" on="0"/>
        <pt x="96" y="42" on="0"/>
        <pt x="64" y="103" on="0"/>
        <pt x="64" y="144" on="1"/>
        <pt x="64" y="1392" on="1"/>
        <pt x="64" y="1432" on="0"/>
        <pt x="97" y="1494" on="0"/>
        <pt x="151" y="1534" on="0"/>
        <pt x="221" y="1555" on="0"/>
        <pt x="257" y="1555" on="1"/>
        <pt x="293" y="1555" on="0"/>
        <pt x="361" y="1535" on="0"/>
        <pt x="415" y="1494" on="0"/>
        <pt x="448" y="1433" on="0"/>
        <pt x="448" y="1392" on="1"/>
      </contour>
    </TTGlyph>
    <TTGlyph name="cacute" xMin="64" yMin="-19" xMax="497" yMax="2093">
      <component glyphName="acute" x="209" y="1581" flags="0x1004"/>
      <component glyphName="c" x="0" y="0" flags="0x1204"/>
    </TTGlyph>
    <TTGlyph name="caron" xMin="33" yMin="84" xMax="296" yMax="430">
      <contour>
        <pt x="91" y="84" on="1"/>
        <pt x="33" y="430" on="1"/>
        <pt x="133" y="430" on="1"/>
        <pt x="163" y="193" on="1"/>
        <pt x="195" y="430" on="1"/>
        <pt x="296" y="430" on="1"/>
        <pt x="236" y="84" on="1"/>
      </contour>
    </TTGlyph>
    <TTGlyph name="ccaron" xMin="64" yMin="-19" xMax="448" yMax="2023">
      <component glyphName="caron" x="92" y="1593" flags="0x1004"/>
      <component glyphName="c" x="0" y="0" flags="0x1204"/>
    </TTGlyph>
    <TTGlyph name="ccedilla" xMin="64" yMin="-415" xMax="448" yMax="1555">
      <component glyphName="cedilla" x="72" y="-5" flags="0x1004"/>
      <component glyphName="c" x="0" y="0" flags="0x1204"/>
    </TTGlyph>
    <TTGlyph name="ccircumflex" xMin="64" yMin="-19" xMax="448" yMax="2023">
      <component glyphName="circumflex" x="94" y="1593" flags="0x1004"/>
      <component glyphName="c" x="0" y="0" flags="0x1204"/>
    </TTGlyph>
    <TTGlyph name="cdieresis" xMin="49" yMin="-19" xMax="512" yMax="1747">
      <component glyphName="c" x="64" y="0" flags="0x1004"/>
      <component glyphName="dieresis" x="-66" y="1512" flags="0x1004"/>
    </TTGlyph>
    <TTGlyph name="cdotaccent" xMin="64" yMin="-19" xMax="448" yMax="1862">
      <component glyphName="dotaccent" x="111" y="1578" flags="0x1004"/>
      <component glyphName="c" x="0" y="0" flags="0x1204"/>
    </TTGlyph>
    <TTGlyph name="cedilla" xMin="71" yMin="-409" xMax="235" yMax="0">
      <contour>
        <pt x="71" y="-409" on="1"/>
        <pt x="129" y="0" on="1"/>
        <pt x="235" y="0" on="1"/>
        <pt x="235" y="-409" on="1"/>
      </contour>
    </TTGlyph>
    <TTGlyph name="cent" xMin="52" yMin="-155" xMax="389" yMax="1686">
      <contour>
        <pt x="250" y="1686" on="1"/>
        <pt x="250" y="1542" on="1"/>
        <pt x="278" y="1538" on="0"/>
        <pt x="327" y="1515" on="0"/>
        <pt x="365" y="1482" on="0"/>
        <pt x="388" y="1439" on="0"/>
        <pt x="389" y="1415" on="1"/>
        <pt x="389" y="888" on="1"/>
        <pt x="258" y="888" on="1"/>
        <pt x="258" y="1412" on="1"/>
        <pt x="255" y="1426" on="0"/>
        <pt x="234" y="1444" on="0"/>
        <pt x="224" y="1444" on="1"/>
        <pt x="207" y="1444" on="0"/>
        <pt x="186" y="1426" on="0"/>
        <pt x="186" y="1412" on="1"/>
        <pt x="186" y="109" on="1"/>
        <pt x="186" y="101" on="0"/>
        <pt x="207" y="84" on="0"/>
        <pt x="224" y="84" on="1"/>
        <pt x="234" y="84" on="0"/>
        <pt x="255" y="101" on="0"/>
        <pt x="258" y="109" on="1"/>
        <pt x="258" y="713" on="1"/>
        <pt x="389" y="713" on="1"/>
        <pt x="389" y="109" on="1"/>
        <pt x="388" y="86" on="0"/>
        <pt x="365" y="42" on="0"/>
        <pt x="327" y="8" on="0"/>
        <pt x="278" y="-15" on="0"/>
        <pt x="250" y="-18" on="1"/>
        <pt x="250" y="-155" on="1"/>
        <pt x="193" y="-155" on="1"/>
        <pt x="193" y="-18" on="1"/>
        <pt x="164" y="-15" on="0"/>
        <pt x="113" y="8" on="0"/>
        <pt x="75" y="42" on="0"/>
        <pt x="52" y="86" on="0"/>
        <pt x="52" y="109" on="1"/>
        <pt x="52" y="1412" on="1"/>
        <pt x="52" y="1436" on="0"/>
        <pt x="75" y="1480" on="0"/>
        <pt x="113" y="1515" on="0"/>
        <pt x="164" y="1538" on="0"/>
        <pt x="193" y="1542" on="1"/>
        <pt x="193" y="1686" on="1"/>
      </contour>
    </TTGlyph>
    <TTGlyph name="circumflex" xMin="31" yMin="84" xMax="295" yMax="430">
      <contour>
        <pt x="236" y="430" on="1"/>
        <pt x="295" y="84" on="1"/>
        <pt x="193" y="84" on="1"/>
        <pt x="163" y="322" on="1"/>
        <pt x="132" y="84" on="1"/>
        <pt x="31" y="84" on="1"/>
        <pt x="90" y="430" on="1"/>
      </contour>
    </TTGlyph>
    <TTGlyph name="colon" xMin="32" yMin="288" xMax="192" yMax="1120">
      <contour>
        <pt x="192" y="1120" on="1"/>
        <pt x="192" y="960" on="1"/>
        <pt x="32" y="960" on="1"/>
        <pt x="32" y="1120" on="1"/>
      </contour>
      <contour>
        <pt x="192" y="448" on="1"/>
        <pt x="192" y="288" on="1"/>
        <pt x="32" y="288" on="1"/>
        <pt x="32" y="448" on="1"/>
      </contour>
    </TTGlyph>
    <TTGlyph name="comma" xMin="32" yMin="-160" xMax="160" yMax="192">
      <contour>
        <pt x="160" y="192" on="1"/>
        <pt x="128" y="-160" on="1"/>
        <pt x="32" y="-160" on="1"/>
        <pt x="32" y="192" on="1"/>
      </contour>
    </TTGlyph>
    <TTGlyph name="copyright" xMin="24" yMin="355" xMax="1450" yMax="1781">
      <contour>
        <pt x="906" y="1150" on="1"/>
        <pt x="776" y="1150" on="1"/>
        <pt x="776" y="1412" on="1"/>
        <pt x="776" y="1419" on="0"/>
        <pt x="766" y="1430" on="0"/>
        <pt x="752" y="1439" on="0"/>
        <pt x="737" y="1444" on="0"/>
        <pt x="732" y="1444" on="1"/>
        <pt x="716" y="1444" on="0"/>
        <pt x="686" y="1426" on="0"/>
        <pt x="686" y="1412" on="1"/>
        <pt x="686" y="711" on="1"/>
        <pt x="686" y="702" on="0"/>
        <pt x="714" y="684" on="0"/>
        <pt x="732" y="684" on="1"/>
        <pt x="746" y="684" on="0"/>
        <pt x="776" y="702" on="0"/>
        <pt x="776" y="711" on="1"/>
        <pt x="776" y="975" on="1"/>
        <pt x="906" y="975" on="1"/>
        <pt x="906" y="711" on="1"/>
        <pt x="906" y="685" on="0"/>
        <pt x="875" y="638" on="0"/>
        <pt x="826" y="602" on="0"/>
        <pt x="763" y="581" on="0"/>
        <pt x="732" y="581" on="1"/>
        <pt x="697" y="581" on="0"/>
        <pt x="632" y="602" on="0"/>
        <pt x="583" y="638" on="0"/>
        <pt x="553" y="685" on="0"/>
        <pt x="553" y="711" on="1"/>
        <pt x="553" y="1412" on="1"/>
        <pt x="553" y="1440" on="0"/>
        <pt x="583" y="1488" on="0"/>
        <pt x="632" y="1524" on="0"/>
        <pt x="697" y="1545" on="0"/>
        <pt x="732" y="1545" on="1"/>
        <pt x="763" y="1545" on="0"/>
        <pt x="826" y="1525" on="0"/>
        <pt x="875" y="1489" on="0"/>
        <pt x="906" y="1442" on="0"/>
        <pt x="906" y="1415" on="1"/>
      </contour>
      <contour>
        <pt x="24" y="1068" on="1"/>
        <pt x="24" y="1166" on="0"/>
        <pt x="75" y="1348" on="0"/>
        <pt x="168" y="1507" on="0"/>
        <pt x="298" y="1637" on="0"/>
        <pt x="457" y="1730" on="0"/>
        <pt x="639" y="1781" on="0"/>
        <pt x="737" y="1781" on="1"/>
        <pt x="835" y="1781" on="0"/>
        <pt x="1017" y="1730" on="0"/>
        <pt x="1175" y="1637" on="0"/>
        <pt x="1306" y="1507" on="0"/>
        <pt x="1399" y="1348" on="0"/>
        <pt x="1450" y="1166" on="0"/>
        <pt x="1450" y="1068" on="1"/>
        <pt x="1450" y="970" on="0"/>
        <pt x="1399" y="788" on="0"/>
        <pt x="1306" y="630" on="0"/>
        <pt x="1175" y="499" on="0"/>
        <pt x="1017" y="406" on="0"/>
        <pt x="835" y="355" on="0"/>
        <pt x="737" y="355" on="1"/>
        <pt x="639" y="355" on="0"/>
        <pt x="457" y="406" on="0"/>
        <pt x="298" y="499" on="0"/>
        <pt x="168" y="630" on="0"/>
        <pt x="75" y="788" on="0"/>
        <pt x="24" y="970" on="0"/>
      </contour>
      <contour>
        <pt x="156" y="1068" on="1"/>
        <pt x="156" y="946" on="0"/>
        <pt x="246" y="731" on="0"/>
        <pt x="403" y="571" on="0"/>
        <pt x="615" y="478" on="0"/>
        <pt x="737" y="478" on="1"/>
        <pt x="818" y="478" on="0"/>
        <pt x="967" y="520" on="0"/>
        <pt x="1096" y="597" on="0"/>
        <pt x="1202" y="705" on="0"/>
        <pt x="1277" y="836" on="0"/>
        <pt x="1318" y="986" on="0"/>
        <pt x="1318" y="1068" on="1"/>
        <pt x="1318" y="1149" on="0"/>
        <pt x="1277" y="1299" on="0"/>
        <pt x="1202" y="1431" on="0"/>
        <pt x="1096" y="1538" on="0"/>
        <pt x="967" y="1616" on="0"/>
        <pt x="818" y="1658" on="0"/>
        <pt x="737" y="1658" on="1"/>
        <pt x="655" y="1658" on="0"/>
        <pt x="506" y="1616" on="0"/>
        <pt x="377" y="1538" on="0"/>
        <pt x="272" y="1431" on="0"/>
        <pt x="197" y="1299" on="0"/>
        <pt x="156" y="1149" on="0"/>
      </contour>
    </TTGlyph>
    <TTGlyph name="currency" xMin="29" yMin="800" xMax="494" yMax="1764">
      <contour>
        <pt x="419" y="801" on="1"/>
        <pt x="355" y="869" on="1"/>
        <pt x="311" y="845" on="0"/>
        <pt x="261" y="845" on="1"/>
        <pt x="209" y="845" on="0"/>
        <pt x="166" y="869" on="1"/>
        <pt x="102" y="800" on="1"/>
        <pt x="29" y="862" on="1"/>
        <pt x="107" y="952" on="1"/>
        <pt x="103" y="964" on="0"/>
        <pt x="97" y="988" on="0"/>
        <pt x="97" y="1000" on="1"/>
        <pt x="97" y="1542" on="1"/>
        <pt x="97" y="1557" on="0"/>
        <pt x="104" y="1585" on="0"/>
        <pt x="111" y="1599" on="1"/>
        <pt x="109" y="1604" on="0"/>
        <pt x="83" y="1637" on="0"/>
        <pt x="69" y="1655" on="1"/>
        <pt x="29" y="1700" on="1"/>
        <pt x="102" y="1761" on="1"/>
        <pt x="172" y="1676" on="1"/>
        <pt x="193" y="1686" on="0"/>
        <pt x="236" y="1697" on="0"/>
        <pt x="261" y="1697" on="1"/>
        <pt x="286" y="1697" on="0"/>
        <pt x="329" y="1686" on="0"/>
        <pt x="350" y="1676" on="1"/>
        <pt x="421" y="1764" on="1"/>
        <pt x="494" y="1700" on="1"/>
        <pt x="409" y="1598" on="1"/>
        <pt x="422" y="1576" on="0"/>
        <pt x="422" y="1545" on="1"/>
        <pt x="422" y="996" on="1"/>
        <pt x="422" y="976" on="0"/>
        <pt x="413" y="954" on="1"/>
        <pt x="494" y="862" on="1"/>
      </contour>
      <contour>
        <pt x="298" y="1566" on="1"/>
        <pt x="298" y="1582" on="0"/>
        <pt x="277" y="1601" on="0"/>
        <pt x="261" y="1601" on="1"/>
        <pt x="246" y="1601" on="0"/>
        <pt x="220" y="1582" on="0"/>
        <pt x="220" y="1566" on="1"/>
        <pt x="220" y="975" on="1"/>
        <pt x="220" y="967" on="0"/>
        <pt x="241" y="944" on="0"/>
        <pt x="261" y="944" on="1"/>
        <pt x="277" y="944" on="0"/>
        <pt x="298" y="961" on="0"/>
        <pt x="298" y="975" on="1"/>
      </contour>
    </TTGlyph>
    <TTGlyph name="d" xMin="64" yMin="0" xMax="448" yMax="1536">
      <contour>
        <pt x="320" y="1410" on="1"/>
        <pt x="320" y="1429" on="0"/>
        <pt x="302" y="1434" on="1"/>
        <pt x="285" y="1440" on="0"/>
        <pt x="192" y="1440" on="1"/>
        <pt x="192" y="96" on="1"/>
        <pt x="285" y="96" on="0"/>
        <pt x="302" y="102" on="1"/>
        <pt x="320" y="108" on="0"/>
        <pt x="320" y="127" on="1"/>
      </contour>
      <contour>
        <pt x="448" y="135" on="1"/>
        <pt x="448" y="84" on="0"/>
        <pt x="405" y="29" on="0"/>
        <pt x="363" y="16" on="1"/>
        <pt x="343" y="10" on="0"/>
        <pt x="285" y="3" on="0"/>
        <pt x="234" y="1" on="1"/>
        <pt x="183" y="0" on="0"/>
        <pt x="144" y="0" on="1"/>
        <pt x="64" y="0" on="1"/>
        <pt x="64" y="1536" on="1"/>
        <pt x="105" y="1536" on="0"/>
        <pt x="188" y="1535" on="0"/>
        <pt x="231" y="1534" on="1"/>
        <pt x="319" y="1532" on="0"/>
        <pt x="361" y="1521" on="1"/>
        <pt x="404" y="1509" on="0"/>
        <pt x="448" y="1456" on="0"/>
        <pt x="448" y="1407" on="1"/>
      </contour>
    </TTGlyph>
    <TTGlyph name="dagger" xMin="0" yMin="136" xMax="348" yMax="1324">
      <contour>
        <pt x="114" y="1104" on="1"/>
        <pt x="114" y="1324" on="1"/>
        <pt x="240" y="1324" on="1"/>
        <pt x="240" y="1104" on="1"/>
        <pt x="348" y="1104" on="1"/>
        <pt x="348" y="1005" on="1"/>
        <pt x="238" y="1005" on="1"/>
        <pt x="238" y="136" on="1"/>
        <pt x="112" y="136" on="1"/>
        <pt x="112" y="1005" on="1"/>
        <pt x="0" y="1005" on="1"/>
        <pt x="0" y="1104" on="1"/>
      </contour>
    </TTGlyph>
    <TTGlyph name="daggerdbl" xMin="24" yMin="0" xMax="635" yMax="1761">
      <contour>
        <pt x="24" y="655" on="1"/>
        <pt x="264" y="655" on="1"/>
        <pt x="264" y="1252" on="1"/>
        <pt x="24" y="1252" on="1"/>
        <pt x="24" y="1382" on="1"/>
        <pt x="264" y="1382" on="1"/>
        <pt x="264" y="1761" on="1"/>
        <pt x="397" y="1761" on="1"/>
        <pt x="397" y="1382" on="1"/>
        <pt x="635" y="1382" on="1"/>
        <pt x="635" y="1252" on="1"/>
        <pt x="397" y="1252" on="1"/>
        <pt x="397" y="655" on="1"/>
        <pt x="635" y="655" on="1"/>
        <pt x="635" y="525" on="1"/>
        <pt x="397" y="525" on="1"/>
        <pt x="397" y="0" on="1"/>
        <pt x="264" y="0" on="1"/>
        <pt x="264" y="525" on="1"/>
        <pt x="24" y="525" on="1"/>
      </contour>
    </TTGlyph>
    <TTGlyph name="dcaron" xMin="64" yMin="0" xMax="759" yMax="1550">
      <component glyphName="comma" x="599" y="1358" flags="0x1004"/>
      <component glyphName="d" x="0" y="0" flags="0x1004"/>
    </TTGlyph>
    <TTGlyph name="dcroat" xMin="0" yMin="0" xMax="391" yMax="1520">
      <contour>
        <pt x="227" y="750" on="1"/>
        <pt x="0" y="750" on="1"/>
        <pt x="0" y="859" on="1"/>
        <pt x="227" y="859" on="1"/>
      </contour>
      <contour>
        <pt x="258" y="1399" on="1"/>
        <pt x="258" y="1418" on="0"/>
        <pt x="223" y="1429" on="0"/>
        <pt x="189" y="1429" on="1"/>
        <pt x="189" y="102" on="1"/>
        <pt x="223" y="102" on="0"/>
        <pt x="258" y="114" on="0"/>
        <pt x="258" y="133" on="1"/>
      </contour>
      <contour>
        <pt x="391" y="135" on="1"/>
        <pt x="391" y="84" on="0"/>
        <pt x="347" y="29" on="0"/>
        <pt x="261" y="4" on="0"/>
        <pt x="136" y="0" on="0"/>
        <pt x="55" y="0" on="1"/>
        <pt x="55" y="1520" on="1"/>
        <pt x="136" y="1520" on="0"/>
        <pt x="261" y="1517" on="0"/>
        <pt x="347" y="1493" on="0"/>
        <pt x="391" y="1440" on="0"/>
        <pt x="391" y="1391" on="1"/>
      </contour>
    </TTGlyph>
    <TTGlyph name="degree" xMin="33" yMin="1472" xMax="318" yMax="1754">
      <component glyphName="ring" x="0" y="1406" flags="0x1204"/>
    </TTGlyph>
    <TTGlyph name="dieresis" xMin="115" yMin="76" xMax="461" yMax="235">
      <contour>
        <pt x="461" y="235" on="1"/>
        <pt x="461" y="76" on="1"/>
        <pt x="318" y="76" on="1"/>
        <pt x="318" y="235" on="1"/>
      </contour>
      <contour>
        <pt x="260" y="235" on="1"/>
        <pt x="260" y="76" on="1"/>
        <pt x="115" y="76" on="1"/>
        <pt x="115" y="235" on="1"/>
      </contour>
    </TTGlyph>
    <TTGlyph name="divide" xMin="24" yMin="415" xMax="537" yMax="1044">
      <contour>
        <pt x="537" y="665" on="1"/>
        <pt x="24" y="665" on="1"/>
        <pt x="24" y="800" on="1"/>
        <pt x="537" y="800" on="1"/>
      </contour>
      <contour>
        <pt x="379" y="1044" on="1"/>
        <pt x="379" y="858" on="1"/>
        <pt x="196" y="858" on="1"/>
        <pt x="196" y="1044" on="1"/>
      </contour>
      <contour>
        <pt x="379" y="599" on="1"/>
        <pt x="379" y="415" on="1"/>
        <pt x="196" y="415" on="1"/>
        <pt x="196" y="599" on="1"/>
      </contour>
    </TTGlyph>
    <TTGlyph name="dollar" xMin="52" yMin="-240" xMax="408" yMax="2001">
      <contour>
        <pt x="183" y="-13" on="1"/>
        <pt x="156" y="-6" on="0"/>
        <pt x="107" y="21" on="0"/>
        <pt x="89" y="40" on="1"/>
        <pt x="72" y="60" on="0"/>
        <pt x="52" y="115" on="0"/>
        <pt x="52" y="150" on="1"/>
        <pt x="52" y="737" on="1"/>
        <pt x="187" y="737" on="1"/>
        <pt x="187" y="150" on="1"/>
        <pt x="187" y="130" on="0"/>
        <pt x="212" y="107" on="0"/>
        <pt x="232" y="107" on="1"/>
        <pt x="249" y="107" on="0"/>
        <pt x="272" y="130" on="0"/>
        <pt x="272" y="150" on="1"/>
        <pt x="272" y="421" on="1"/>
        <pt x="272" y="527" on="0"/>
        <pt x="253" y="679" on="0"/>
        <pt x="222" y="793" on="0"/>
        <pt x="183" y="877" on="0"/>
        <pt x="141" y="951" on="0"/>
        <pt x="102" y="1026" on="0"/>
        <pt x="71" y="1120" on="0"/>
        <pt x="52" y="1244" on="0"/>
        <pt x="52" y="1330" on="1"/>
        <pt x="52" y="1625" on="1"/>
        <pt x="52" y="1686" on="0"/>
        <pt x="126" y="1759" on="0"/>
        <pt x="183" y="1775" on="1"/>
        <pt x="183" y="2001" on="1"/>
        <pt x="288" y="2001" on="1"/>
        <pt x="288" y="1772" on="1"/>
        <pt x="342" y="1756" on="0"/>
        <pt x="376" y="1719" on="1"/>
        <pt x="391" y="1701" on="0"/>
        <pt x="408" y="1655" on="0"/>
        <pt x="408" y="1628" on="1"/>
        <pt x="408" y="1108" on="1"/>
        <pt x="272" y="1108" on="1"/>
        <pt x="272" y="1626" on="1"/>
        <pt x="272" y="1643" on="0"/>
        <pt x="249" y="1665" on="0"/>
        <pt x="232" y="1665" on="1"/>
        <pt x="213" y="1665" on="0"/>
        <pt x="187" y="1641" on="0"/>
        <pt x="187" y="1625" on="1"/>
        <pt x="187" y="1376" on="1"/>
        <pt x="187" y="1291" on="0"/>
        <pt x="206" y="1164" on="0"/>
        <pt x="237" y="1065" on="0"/>
        <pt x="277" y="987" on="0"/>
        <pt x="318" y="914" on="0"/>
        <pt x="358" y="839" on="0"/>
        <pt x="389" y="746" on="0"/>
        <pt x="408" y="629" on="0"/>
        <pt x="408" y="550" on="1"/>
        <pt x="408" y="154" on="1"/>
        <pt x="408" y="82" on="0"/>
        <pt x="348" y="3" on="0"/>
        <pt x="288" y="-13" on="1"/>
        <pt x="288" y="-240" on="1"/>
        <pt x="183" y="-240" on="1"/>
      </contour>
    </TTGlyph>
    <TTGlyph name="dotaccent" xMin="55" yMin="99" xMax="237" yMax="284">
      <contour>
        <pt x="237" y="284" on="1"/>
        <pt x="237" y="99" on="1"/>
        <pt x="55" y="99" on="1"/>
        <pt x="55" y="284" on="1"/>
      </contour>
    </TTGlyph>
    <TTGlyph name="dotlessi" xMin="79" yMin="0" xMax="213" yMax="1520">
      <contour>
        <pt x="213" y="1520" on="1"/>
        <pt x="213" y="0" on="1"/>
        <pt x="79" y="0" on="1"/>
        <pt x="79" y="1520" on="1"/>
      </contour>
    </TTGlyph>
    <TTGlyph name="e" xMin="64" yMin="0" xMax="320" yMax="1536">
      <contour>
        <pt x="320" y="1440" on="1"/>
        <pt x="192" y="1440" on="1"/>
        <pt x="192" y="864" on="1"/>
        <pt x="320" y="864" on="1"/>
        <pt x="320" y="768" on="1"/>
        <pt x="192" y="768" on="1"/>
        <pt x="192" y="96" on="1"/>
        <pt x="320" y="96" on="1"/>
        <pt x="320" y="0" on="1"/>
        <pt x="64" y="0" on="1"/>
        <pt x="64" y="1536" on="1"/>
        <pt x="320" y="1536" on="1"/>
      </contour>
    </TTGlyph>
    <TTGlyph name="eacute" xMin="64" yMin="0" xMax="432" yMax="2088">
      <component glyphName="acute" x="144" y="1576" flags="0x1004"/>
      <component glyphName="e" x="0" y="0" flags="0x1204"/>
    </TTGlyph>
    <TTGlyph name="ebreve" xMin="0" yMin="0" xMax="384" yMax="1896">
      <component glyphName="breve" x="28" y="1588" flags="0x1004"/>
      <component glyphName="e" x="0" y="0" flags="0x1204"/>
    </TTGlyph>
    <TTGlyph name="ecaron" xMin="60" yMin="0" xMax="324" yMax="2018">
      <component glyphName="caron" x="28" y="1588" flags="0x1004"/>
      <component glyphName="e" x="0" y="0" flags="0x1204"/>
    </TTGlyph>
    <TTGlyph name="ecircumflex" xMin="60" yMin="0" xMax="324" yMax="2018">
      <component glyphName="circumflex" x="29" y="1588" flags="0x1004"/>
      <component glyphName="e" x="0" y="0" flags="0x1204"/>
    </TTGlyph>
    <TTGlyph name="edieresis" xMin="19" yMin="0" xMax="365" yMax="1831">
      <component glyphName="dieresis" x="-96" y="1596" flags="0x1004"/>
      <component glyphName="e" x="0" y="0" flags="0x1204"/>
    </TTGlyph>
    <TTGlyph name="edotaccent" xMin="64" yMin="0" xMax="320" yMax="1857">
      <component glyphName="dotaccent" x="46" y="1573" flags="0x1004"/>
      <component glyphName="e" x="0" y="0" flags="0x1204"/>
    </TTGlyph>
    <TTGlyph name="egrave" xMin="-48" yMin="0" xMax="320" yMax="2088">
      <component glyphName="grave" x="-48" y="1576" flags="0x1004"/>
      <component glyphName="e" x="0" y="0" flags="0x1204"/>
    </TTGlyph>
    <TTGlyph name="eight" xMin="32" yMin="-32" xMax="384" yMax="1760">
      <contour>
        <pt x="208" y="-32" on="1"/>
        <pt x="175" y="-32" on="0"/>
        <pt x="112" y="-8" on="0"/>
        <pt x="62" y="40" on="0"/>
        <pt x="32" y="112" on="0"/>
        <pt x="32" y="160" on="1"/>
        <pt x="32" y="416" on="1"/>
        <pt x="32" y="549" on="0"/>
        <pt x="62" y="741" on="0"/>
        <pt x="80" y="804" on="1"/>
        <pt x="101" y="878" on="0"/>
        <pt x="128" y="928" on="1"/>
        <pt x="101" y="977" on="0"/>
        <pt x="80" y="1040" on="1"/>
        <pt x="62" y="1094" on="0"/>
        <pt x="32" y="1247" on="0"/>
        <pt x="32" y="1344" on="1"/>
        <pt x="32" y="1568" on="1"/>
        <pt x="32" y="1616" on="0"/>
        <pt x="62" y="1688" on="0"/>
        <pt x="112" y="1736" on="0"/>
        <pt x="175" y="1760" on="0"/>
        <pt x="208" y="1760" on="1"/>
        <pt x="241" y="1760" on="0"/>
        <pt x="304" y="1736" on="0"/>
        <pt x="354" y="1688" on="0"/>
        <pt x="384" y="1616" on="0"/>
        <pt x="384" y="1568" on="1"/>
        <pt x="384" y="1344" on="1"/>
        <pt x="384" y="1247" on="0"/>
        <pt x="354" y="1094" on="0"/>
        <pt x="336" y="1040" on="1"/>
        <pt x="315" y="977" on="0"/>
        <pt x="288" y="928" on="1"/>
        <pt x="315" y="878" on="0"/>
        <pt x="336" y="804" on="1"/>
        <pt x="354" y="741" on="0"/>
        <pt x="384" y="549" on="0"/>
        <pt x="384" y="416" on="1"/>
        <pt x="384" y="160" on="1"/>
        <pt x="384" y="112" on="0"/>
        <pt x="354" y="40" on="0"/>
        <pt x="304" y="-8" on="0"/>
        <pt x="241" y="-32" on="0"/>
      </contour>
      <contour>
        <pt x="208" y="1640" on="1"/>
        <pt x="190" y="1640" on="0"/>
        <pt x="160" y="1604" on="0"/>
        <pt x="160" y="1568" on="1"/>
        <pt x="160" y="1312" on="1"/>
        <pt x="160" y="1264" on="0"/>
        <pt x="175" y="1161" on="0"/>
        <pt x="184" y="1119" on="1"/>
        <pt x="195" y="1070" on="0"/>
        <pt x="209" y="1023" on="1"/>
        <pt x="221" y="1070" on="0"/>
        <pt x="232" y="1119" on="1"/>
        <pt x="241" y="1161" on="0"/>
        <pt x="256" y="1264" on="0"/>
        <pt x="256" y="1312" on="1"/>
        <pt x="256" y="1568" on="1"/>
        <pt x="256" y="1604" on="0"/>
        <pt x="226" y="1640" on="0"/>
      </contour>
      <contour>
        <pt x="209" y="832" on="1"/>
        <pt x="195" y="768" on="0"/>
        <pt x="184" y="702" on="1"/>
        <pt x="175" y="645" on="0"/>
        <pt x="160" y="510" on="0"/>
        <pt x="160" y="448" on="1"/>
        <pt x="160" y="160" on="1"/>
        <pt x="160" y="124" on="0"/>
        <pt x="190" y="88" on="0"/>
        <pt x="208" y="88" on="1"/>
        <pt x="226" y="88" on="0"/>
        <pt x="256" y="124" on="0"/>
        <pt x="256" y="160" on="1"/>
        <pt x="256" y="448" on="1"/>
        <pt x="256" y="510" on="0"/>
        <pt x="241" y="645" on="0"/>
        <pt x="232" y="702" on="1"/>
        <pt x="221" y="768" on="0"/>
      </contour>
    </TTGlyph>
    <TTGlyph name="ellipsis" xMin="32" yMin="0" xMax="852" yMax="160">
      <component glyphName="period" x="660" y="0" flags="0x1004"/>
      <component glyphName="period" x="328" y="0" flags="0x1004"/>
      <component glyphName="period" x="0" y="0" flags="0x1004"/>
    </TTGlyph>
    <TTGlyph name="emacron" xMin="28" yMin="0" xMax="356" yMax="1777">
      <component glyphName="macron" x="28" y="1585" flags="0x1004"/>
      <component glyphName="e" x="0" y="0" flags="0x1204"/>
    </TTGlyph>
    <TTGlyph name="emdash" xMin="23" yMin="750" xMax="668" yMax="885">
      <contour>
        <pt x="668" y="750" on="1"/>
        <pt x="23" y="750" on="1"/>
        <pt x="23" y="885" on="1"/>
        <pt x="668" y="885" on="1"/>
      </contour>
    </TTGlyph>
    <TTGlyph name="endash" xMin="23" yMin="750" xMax="668" yMax="885">
      <contour>
        <pt x="668" y="750" on="1"/>
        <pt x="23" y="750" on="1"/>
        <pt x="23" y="885" on="1"/>
        <pt x="668" y="885" on="1"/>
      </contour>
    </TTGlyph>
    <TTGlyph name="eng" xMin="55" yMin="-483" xMax="395" yMax="1520">
      <contour>
        <pt x="395" y="0" on="1"/>
        <pt x="274" y="0" on="1"/>
        <pt x="174" y="855" on="1"/>
        <pt x="186" y="0" on="1"/>
        <pt x="55" y="0" on="1"/>
        <pt x="55" y="1520" on="1"/>
        <pt x="175" y="1520" on="1"/>
        <pt x="282" y="637" on="1"/>
        <pt x="274" y="1520" on="1"/>
        <pt x="395" y="1520" on="1"/>
      </contour>
      <contour>
        <pt x="395" y="-353" on="1"/>
        <pt x="395" y="-380" on="0"/>
        <pt x="367" y="-427" on="0"/>
        <pt x="321" y="-463" on="0"/>
        <pt x="260" y="-483" on="0"/>
        <pt x="226" y="-483" on="1"/>
        <pt x="193" y="-483" on="0"/>
        <pt x="132" y="-463" on="0"/>
        <pt x="85" y="-427" on="0"/>
        <pt x="58" y="-380" on="0"/>
        <pt x="58" y="-353" on="1"/>
        <pt x="58" y="-91" on="1"/>
        <pt x="187" y="-91" on="1"/>
        <pt x="189" y="-353" on="1"/>
        <pt x="189" y="-366" on="0"/>
        <pt x="212" y="-381" on="0"/>
        <pt x="226" y="-381" on="1"/>
        <pt x="240" y="-381" on="0"/>
        <pt x="260" y="-366" on="0"/>
        <pt x="260" y="-353" on="1"/>
        <pt x="260" y="364" on="1"/>
        <pt x="395" y="364" on="1"/>
      </contour>
    </TTGlyph>
    <TTGlyph name="eogonek" xMin="128" yMin="-283" xMax="471" yMax="1536">
      <component glyphName="e" x="64" y="0" flags="0x1004"/>
      <component glyphName="ogonek" x="125" y="0" flags="0x1004"/>
    </TTGlyph>
    <TTGlyph name="equal" xMin="32" yMin="512" xMax="544" yMax="864">
      <contour>
        <pt x="544" y="512" on="1"/>
        <pt x="32" y="512" on="1"/>
        <pt x="32" y="640" on="1"/>
        <pt x="544" y="640" on="1"/>
      </contour>
      <contour>
        <pt x="544" y="736" on="1"/>
        <pt x="32" y="736" on="1"/>
        <pt x="32" y="864" on="1"/>
        <pt x="544" y="864" on="1"/>
      </contour>
    </TTGlyph>
    <TTGlyph name="ering" xMin="57" yMin="0" xMax="384" yMax="1847">
      <component glyphName="e" x="64" y="0" flags="0x1004"/>
      <component glyphName="ring" x="24" y="1499" flags="0x1004"/>
    </TTGlyph>
    <TTGlyph name="eth" xMin="49" yMin="-12" xMax="481" yMax="1765">
      <contour>
        <pt x="481" y="1321" on="1"/>
        <pt x="394" y="1295" on="1"/>
        <pt x="397" y="1228" on="0"/>
        <pt x="398" y="1085" on="0"/>
        <pt x="398" y="1004" on="1"/>
        <pt x="398" y="141" on="1"/>
        <pt x="398" y="108" on="0"/>
        <pt x="370" y="52" on="0"/>
        <pt x="322" y="11" on="0"/>
        <pt x="258" y="-12" on="0"/>
        <pt x="222" y="-12" on="1"/>
        <pt x="187" y="-12" on="0"/>
        <pt x="125" y="9" on="0"/>
        <pt x="79" y="48" on="0"/>
        <pt x="51" y="103" on="0"/>
        <pt x="51" y="136" on="1"/>
        <pt x="51" y="867" on="1"/>
        <pt x="52" y="897" on="0"/>
        <pt x="77" y="951" on="0"/>
        <pt x="120" y="992" on="0"/>
        <pt x="179" y="1017" on="0"/>
        <pt x="214" y="1017" on="1"/>
        <pt x="231" y="1017" on="0"/>
        <pt x="261" y="1005" on="0"/>
        <pt x="264" y="1005" on="1"/>
        <pt x="264" y="1138" on="1"/>
        <pt x="264" y="1200" on="0"/>
        <pt x="261" y="1259" on="1"/>
        <pt x="49" y="1201" on="1"/>
        <pt x="49" y="1304" on="1"/>
        <pt x="254" y="1361" on="1"/>
        <pt x="248" y="1430" on="0"/>
        <pt x="222" y="1537" on="0"/>
        <pt x="175" y="1610" on="0"/>
        <pt x="102" y="1649" on="0"/>
        <pt x="49" y="1649" on="1"/>
        <pt x="49" y="1765" on="1"/>
        <pt x="137" y="1765" on="0"/>
        <pt x="257" y="1714" on="0"/>
        <pt x="335" y="1619" on="0"/>
        <pt x="376" y="1482" on="0"/>
        <pt x="385" y="1397" on="1"/>
        <pt x="481" y="1424" on="1"/>
      </contour>
      <contour>
        <pt x="222" y="900" on="1"/>
        <pt x="197" y="900" on="0"/>
        <pt x="184" y="867" on="0"/>
        <pt x="184" y="845" on="1"/>
        <pt x="184" y="141" on="1"/>
        <pt x="184" y="126" on="0"/>
        <pt x="207" y="106" on="0"/>
        <pt x="222" y="106" on="1"/>
        <pt x="247" y="106" on="0"/>
        <pt x="264" y="138" on="0"/>
        <pt x="264" y="157" on="1"/>
        <pt x="264" y="888" on="1"/>
        <pt x="261" y="888" on="0"/>
        <pt x="238" y="900" on="0"/>
      </contour>
    </TTGlyph>
    <TTGlyph name="exclam" xMin="32" yMin="0" xMax="224" yMax="1728">
      <contour>
        <pt x="224" y="1728" on="1"/>
        <pt x="160" y="256" on="1"/>
        <pt x="96" y="256" on="1"/>
        <pt x="32" y="1728" on="1"/>
      </contour>
      <contour>
        <pt x="192" y="160" on="1"/>
        <pt x="192" y="0" on="1"/>
        <pt x="64" y="0" on="1"/>
        <pt x="64" y="160" on="1"/>
      </contour>
    </TTGlyph>
    <TTGlyph name="exclamdown" xMin="29" yMin="32" xMax="221" yMax="1761">
      <component glyphName="exclam" x="-3" y="1761" scalex="1.0" scaley="-0.999816894531" flags="0x1004"/>
    </TTGlyph>
    <TTGlyph name="f" xMin="64" yMin="0" xMax="352" yMax="1536">
      <contour>
        <pt x="352" y="1440" on="1"/>
        <pt x="192" y="1440" on="1"/>
        <pt x="192" y="864" on="1"/>
        <pt x="320" y="864" on="1"/>
        <pt x="320" y="768" on="1"/>
        <pt x="192" y="768" on="1"/>
        <pt x="192" y="0" on="1"/>
        <pt x="64" y="0" on="1"/>
        <pt x="64" y="1536" on="1"/>
        <pt x="352" y="1536" on="1"/>
      </contour>
    </TTGlyph>
    <TTGlyph name="five" xMin="64" yMin="-32" xMax="416" yMax="1728">
      <contour>
        <pt x="288" y="864" on="1"/>
        <pt x="288" y="900" on="0"/>
        <pt x="258" y="936" on="0"/>
        <pt x="240" y="936" on="1"/>
        <pt x="222" y="936" on="0"/>
        <pt x="192" y="900" on="0"/>
        <pt x="192" y="864" on="1"/>
        <pt x="64" y="864" on="1"/>
        <pt x="64" y="1728" on="1"/>
        <pt x="416" y="1728" on="1"/>
        <pt x="416" y="1632" on="1"/>
        <pt x="192" y="1632" on="1"/>
        <pt x="192" y="992" on="1"/>
        <pt x="211" y="1021" on="0"/>
        <pt x="268" y="1053" on="0"/>
        <pt x="297" y="1053" on="1"/>
        <pt x="319" y="1053" on="0"/>
        <pt x="362" y="1032" on="0"/>
        <pt x="396" y="986" on="0"/>
        <pt x="416" y="915" on="0"/>
        <pt x="416" y="864" on="1"/>
        <pt x="416" y="160" on="1"/>
        <pt x="416" y="112" on="0"/>
        <pt x="386" y="40" on="0"/>
        <pt x="336" y="-8" on="0"/>
        <pt x="273" y="-32" on="0"/>
        <pt x="240" y="-32" on="1"/>
        <pt x="207" y="-32" on="0"/>
        <pt x="144" y="-8" on="0"/>
        <pt x="94" y="40" on="0"/>
        <pt x="64" y="112" on="0"/>
        <pt x="64" y="160" on="1"/>
        <pt x="64" y="736" on="1"/>
        <pt x="192" y="736" on="1"/>
        <pt x="192" y="160" on="1"/>
        <pt x="192" y="112" on="0"/>
        <pt x="222" y="64" on="0"/>
        <pt x="240" y="64" on="1"/>
        <pt x="258" y="64" on="0"/>
        <pt x="288" y="112" on="0"/>
        <pt x="288" y="160" on="1"/>
      </contour>
    </TTGlyph>
    <TTGlyph name="florin" xMin="24" yMin="0" xMax="451" yMax="1520">
      <contour>
        <pt x="443" y="1422" on="1"/>
        <pt x="277" y="1422" on="1"/>
        <pt x="228" y="864" on="1"/>
        <pt x="348" y="864" on="1"/>
        <pt x="338" y="759" on="1"/>
        <pt x="219" y="759" on="1"/>
        <pt x="153" y="0" on="1"/>
        <pt x="24" y="0" on="1"/>
        <pt x="157" y="1520" on="1"/>
        <pt x="451" y="1520" on="1"/>
      </contour>
    </TTGlyph>
    <TTGlyph name="four" xMin="32" yMin="0" xMax="384" yMax="1728">
      <contour>
        <pt x="384" y="1120" on="1"/>
        <pt x="384" y="0" on="1"/>
        <pt x="256" y="0" on="1"/>
        <pt x="256" y="352" on="1"/>
        <pt x="32" y="352" on="1"/>
        <pt x="96" y="1728" on="1"/>
        <pt x="224" y="1728" on="1"/>
        <pt x="160" y="470" on="1"/>
        <pt x="256" y="470" on="1"/>
        <pt x="256" y="1120" on="1"/>
      </contour>
    </TTGlyph>
    <TTGlyph name="fraction" xMin="1" yMin="0" xMax="324" yMax="1761">
      <contour>
        <pt x="324" y="1761" on="1"/>
        <pt x="135" y="0" on="1"/>
        <pt x="1" y="0" on="1"/>
        <pt x="190" y="1761" on="1"/>
      </contour>
    </TTGlyph>
    <TTGlyph name="g" xMin="64" yMin="-16" xMax="416" yMax="1568">
      <contour>
        <pt x="192" y="144" on="1"/>
        <pt x="192" y="108" on="0"/>
        <pt x="222" y="80" on="0"/>
        <pt x="240" y="80" on="1"/>
        <pt x="258" y="80" on="0"/>
        <pt x="288" y="108" on="0"/>
        <pt x="288" y="144" on="1"/>
        <pt x="288" y="672" on="1"/>
        <pt x="256" y="672" on="1"/>
        <pt x="256" y="768" on="1"/>
        <pt x="416" y="768" on="1"/>
        <pt x="416" y="144" on="1"/>
        <pt x="416" y="102" on="0"/>
        <pt x="386" y="41" on="0"/>
        <pt x="336" y="2" on="0"/>
        <pt x="273" y="-16" on="0"/>
        <pt x="240" y="-16" on="1"/>
        <pt x="207" y="-16" on="0"/>
        <pt x="144" y="2" on="0"/>
        <pt x="94" y="41" on="0"/>
        <pt x="64" y="102" on="0"/>
        <pt x="64" y="144" on="1"/>
        <pt x="64" y="1408" on="1"/>
        <pt x="64" y="1450" on="0"/>
        <pt x="94" y="1511" on="0"/>
        <pt x="144" y="1550" on="0"/>
        <pt x="207" y="1568" on="0"/>
        <pt x="240" y="1568" on="1"/>
        <pt x="273" y="1568" on="0"/>
        <pt x="336" y="1550" on="0"/>
        <pt x="386" y="1511" on="0"/>
        <pt x="416" y="1451" on="0"/>
        <pt x="416" y="1409" on="1"/>
        <pt x="416" y="896" on="1"/>
        <pt x="288" y="896" on="1"/>
        <pt x="288" y="1409" on="1"/>
        <pt x="288" y="1445" on="0"/>
        <pt x="258" y="1472" on="0"/>
        <pt x="240" y="1472" on="1"/>
        <pt x="222" y="1472" on="0"/>
        <pt x="192" y="1445" on="0"/>
        <pt x="192" y="1409" on="1"/>
      </contour>
    </TTGlyph>
    <TTGlyph name="gbreve" xMin="48" yMin="-16" xMax="432" yMax="1914">
      <component glyphName="breve" x="76" y="1606" flags="0x1004"/>
      <component glyphName="g" x="0" y="0" flags="0x1204"/>
    </TTGlyph>
    <TTGlyph name="gcircumflex" xMin="64" yMin="-16" xMax="416" yMax="2036">
      <component glyphName="circumflex" x="77" y="1606" flags="0x1004"/>
      <component glyphName="g" x="0" y="0" flags="0x1204"/>
    </TTGlyph>
    <TTGlyph name="gcommaaccent" xMin="64" yMin="-16" xMax="416" yMax="1963">
      <component glyphName="g" x="0" y="0" flags="0x1004"/>
      <component glyphName="quoteleft" x="123" y="200" flags="0x1004"/>
    </TTGlyph>
    <TTGlyph name="gdotaccent" xMin="64" yMin="-16" xMax="416" yMax="1875">
      <component glyphName="dotaccent" x="94" y="1591" flags="0x1004"/>
      <component glyphName="g" x="0" y="0" flags="0x1204"/>
    </TTGlyph>
    <TTGlyph name="germandbls" xMin="52" yMin="-204" xMax="415" yMax="1784">
      <contour>
        <pt x="52" y="1611" on="1"/>
        <pt x="52" y="1656" on="0"/>
        <pt x="85" y="1721" on="0"/>
        <pt x="138" y="1764" on="0"/>
        <pt x="201" y="1784" on="0"/>
        <pt x="231" y="1784" on="1"/>
        <pt x="261" y="1784" on="0"/>
        <pt x="326" y="1765" on="0"/>
        <pt x="380" y="1723" on="0"/>
        <pt x="415" y="1658" on="0"/>
        <pt x="415" y="1613" on="1"/>
        <pt x="415" y="1159" on="1"/>
        <pt x="415" y="1122" on="0"/>
        <pt x="392" y="1082" on="1"/>
        <pt x="369" y="1044" on="0"/>
        <pt x="322" y="1029" on="1"/>
        <pt x="346" y="1023" on="0"/>
        <pt x="381" y="997" on="0"/>
        <pt x="404" y="962" on="0"/>
        <pt x="415" y="923" on="0"/>
        <pt x="415" y="904" on="1"/>
        <pt x="415" y="150" on="1"/>
        <pt x="415" y="120" on="0"/>
        <pt x="386" y="65" on="0"/>
        <pt x="337" y="24" on="0"/>
        <pt x="271" y="0" on="0"/>
        <pt x="234" y="0" on="1"/>
        <pt x="186" y="0" on="1"/>
        <pt x="186" y="-204" on="1"/>
        <pt x="52" y="-204" on="1"/>
      </contour>
      <contour>
        <pt x="279" y="921" on="1"/>
        <pt x="279" y="926" on="0"/>
        <pt x="276" y="943" on="0"/>
        <pt x="267" y="959" on="0"/>
        <pt x="250" y="970" on="0"/>
        <pt x="236" y="970" on="1"/>
        <pt x="186" y="970" on="1"/>
        <pt x="186" y="114" on="1"/>
        <pt x="211" y="114" on="0"/>
        <pt x="246" y="115" on="0"/>
        <pt x="269" y="121" on="0"/>
        <pt x="279" y="136" on="0"/>
        <pt x="279" y="150" on="1"/>
      </contour>
      <contour>
        <pt x="186" y="1089" on="1"/>
        <pt x="242" y="1089" on="1"/>
        <pt x="267" y="1089" on="0"/>
        <pt x="279" y="1122" on="0"/>
        <pt x="279" y="1147" on="1"/>
        <pt x="279" y="1631" on="1"/>
        <pt x="279" y="1655" on="0"/>
        <pt x="252" y="1679" on="0"/>
        <pt x="232" y="1679" on="1"/>
        <pt x="186" y="1679" on="0"/>
        <pt x="186" y="1631" on="1"/>
      </contour>
    </TTGlyph>
    <TTGlyph name="grave" xMin="0" yMin="96" xMax="288" yMax="512">
      <contour>
        <pt x="160" y="512" on="1"/>
        <pt x="288" y="96" on="1"/>
        <pt x="192" y="96" on="1"/>
        <pt x="0" y="512" on="1"/>
      </contour>
    </TTGlyph>
    <TTGlyph name="greater" xMin="31" yMin="0" xMax="314" yMax="1761">
      <contour>
        <pt x="314" y="876" on="1"/>
        <pt x="31" y="0" on="1"/>
        <pt x="31" y="391" on="1"/>
        <pt x="178" y="876" on="1"/>
        <pt x="31" y="1393" on="1"/>
        <pt x="31" y="1761" on="1"/>
      </contour>
    </TTGlyph>
    <TTGlyph name="greaterequal" xMin="24" yMin="243" xMax="409" yMax="1340">
      <contour>
        <pt x="409" y="881" on="1"/>
        <pt x="24" y="439" on="1"/>
        <pt x="24" y="704" on="1"/>
        <pt x="214" y="881" on="1"/>
        <pt x="24" y="1080" on="1"/>
        <pt x="24" y="1340" on="1"/>
      </contour>
      <contour>
        <pt x="402" y="243" on="1"/>
        <pt x="25" y="243" on="1"/>
        <pt x="25" y="389" on="1"/>
        <pt x="402" y="389" on="1"/>
      </contour>
    </TTGlyph>
    <TTGlyph name="guillemotleft" xMin="41" yMin="301" xMax="556" yMax="1460">
      <contour>
        <pt x="556" y="1460" on="1"/>
        <pt x="556" y="1176" on="1"/>
        <pt x="409" y="881" on="1"/>
        <pt x="556" y="608" on="1"/>
        <pt x="556" y="301" on="1"/>
        <pt x="273" y="881" on="1"/>
      </contour>
      <contour>
        <pt x="324" y="1460" on="1"/>
        <pt x="324" y="1176" on="1"/>
        <pt x="177" y="881" on="1"/>
        <pt x="324" y="608" on="1"/>
        <pt x="324" y="301" on="1"/>
        <pt x="41" y="881" on="1"/>
      </contour>
    </TTGlyph>
    <TTGlyph name="guillemotright" xMin="72" yMin="301" xMax="588" yMax="1460">
      <component glyphName="guillemotleft" x="629" y="0" scalex="-0.999816894531" scaley="1.0" flags="0x1004"/>
    </TTGlyph>
    <TTGlyph name="guilsinglleft" xMin="20" yMin="301" xMax="303" yMax="1460">
      <contour>
        <pt x="303" y="1460" on="1"/>
        <pt x="303" y="1176" on="1"/>
        <pt x="156" y="881" on="1"/>
        <pt x="303" y="608" on="1"/>
        <pt x="303" y="301" on="1"/>
        <pt x="20" y="881" on="1"/>
      </contour>
    </TTGlyph>
    <TTGlyph name="guilsinglright" xMin="192" yMin="301" xMax="476" yMax="1460">
      <component glyphName="guilsinglleft" x="496" y="0" scalex="-0.999816894531" scaley="1.0" flags="0x1004"/>
    </TTGlyph>
    <TTGlyph name="h" xMin="64" yMin="0" xMax="448" yMax="1536">
      <contour>
        <pt x="320" y="1536" on="1"/>
        <pt x="448" y="1536" on="1"/>
        <pt x="448" y="0" on="1"/>
        <pt x="320" y="0" on="1"/>
        <pt x="320" y="746" on="1"/>
        <pt x="192" y="746" on="1"/>
        <pt x="192" y="0" on="1"/>
        <pt x="64" y="0" on="1"/>
        <pt x="64" y="1536" on="1"/>
        <pt x="192" y="1536" on="1"/>
        <pt x="192" y="846" on="1"/>
        <pt x="320" y="846" on="1"/>
      </contour>
    </TTGlyph>
    <TTGlyph name="hbar" xMin="64" yMin="0" xMax="448" yMax="1536">
      <contour>
        <pt x="320" y="1536" on="1"/>
        <pt x="448" y="1536" on="1"/>
        <pt x="448" y="0" on="1"/>
        <pt x="320" y="0" on="1"/>
        <pt x="320" y="746" on="1"/>
        <pt x="192" y="746" on="1"/>
        <pt x="192" y="0" on="1"/>
        <pt x="64" y="0" on="1"/>
        <pt x="64" y="1536" on="1"/>
        <pt x="192" y="1536" on="1"/>
        <pt x="192" y="1302" on="1"/>
        <pt x="320" y="1302" on="1"/>
      </contour>
      <contour>
        <pt x="192" y="1197" on="1"/>
        <pt x="192" y="846" on="1"/>
        <pt x="320" y="846" on="1"/>
        <pt x="320" y="1197" on="1"/>
      </contour>
    </TTGlyph>
    <TTGlyph name="hcircumflex" xMin="64" yMin="0" xMax="448" yMax="2018">
      <component glyphName="circumflex" x="93" y="1588" flags="0x1004"/>
      <component glyphName="h" x="0" y="0" flags="0x1204"/>
    </TTGlyph>
    <TTGlyph name="hungarumlaut" xMin="47" yMin="84" xMax="535" yMax="494">
      <contour>
        <pt x="338" y="494" on="1"/>
        <pt x="148" y="84" on="1"/>
        <pt x="47" y="84" on="1"/>
        <pt x="180" y="494" on="1"/>
      </contour>
      <contour>
        <pt x="535" y="494" on="1"/>
        <pt x="294" y="84" on="1"/>
        <pt x="193" y="84" on="1"/>
        <pt x="377" y="494" on="1"/>
      </contour>
    </TTGlyph>
    <TTGlyph name="hyphen" xMin="32" yMin="704" xMax="512" yMax="832">
      <contour>
        <pt x="512" y="704" on="1"/>
        <pt x="32" y="704" on="1"/>
        <pt x="32" y="832" on="1"/>
        <pt x="512" y="832" on="1"/>
      </contour>
    </TTGlyph>
    <TTGlyph name="i" xMin="80" yMin="0" xMax="208" yMax="1536">
      <contour>
        <pt x="208" y="1536" on="1"/>
        <pt x="208" y="0" on="1"/>
        <pt x="80" y="0" on="1"/>
        <pt x="80" y="1536" on="1"/>
      </contour>
    </TTGlyph>
    <TTGlyph name="iacute" xMin="79" yMin="0" xMax="386" yMax="2088">
      <component glyphName="acute" x="98" y="1576" flags="0x1004"/>
      <component glyphName="dotlessi" x="0" y="0" flags="0x1204"/>
    </TTGlyph>
    <TTGlyph name="ibreve" xMin="-46" yMin="0" xMax="338" yMax="1896">
      <component glyphName="breve" x="-18" y="1588" flags="0x1004"/>
      <component glyphName="dotlessi" x="0" y="0" flags="0x1204"/>
    </TTGlyph>
    <TTGlyph name="icircumflex" xMin="14" yMin="0" xMax="278" yMax="2018">
      <component glyphName="circumflex" x="-17" y="1588" flags="0x1004"/>
      <component glyphName="dotlessi" x="0" y="0" flags="0x1204"/>
    </TTGlyph>
    <TTGlyph name="idieresis" xMin="-27" yMin="0" xMax="319" yMax="1831">
      <component glyphName="dieresis" x="-142" y="1596" flags="0x1004"/>
      <component glyphName="dotlessi" x="0" y="0" flags="0x1204"/>
    </TTGlyph>
    <TTGlyph name="idotaccent" xMin="35" yMin="0" xMax="217" yMax="1786">
      <component glyphName="i" x="0" y="0" flags="0x1004"/>
      <component glyphName="dotaccent" x="-20" y="1502" flags="0x1004"/>
    </TTGlyph>
    <TTGlyph name="igrave" xMin="-94" yMin="0" xMax="213" yMax="2088">
      <component glyphName="grave" x="-94" y="1576" flags="0x1004"/>
      <component glyphName="dotlessi" x="0" y="0" flags="0x1204"/>
    </TTGlyph>
    <TTGlyph name="imacron" xMin="-18" yMin="0" xMax="310" yMax="1777">
      <component glyphName="macron" x="-18" y="1585" flags="0x1004"/>
      <component glyphName="dotlessi" x="0" y="0" flags="0x1204"/>
    </TTGlyph>
    <TTGlyph name="infinity" xMin="15" yMin="619" xMax="728" yMax="1087">
      <contour>
        <pt x="728" y="854" on="1"/>
        <pt x="728" y="807" on="0"/>
        <pt x="707" y="722" on="0"/>
        <pt x="666" y="658" on="0"/>
        <pt x="604" y="619" on="0"/>
        <pt x="563" y="619" on="1"/>
        <pt x="518" y="619" on="0"/>
        <pt x="448" y="671" on="0"/>
        <pt x="418" y="709" on="1"/>
        <pt x="406" y="724" on="0"/>
        <pt x="384" y="757" on="0"/>
        <pt x="373" y="774" on="1"/>
        <pt x="362" y="757" on="0"/>
        <pt x="340" y="724" on="0"/>
        <pt x="328" y="709" on="1"/>
        <pt x="298" y="671" on="0"/>
        <pt x="226" y="619" on="0"/>
        <pt x="180" y="619" on="1"/>
        <pt x="138" y="619" on="0"/>
        <pt x="75" y="658" on="0"/>
        <pt x="35" y="722" on="0"/>
        <pt x="15" y="807" on="0"/>
        <pt x="15" y="854" on="1"/>
        <pt x="15" y="900" on="0"/>
        <pt x="35" y="984" on="0"/>
        <pt x="75" y="1048" on="0"/>
        <pt x="138" y="1087" on="0"/>
        <pt x="180" y="1087" on="1"/>
        <pt x="226" y="1087" on="0"/>
        <pt x="298" y="1035" on="0"/>
        <pt x="328" y="997" on="1"/>
        <pt x="340" y="981" on="0"/>
        <pt x="362" y="949" on="0"/>
        <pt x="373" y="932" on="1"/>
        <pt x="384" y="949" on="0"/>
        <pt x="406" y="981" on="0"/>
        <pt x="418" y="997" on="1"/>
        <pt x="448" y="1035" on="0"/>
        <pt x="518" y="1087" on="0"/>
        <pt x="563" y="1087" on="1"/>
        <pt x="604" y="1087" on="0"/>
        <pt x="666" y="1048" on="0"/>
        <pt x="707" y="984" on="0"/>
        <pt x="728" y="900" on="0"/>
      </contour>
      <contour>
        <pt x="312" y="876" on="1"/>
        <pt x="286" y="915" on="0"/>
        <pt x="230" y="967" on="0"/>
        <pt x="193" y="967" on="1"/>
        <pt x="167" y="967" on="0"/>
        <pt x="133" y="949" on="0"/>
        <pt x="114" y="918" on="0"/>
        <pt x="107" y="877" on="0"/>
        <pt x="107" y="854" on="1"/>
        <pt x="107" y="831" on="0"/>
        <pt x="114" y="789" on="0"/>
        <pt x="133" y="758" on="0"/>
        <pt x="167" y="740" on="0"/>
        <pt x="193" y="740" on="1"/>
        <pt x="230" y="740" on="0"/>
        <pt x="286" y="791" on="0"/>
        <pt x="312" y="830" on="1"/>
        <pt x="328" y="852" on="1"/>
      </contour>
      <contour>
        <pt x="408" y="852" on="1"/>
        <pt x="424" y="830" on="1"/>
        <pt x="450" y="791" on="0"/>
        <pt x="507" y="740" on="0"/>
        <pt x="543" y="740" on="1"/>
        <pt x="569" y="740" on="0"/>
        <pt x="603" y="758" on="0"/>
        <pt x="622" y="789" on="0"/>
        <pt x="629" y="831" on="0"/>
        <pt x="629" y="854" on="1"/>
        <pt x="629" y="877" on="0"/>
        <pt x="622" y="918" on="0"/>
        <pt x="603" y="949" on="0"/>
        <pt x="569" y="967" on="0"/>
        <pt x="543" y="967" on="1"/>
        <pt x="507" y="967" on="0"/>
        <pt x="450" y="915" on="0"/>
        <pt x="424" y="876" on="1"/>
      </contour>
    </TTGlyph>
    <TTGlyph name="integral" xMin="24" yMin="0" xMax="451" yMax="1520">
      <contour>
        <pt x="443" y="1422" on="1"/>
        <pt x="277" y="1422" on="1"/>
        <pt x="228" y="864" on="1"/>
        <pt x="348" y="864" on="1"/>
        <pt x="338" y="759" on="1"/>
        <pt x="219" y="759" on="1"/>
        <pt x="153" y="0" on="1"/>
        <pt x="24" y="0" on="1"/>
        <pt x="157" y="1520" on="1"/>
        <pt x="451" y="1520" on="1"/>
      </contour>
    </TTGlyph>
    <TTGlyph name="iogonek" xMin="51" yMin="-283" xMax="334" yMax="1536">
      <component glyphName="i" x="0" y="0" flags="0x1004"/>
      <component glyphName="ogonek" x="-12" y="0" flags="0x1004"/>
    </TTGlyph>
    <TTGlyph name="iring" xMin="-14" yMin="0" xMax="271" yMax="1850">
      <component glyphName="i" x="0" y="0" flags="0x1004"/>
      <component glyphName="ring" x="-47" y="1502" flags="0x1004"/>
    </TTGlyph>
    <TTGlyph name="itilde" xMin="-44" yMin="0" xMax="336" yMax="1831">
      <component glyphName="tilde" x="-29" y="1571" flags="0x1004"/>
      <component glyphName="dotlessi" x="0" y="0" flags="0x1204"/>
    </TTGlyph>
    <TTGlyph name="j" xMin="64" yMin="-16" xMax="416" yMax="1536">
      <contour>
        <pt x="416" y="144" on="1"/>
        <pt x="416" y="102" on="0"/>
        <pt x="386" y="41" on="0"/>
        <pt x="336" y="2" on="0"/>
        <pt x="273" y="-16" on="0"/>
        <pt x="240" y="-16" on="1"/>
        <pt x="207" y="-16" on="0"/>
        <pt x="144" y="2" on="0"/>
        <pt x="94" y="41" on="0"/>
        <pt x="64" y="102" on="0"/>
        <pt x="64" y="144" on="1"/>
        <pt x="64" y="704" on="1"/>
        <pt x="192" y="704" on="1"/>
        <pt x="192" y="144" on="1"/>
        <pt x="192" y="108" on="0"/>
        <pt x="222" y="80" on="0"/>
        <pt x="240" y="80" on="1"/>
        <pt x="258" y="80" on="0"/>
        <pt x="288" y="108" on="0"/>
        <pt x="288" y="144" on="1"/>
        <pt x="288" y="1536" on="1"/>
        <pt x="416" y="1536" on="1"/>
      </contour>
    </TTGlyph>
    <TTGlyph name="jcircumflex" xMin="64" yMin="-16" xMax="484" yMax="2004">
      <component glyphName="circumflex" x="189" y="1574" flags="0x1004"/>
      <component glyphName="j" x="0" y="0" flags="0x1204"/>
    </TTGlyph>
    <TTGlyph name="k" xMin="64" yMin="0" xMax="416" yMax="1536">
      <contour>
        <pt x="416" y="0" on="1"/>
        <pt x="288" y="0" on="1"/>
        <pt x="192" y="704" on="1"/>
        <pt x="192" y="0" on="1"/>
        <pt x="64" y="0" on="1"/>
        <pt x="64" y="1536" on="1"/>
        <pt x="192" y="1536" on="1"/>
        <pt x="192" y="832" on="1"/>
        <pt x="288" y="1536" on="1"/>
        <pt x="416" y="1536" on="1"/>
        <pt x="305" y="768" on="1"/>
      </contour>
    </TTGlyph>
    <TTGlyph name="kcommaaccent" xMin="64" yMin="-474" xMax="416" yMax="1536">
      <component glyphName="comma" x="144" y="-314" flags="0x1004"/>
      <component glyphName="k" x="0" y="0" flags="0x1204"/>
    </TTGlyph>
    <TTGlyph name="kgreenlandic" xMin="64" yMin="0" xMax="416" yMax="1536">
      <component glyphName="k" x="0" y="0" flags="0x1004"/>
    </TTGlyph>
    <TTGlyph name="l" xMin="64" yMin="0" xMax="320" yMax="1536">
      <contour>
        <pt x="192" y="1536" on="1"/>
        <pt x="192" y="96" on="1"/>
        <pt x="320" y="96" on="1"/>
        <pt x="320" y="0" on="1"/>
        <pt x="64" y="0" on="1"/>
        <pt x="64" y="1536" on="1"/>
      </contour>
    </TTGlyph>
    <TTGlyph name="lacute" xMin="64" yMin="0" xMax="368" yMax="2088">
      <component glyphName="acute" x="80" y="1576" flags="0x1004"/>
      <component glyphName="l" x="0" y="0" flags="0x1204"/>
    </TTGlyph>
    <TTGlyph name="lcaron" xMin="64" yMin="0" xMax="439" yMax="1550">
      <component glyphName="comma" x="279" y="1358" flags="0x1004"/>
      <component glyphName="l" x="0" y="0" flags="0x1004"/>
    </TTGlyph>
    <TTGlyph name="lcommaaccent" xMin="64" yMin="-474" xMax="320" yMax="1536">
      <component glyphName="comma" x="96" y="-314" flags="0x1004"/>
      <component glyphName="l" x="0" y="0" flags="0x1204"/>
    </TTGlyph>
    <TTGlyph name="less" xMin="4" yMin="0" xMax="288" yMax="1761">
      <component glyphName="greater" x="319" y="0" scalex="-0.999816894531" scaley="1.0" flags="0x1004"/>
    </TTGlyph>
    <TTGlyph name="lessequal" xMin="15" yMin="243" xMax="401" yMax="1340">
      <contour>
        <pt x="401" y="1340" on="1"/>
        <pt x="401" y="1080" on="1"/>
        <pt x="211" y="881" on="1"/>
        <pt x="401" y="704" on="1"/>
        <pt x="401" y="439" on="1"/>
        <pt x="15" y="881" on="1"/>
      </contour>
      <contour>
        <pt x="23" y="389" on="1"/>
        <pt x="400" y="389" on="1"/>
        <pt x="400" y="243" on="1"/>
        <pt x="23" y="243" on="1"/>
      </contour>
    </TTGlyph>
    <TTGlyph name="logicalnot" xMin="24" yMin="722" xMax="982" yMax="1161">
      <contour>
        <pt x="982" y="1159" on="1"/>
        <pt x="982" y="1060" on="1"/>
        <pt x="150" y="1060" on="1"/>
        <pt x="150" y="722" on="1"/>
        <pt x="24" y="722" on="1"/>
        <pt x="24" y="1161" on="1"/>
      </contour>
    </TTGlyph>
    <TTGlyph name="lozenge" xMin="52" yMin="-21" xMax="406" yMax="1783">
      <contour>
        <pt x="406" y="130" on="1"/>
        <pt x="406" y="99" on="0"/>
        <pt x="377" y="44" on="0"/>
        <pt x="329" y="3" on="0"/>
        <pt x="265" y="-21" on="0"/>
        <pt x="230" y="-21" on="1"/>
        <pt x="193" y="-21" on="0"/>
        <pt x="128" y="3" on="0"/>
        <pt x="80" y="45" on="0"/>
        <pt x="52" y="102" on="0"/>
        <pt x="52" y="135" on="1"/>
        <pt x="52" y="1631" on="1"/>
        <pt x="52" y="1663" on="0"/>
        <pt x="80" y="1718" on="0"/>
        <pt x="128" y="1759" on="0"/>
        <pt x="193" y="1783" on="0"/>
        <pt x="230" y="1783" on="1"/>
        <pt x="265" y="1783" on="0"/>
        <pt x="329" y="1760" on="0"/>
        <pt x="377" y="1720" on="0"/>
        <pt x="406" y="1665" on="0"/>
        <pt x="406" y="1632" on="1"/>
      </contour>
      <contour>
        <pt x="338" y="994" on="1"/>
        <pt x="336" y="987" on="0"/>
        <pt x="331" y="931" on="0"/>
        <pt x="324" y="856" on="0"/>
        <pt x="316" y="771" on="0"/>
        <pt x="307" y="701" on="0"/>
        <pt x="295" y="656" on="0"/>
        <pt x="289" y="657" on="1"/>
        <pt x="292" y="719" on="0"/>
        <pt x="292" y="834" on="0"/>
        <pt x="287" y="931" on="0"/>
        <pt x="281" y="1007" on="0"/>
        <pt x="278" y="1030" on="1"/>
        <pt x="273" y="1065" on="1"/>
        <pt x="272" y="1018" on="1"/>
        <pt x="271" y="972" on="0"/>
        <pt x="265" y="838" on="0"/>
        <pt x="259" y="757" on="1"/>
        <pt x="255" y="716" on="0"/>
        <pt x="248" y="643" on="0"/>
        <pt x="243" y="611" on="1"/>
        <pt x="231" y="644" on="0"/>
        <pt x="217" y="725" on="0"/>
        <pt x="208" y="809" on="0"/>
        <pt x="205" y="893" on="0"/>
        <pt x="206" y="968" on="0"/>
        <pt x="208" y="1027" on="0"/>
        <pt x="210" y="1045" on="1"/>
        <pt x="211" y="1068" on="1"/>
        <pt x="196" y="1039" on="0"/>
        <pt x="182" y="945" on="0"/>
        <pt x="177" y="820" on="0"/>
        <pt x="181" y="669" on="0"/>
        <pt x="184" y="585" on="1"/>
        <pt x="166" y="618" on="0"/>
        <pt x="145" y="726" on="0"/>
        <pt x="133" y="844" on="0"/>
        <pt x="124" y="952" on="0"/>
        <pt x="117" y="985" on="1"/>
        <pt x="138" y="148" on="1"/>
        <pt x="138" y="111" on="0"/>
        <pt x="180" y="58" on="0"/>
        <pt x="230" y="58" on="1"/>
        <pt x="254" y="58" on="0"/>
        <pt x="286" y="73" on="0"/>
        <pt x="305" y="97" on="0"/>
        <pt x="314" y="125" on="0"/>
        <pt x="316" y="139" on="1"/>
      </contour>
    </TTGlyph>
    <TTGlyph name="lslash" xMin="-9" yMin="0" xMax="312" yMax="1520">
      <contour>
        <pt x="186" y="1520" on="1"/>
        <pt x="186" y="832" on="1"/>
        <pt x="312" y="861" on="1"/>
        <pt x="312" y="744" on="1"/>
        <pt x="186" y="716" on="1"/>
        <pt x="186" y="101" on="1"/>
        <pt x="312" y="101" on="1"/>
        <pt x="312" y="0" on="1"/>
        <pt x="55" y="0" on="1"/>
        <pt x="55" y="686" on="1"/>
        <pt x="-9" y="672" on="1"/>
        <pt x="-9" y="789" on="1"/>
        <pt x="55" y="803" on="1"/>
        <pt x="55" y="1520" on="1"/>
      </contour>
    </TTGlyph>
    <TTGlyph name="m" xMin="64" yMin="0" xMax="512" yMax="1536">
      <contour>
        <pt x="399" y="1536" on="1"/>
        <pt x="512" y="1536" on="1"/>
        <pt x="512" y="0" on="1"/>
        <pt x="400" y="0" on="1"/>
        <pt x="400" y="928" on="1"/>
        <pt x="313" y="64" on="1"/>
        <pt x="263" y="64" on="1"/>
        <pt x="176" y="928" on="1"/>
        <pt x="176" y="0" on="1"/>
        <pt x="64" y="0" on="1"/>
        <pt x="64" y="1536" on="1"/>
        <pt x="177" y="1536" on="1"/>
        <pt x="288" y="608" on="1"/>
      </contour>
    </TTGlyph>
    <TTGlyph name="macron" xMin="0" yMin="87" xMax="327" yMax="192">
      <contour>
        <pt x="327" y="87" on="1"/>
        <pt x="0" y="87" on="1"/>
        <pt x="0" y="192" on="1"/>
        <pt x="327" y="192" on="1"/>
      </contour>
    </TTGlyph>
    <TTGlyph name="minus" xMin="41" yMin="750" xMax="445" yMax="885">
      <contour>
        <pt x="445" y="750" on="1"/>
        <pt x="41" y="750" on="1"/>
        <pt x="41" y="885" on="1"/>
        <pt x="445" y="885" on="1"/>
      </contour>
    </TTGlyph>
    <TTGlyph name="multiply" xMin="21" yMin="196" xMax="378" yMax="1247">
      <contour>
        <pt x="378" y="196" on="1"/>
        <pt x="249" y="196" on="1"/>
        <pt x="200" y="458" on="1"/>
        <pt x="154" y="196" on="1"/>
        <pt x="21" y="196" on="1"/>
        <pt x="138" y="716" on="1"/>
        <pt x="21" y="1247" on="1"/>
        <pt x="154" y="1247" on="1"/>
        <pt x="200" y="970" on="1"/>
        <pt x="249" y="1247" on="1"/>
        <pt x="378" y="1247" on="1"/>
        <pt x="266" y="716" on="1"/>
      </contour>
    </TTGlyph>
    <TTGlyph name="n" xMin="64" yMin="0" xMax="448" yMax="1536">
      <contour>
        <pt x="448" y="0" on="1"/>
        <pt x="352" y="0" on="1"/>
        <pt x="176" y="896" on="1"/>
        <pt x="176" y="0" on="1"/>
        <pt x="64" y="0" on="1"/>
        <pt x="64" y="1536" on="1"/>
        <pt x="160" y="1536" on="1"/>
        <pt x="337" y="608" on="1"/>
        <pt x="337" y="1536" on="1"/>
        <pt x="448" y="1536" on="1"/>
      </contour>
    </TTGlyph>
    <TTGlyph name="nacute" xMin="64" yMin="0" xMax="496" yMax="2088">
      <component glyphName="acute" x="208" y="1576" flags="0x1004"/>
      <component glyphName="n" x="0" y="0" flags="0x1204"/>
    </TTGlyph>
    <TTGlyph name="ncaron" xMin="64" yMin="0" xMax="448" yMax="2018">
      <component glyphName="caron" x="92" y="1588" flags="0x1004"/>
      <component glyphName="n" x="0" y="0" flags="0x1204"/>
    </TTGlyph>
    <TTGlyph name="ncommaaccent" xMin="64" yMin="-474" xMax="448" yMax="1536">
      <component glyphName="comma" x="160" y="-314" flags="0x1004"/>
      <component glyphName="n" x="0" y="0" flags="0x1204"/>
    </TTGlyph>
    <TTGlyph name="ndieresis" xMin="57" yMin="0" xMax="481" yMax="1747">
      <component glyphName="n" x="33" y="0" flags="0x1004"/>
      <component glyphName="dieresis" x="-58" y="1512" flags="0x1004"/>
    </TTGlyph>
    <TTGlyph name="nine" xMin="64" yMin="-32" xMax="416" yMax="1760">
      <contour>
        <pt x="288" y="736" on="1"/>
        <pt x="259" y="722" on="0"/>
        <pt x="205" y="706" on="0"/>
        <pt x="182" y="706" on="1"/>
        <pt x="128" y="706" on="0"/>
        <pt x="64" y="795" on="0"/>
        <pt x="64" y="896" on="1"/>
        <pt x="64" y="1568" on="1"/>
        <pt x="64" y="1616" on="0"/>
        <pt x="94" y="1688" on="0"/>
        <pt x="144" y="1736" on="0"/>
        <pt x="207" y="1760" on="0"/>
        <pt x="240" y="1760" on="1"/>
        <pt x="273" y="1760" on="0"/>
        <pt x="336" y="1736" on="0"/>
        <pt x="386" y="1688" on="0"/>
        <pt x="416" y="1616" on="0"/>
        <pt x="416" y="1568" on="1"/>
        <pt x="416" y="160" on="1"/>
        <pt x="416" y="112" on="0"/>
        <pt x="386" y="40" on="0"/>
        <pt x="336" y="-8" on="0"/>
        <pt x="273" y="-32" on="0"/>
        <pt x="240" y="-32" on="1"/>
        <pt x="207" y="-32" on="0"/>
        <pt x="144" y="-8" on="0"/>
        <pt x="94" y="40" on="0"/>
        <pt x="64" y="112" on="0"/>
        <pt x="64" y="160" on="1"/>
        <pt x="64" y="512" on="1"/>
        <pt x="192" y="512" on="1"/>
        <pt x="192" y="160" on="1"/>
        <pt x="192" y="112" on="0"/>
        <pt x="222" y="64" on="0"/>
        <pt x="240" y="64" on="1"/>
        <pt x="258" y="64" on="0"/>
        <pt x="288" y="112" on="0"/>
        <pt x="288" y="160" on="1"/>
      </contour>
      <contour>
        <pt x="192" y="896" on="1"/>
        <pt x="192" y="860" on="0"/>
        <pt x="213" y="832" on="0"/>
        <pt x="228" y="832" on="1"/>
        <pt x="243" y="832" on="0"/>
        <pt x="276" y="852" on="0"/>
        <pt x="288" y="864" on="1"/>
        <pt x="288" y="1568" on="1"/>
        <pt x="288" y="1604" on="0"/>
        <pt x="258" y="1640" on="0"/>
        <pt x="240" y="1640" on="1"/>
        <pt x="222" y="1640" on="0"/>
        <pt x="192" y="1604" on="0"/>
        <pt x="192" y="1568" on="1"/>
      </contour>
    </TTGlyph>
    <TTGlyph name="notequal" xMin="62" yMin="512" xMax="574" yMax="864">
      <component glyphName="equal" x="30" y="0" flags="0x1004"/>
    </TTGlyph>
    <TTGlyph name="ntilde" xMin="64" yMin="0" xMax="448" yMax="1831">
      <component glyphName="tilde" x="81" y="1571" flags="0x1004"/>
      <component glyphName="n" x="0" y="0" flags="0x1204"/>
    </TTGlyph>
    <TTGlyph name="numbersign" xMin="0" yMin="0" xMax="512" yMax="1728">
      <contour>
        <pt x="480" y="608" on="1"/>
        <pt x="418" y="608" on="1"/>
        <pt x="384" y="0" on="1"/>
        <pt x="256" y="0" on="1"/>
        <pt x="290" y="608" on="1"/>
        <pt x="194" y="608" on="1"/>
        <pt x="160" y="0" on="1"/>
        <pt x="32" y="0" on="1"/>
        <pt x="66" y="608" on="1"/>
        <pt x="0" y="608" on="1"/>
        <pt x="0" y="704" on="1"/>
        <pt x="71" y="704" on="1"/>
        <pt x="87" y="992" on="1"/>
        <pt x="32" y="992" on="1"/>
        <pt x="32" y="1088" on="1"/>
        <pt x="93" y="1088" on="1"/>
        <pt x="128" y="1728" on="1"/>
        <pt x="256" y="1728" on="1"/>
        <pt x="221" y="1088" on="1"/>
        <pt x="317" y="1088" on="1"/>
        <pt x="352" y="1728" on="1"/>
        <pt x="480" y="1728" on="1"/>
        <pt x="445" y="1088" on="1"/>
        <pt x="512" y="1088" on="1"/>
        <pt x="512" y="992" on="1"/>
        <pt x="439" y="992" on="1"/>
        <pt x="423" y="704" on="1"/>
        <pt x="480" y="704" on="1"/>
      </contour>
      <contour>
        <pt x="199" y="704" on="1"/>
        <pt x="295" y="704" on="1"/>
        <pt x="311" y="992" on="1"/>
        <pt x="215" y="992" on="1"/>
      </contour>
    </TTGlyph>
    <TTGlyph name="o" xMin="64" yMin="-18" xMax="448" yMax="1550">
      <contour>
        <pt x="448" y="144" on="1"/>
        <pt x="448" y="102" on="0"/>
        <pt x="417" y="41" on="0"/>
        <pt x="365" y="1" on="0"/>
        <pt x="299" y="-18" on="0"/>
        <pt x="264" y="-18" on="1"/>
        <pt x="227" y="-18" on="0"/>
        <pt x="155" y="3" on="0"/>
        <pt x="99" y="44" on="0"/>
        <pt x="64" y="105" on="0"/>
        <pt x="64" y="144" on="1"/>
        <pt x="64" y="1392" on="1"/>
        <pt x="64" y="1430" on="0"/>
        <pt x="99" y="1489" on="0"/>
        <pt x="156" y="1529" on="0"/>
        <pt x="228" y="1550" on="0"/>
        <pt x="265" y="1550" on="1"/>
        <pt x="300" y="1550" on="0"/>
        <pt x="366" y="1531" on="0"/>
        <pt x="417" y="1492" on="0"/>
        <pt x="448" y="1432" on="0"/>
        <pt x="448" y="1392" on="1"/>
      </contour>
      <contour>
        <pt x="320" y="1392" on="1"/>
        <pt x="320" y="1426" on="0"/>
        <pt x="287" y="1455" on="0"/>
        <pt x="265" y="1455" on="1"/>
        <pt x="252" y="1455" on="0"/>
        <pt x="226" y="1446" on="0"/>
        <pt x="205" y="1429" on="0"/>
        <pt x="192" y="1406" on="0"/>
        <pt x="192" y="1392" on="1"/>
        <pt x="192" y="144" on="1"/>
        <pt x="192" y="130" on="0"/>
        <pt x="205" y="106" on="0"/>
        <pt x="226" y="90" on="0"/>
        <pt x="251" y="81" on="0"/>
        <pt x="264" y="81" on="1"/>
        <pt x="286" y="81" on="0"/>
        <pt x="320" y="110" on="0"/>
        <pt x="320" y="144" on="1"/>
      </contour>
    </TTGlyph>
    <TTGlyph name="oacute" xMin="64" yMin="-18" xMax="505" yMax="2088">
      <component glyphName="acute" x="217" y="1576" flags="0x1004"/>
      <component glyphName="o" x="0" y="0" flags="0x1204"/>
    </TTGlyph>
    <TTGlyph name="obreve" xMin="64" yMin="-18" xMax="457" yMax="1896">
      <component glyphName="breve" x="101" y="1588" flags="0x1004"/>
      <component glyphName="o" x="0" y="0" flags="0x1204"/>
    </TTGlyph>
    <TTGlyph name="ocircumflex" xMin="64" yMin="-18" xMax="448" yMax="2018">
      <component glyphName="circumflex" x="102" y="1588" flags="0x1004"/>
      <component glyphName="o" x="0" y="0" flags="0x1204"/>
    </TTGlyph>
    <TTGlyph name="odieresis" xMin="64" yMin="-18" xMax="448" yMax="1831">
      <component glyphName="dieresis" x="-23" y="1596" flags="0x1004"/>
      <component glyphName="o" x="0" y="0" flags="0x1204"/>
    </TTGlyph>
    <TTGlyph name="odotaccent" xMin="128" yMin="-18" xMax="512" yMax="1786">
      <component glyphName="o" x="64" y="0" flags="0x1004"/>
      <component glyphName="dotaccent" x="81" y="1502" flags="0x1004"/>
    </TTGlyph>
    <TTGlyph name="oe" xMin="52" yMin="-21" xMax="573" yMax="1545">
      <contour>
        <pt x="573" y="1429" on="1"/>
        <pt x="406" y="1429" on="1"/>
        <pt x="406" y="858" on="1"/>
        <pt x="531" y="858" on="1"/>
        <pt x="531" y="752" on="1"/>
        <pt x="406" y="752" on="1"/>
        <pt x="406" y="101" on="1"/>
        <pt x="573" y="101" on="1"/>
        <pt x="573" y="0" on="1"/>
        <pt x="316" y="0" on="1"/>
        <pt x="298" y="-11" on="0"/>
        <pt x="274" y="-15" on="1"/>
        <pt x="254" y="-21" on="0"/>
        <pt x="230" y="-21" on="1"/>
        <pt x="193" y="-21" on="0"/>
        <pt x="128" y="3" on="0"/>
        <pt x="80" y="45" on="0"/>
        <pt x="52" y="102" on="0"/>
        <pt x="52" y="135" on="1"/>
        <pt x="52" y="1391" on="1"/>
        <pt x="52" y="1422" on="0"/>
        <pt x="80" y="1478" on="0"/>
        <pt x="128" y="1520" on="0"/>
        <pt x="193" y="1545" on="0"/>
        <pt x="230" y="1545" on="1"/>
        <pt x="281" y="1545" on="0"/>
        <pt x="325" y="1520" on="1"/>
        <pt x="573" y="1520" on="1"/>
      </contour>
      <contour>
        <pt x="267" y="1373" on="1"/>
        <pt x="267" y="1388" on="0"/>
        <pt x="265" y="1416" on="0"/>
        <pt x="257" y="1437" on="0"/>
        <pt x="243" y="1450" on="0"/>
        <pt x="230" y="1450" on="1"/>
        <pt x="203" y="1450" on="0"/>
        <pt x="189" y="1403" on="0"/>
        <pt x="189" y="1373" on="1"/>
        <pt x="189" y="151" on="1"/>
        <pt x="189" y="140" on="0"/>
        <pt x="190" y="114" on="0"/>
        <pt x="197" y="92" on="0"/>
        <pt x="214" y="78" on="0"/>
        <pt x="230" y="78" on="1"/>
        <pt x="246" y="78" on="0"/>
        <pt x="267" y="96" on="0"/>
        <pt x="267" y="109" on="1"/>
      </contour>
    </TTGlyph>
    <TTGlyph name="ogonek" xMin="63" yMin="-283" xMax="346" yMax="0">
      <contour>
        <pt x="223" y="-283" on="1"/>
        <pt x="185" y="-283" on="0"/>
        <pt x="126" y="-259" on="0"/>
        <pt x="85" y="-218" on="0"/>
        <pt x="63" y="-162" on="0"/>
        <pt x="63" y="-130" on="1"/>
        <pt x="63" y="-73" on="0"/>
        <pt x="136" y="0" on="1"/>
        <pt x="186" y="0" on="1"/>
        <pt x="173" y="-20" on="0"/>
        <pt x="166" y="-40" on="1"/>
        <pt x="159" y="-57" on="0"/>
        <pt x="148" y="-99" on="0"/>
        <pt x="148" y="-120" on="1"/>
        <pt x="148" y="-158" on="0"/>
        <pt x="187" y="-199" on="0"/>
        <pt x="230" y="-199" on="1"/>
        <pt x="254" y="-199" on="0"/>
        <pt x="294" y="-187" on="0"/>
        <pt x="310" y="-180" on="1"/>
        <pt x="320" y="-175" on="0"/>
        <pt x="337" y="-166" on="0"/>
        <pt x="346" y="-160" on="1"/>
        <pt x="346" y="-232" on="1"/>
        <pt x="330" y="-248" on="0"/>
        <pt x="314" y="-258" on="1"/>
        <pt x="298" y="-267" on="0"/>
        <pt x="254" y="-283" on="0"/>
      </contour>
    </TTGlyph>
    <TTGlyph name="ograve" xMin="25" yMin="-18" xMax="448" yMax="2088">
      <component glyphName="grave" x="25" y="1576" flags="0x1004"/>
      <component glyphName="o" x="0" y="0" flags="0x1204"/>
    </TTGlyph>
    <TTGlyph name="ohungarumlaut" xMin="64" yMin="-18" xMax="630" yMax="2082">
      <component glyphName="hungarumlaut" x="94" y="1588" flags="0x1004"/>
      <component glyphName="o" x="0" y="0" flags="0x1204"/>
    </TTGlyph>
    <TTGlyph name="omacron" xMin="64" yMin="-18" xMax="448" yMax="1777">
      <component glyphName="macron" x="102" y="1585" flags="0x1004"/>
      <component glyphName="o" x="0" y="0" flags="0x1204"/>
    </TTGlyph>
    <TTGlyph name="one" xMin="32" yMin="0" xMax="352" yMax="1728">
      <contour>
        <pt x="32" y="96" on="1"/>
        <pt x="128" y="96" on="1"/>
        <pt x="128" y="1632" on="1"/>
        <pt x="32" y="1632" on="1"/>
        <pt x="32" y="1728" on="1"/>
        <pt x="256" y="1728" on="1"/>
        <pt x="256" y="96" on="1"/>
        <pt x="352" y="96" on="1"/>
        <pt x="352" y="0" on="1"/>
        <pt x="32" y="0" on="1"/>
      </contour>
    </TTGlyph>
    <TTGlyph name="onehalf" xMin="34" yMin="0" xMax="1116" yMax="1759">
      <component glyphName="slash" x="394" y="0" flags="0x1004"/>
      <component glyphName="uni00B9" x="21" y="362" flags="0x1004"/>
      <component glyphName="uni00B2" x="698" y="0" flags="0x1004"/>
    </TTGlyph>
    <TTGlyph name="onequarter" xMin="33" yMin="0" xMax="1080" yMax="1761">
      <contour>
        <pt x="1080" y="795" on="1"/>
        <pt x="1080" y="0" on="1"/>
        <pt x="946" y="0" on="1"/>
        <pt x="946" y="359" on="1"/>
        <pt x="690" y="359" on="1"/>
        <pt x="834" y="1397" on="1"/>
        <pt x="967" y="1397" on="1"/>
        <pt x="827" y="470" on="1"/>
        <pt x="946" y="470" on="1"/>
        <pt x="946" y="795" on="1"/>
      </contour>
      <contour>
        <pt x="740" y="1761" on="1"/>
        <pt x="550" y="0" on="1"/>
        <pt x="416" y="0" on="1"/>
        <pt x="605" y="1761" on="1"/>
      </contour>
      <contour>
        <pt x="33" y="479" on="1"/>
        <pt x="160" y="479" on="1"/>
        <pt x="160" y="1643" on="1"/>
        <pt x="33" y="1643" on="1"/>
        <pt x="33" y="1760" on="1"/>
        <pt x="296" y="1760" on="1"/>
        <pt x="296" y="479" on="1"/>
        <pt x="408" y="479" on="1"/>
        <pt x="408" y="364" on="1"/>
        <pt x="33" y="364" on="1"/>
      </contour>
    </TTGlyph>
    <TTGlyph name="ordfeminine" xMin="67" yMin="241" xMax="451" yMax="1777">
      <component glyphName="a" x="35" y="241" flags="0x1004"/>
    </TTGlyph>
    <TTGlyph name="ordmasculine" xMin="129" yMin="-18" xMax="513" yMax="1550">
      <component glyphName="o" x="65" y="0" flags="0x1004"/>
    </TTGlyph>
    <TTGlyph name="oring" xMin="87" yMin="-18" xMax="512" yMax="1850">
      <component glyphName="o" x="64" y="0" flags="0x1004"/>
      <component glyphName="ring" x="54" y="1502" flags="0x1004"/>
    </TTGlyph>
    <TTGlyph name="oslash" xMin="53" yMin="-21" xMax="407" yMax="1545">
      <contour>
        <pt x="407" y="130" on="1"/>
        <pt x="407" y="99" on="0"/>
        <pt x="378" y="44" on="0"/>
        <pt x="330" y="3" on="0"/>
        <pt x="266" y="-21" on="0"/>
        <pt x="231" y="-21" on="1"/>
        <pt x="195" y="-21" on="0"/>
        <pt x="130" y="3" on="0"/>
        <pt x="81" y="45" on="0"/>
        <pt x="53" y="102" on="0"/>
        <pt x="53" y="135" on="1"/>
        <pt x="53" y="1391" on="1"/>
        <pt x="53" y="1422" on="0"/>
        <pt x="81" y="1478" on="0"/>
        <pt x="130" y="1520" on="0"/>
        <pt x="195" y="1545" on="0"/>
        <pt x="231" y="1545" on="1"/>
        <pt x="266" y="1545" on="0"/>
        <pt x="330" y="1522" on="0"/>
        <pt x="378" y="1482" on="0"/>
        <pt x="407" y="1426" on="0"/>
        <pt x="407" y="1393" on="1"/>
      </contour>
      <contour>
        <pt x="268" y="834" on="1"/>
        <pt x="190" y="400" on="1"/>
        <pt x="190" y="109" on="1"/>
        <pt x="190" y="101" on="0"/>
        <pt x="211" y="78" on="0"/>
        <pt x="231" y="78" on="1"/>
        <pt x="247" y="78" on="0"/>
        <pt x="268" y="96" on="0"/>
        <pt x="268" y="109" on="1"/>
      </contour>
      <contour>
        <pt x="268" y="1178" on="1"/>
        <pt x="268" y="1415" on="1"/>
        <pt x="268" y="1430" on="0"/>
        <pt x="247" y="1450" on="0"/>
        <pt x="231" y="1450" on="1"/>
        <pt x="216" y="1450" on="0"/>
        <pt x="190" y="1430" on="0"/>
        <pt x="190" y="1415" on="1"/>
        <pt x="190" y="728" on="1"/>
      </contour>
    </TTGlyph>
    <TTGlyph name="otilde" xMin="64" yMin="-18" xMax="455" yMax="1831">
      <component glyphName="tilde" x="90" y="1571" flags="0x1004"/>
      <component glyphName="o" x="0" y="0" flags="0x1204"/>
    </TTGlyph>
    <TTGlyph name="p" xMin="64" yMin="0" xMax="448" yMax="1536">
      <contour>
        <pt x="448" y="864" on="1"/>
        <pt x="448" y="804" on="0"/>
        <pt x="404" y="739" on="0"/>
        <pt x="332" y="709" on="0"/>
        <pt x="240" y="704" on="0"/>
        <pt x="192" y="704" on="1"/>
        <pt x="192" y="0" on="1"/>
        <pt x="64" y="0" on="1"/>
        <pt x="64" y="1536" on="1"/>
        <pt x="224" y="1536" on="1"/>
        <pt x="309" y="1536" on="0"/>
        <pt x="400" y="1504" on="0"/>
        <pt x="442" y="1456" on="0"/>
        <pt x="448" y="1400" on="0"/>
        <pt x="448" y="1376" on="1"/>
      </contour>
      <contour>
        <pt x="320" y="1376" on="1"/>
        <pt x="320" y="1400" on="0"/>
        <pt x="307" y="1426" on="0"/>
        <pt x="277" y="1438" on="0"/>
        <pt x="228" y="1440" on="0"/>
        <pt x="192" y="1440" on="1"/>
        <pt x="192" y="800" on="1"/>
        <pt x="216" y="800" on="0"/>
        <pt x="262" y="803" on="0"/>
        <pt x="298" y="821" on="0"/>
        <pt x="320" y="860" on="0"/>
        <pt x="320" y="896" on="1"/>
      </contour>
    </TTGlyph>
    <TTGlyph name="paragraph" xMin="55" yMin="0" xMax="593" yMax="1761">
      <contour>
        <pt x="55" y="1600" on="1"/>
        <pt x="55" y="1638" on="0"/>
        <pt x="85" y="1698" on="0"/>
        <pt x="135" y="1739" on="0"/>
        <pt x="201" y="1761" on="0"/>
        <pt x="238" y="1761" on="1"/>
        <pt x="593" y="1761" on="1"/>
        <pt x="593" y="0" on="1"/>
        <pt x="457" y="0" on="1"/>
        <pt x="457" y="826" on="1"/>
        <pt x="419" y="826" on="1"/>
        <pt x="419" y="0" on="1"/>
        <pt x="279" y="0" on="1"/>
        <pt x="279" y="825" on="1"/>
        <pt x="167" y="825" on="0"/>
        <pt x="55" y="891" on="0"/>
        <pt x="55" y="976" on="1"/>
      </contour>
    </TTGlyph>
    <TTGlyph name="parenleft" xMin="32" yMin="0" xMax="320" yMax="1728">
      <contour>
        <pt x="32" y="896" on="1"/>
        <pt x="32" y="984" on="0"/>
        <pt x="35" y="1176" on="0"/>
        <pt x="51" y="1361" on="0"/>
        <pt x="85" y="1527" on="0"/>
        <pt x="149" y="1654" on="0"/>
        <pt x="248" y="1728" on="0"/>
        <pt x="320" y="1728" on="1"/>
        <pt x="320" y="1632" on="1"/>
        <pt x="280" y="1632" on="0"/>
        <pt x="225" y="1572" on="0"/>
        <pt x="190" y="1467" on="0"/>
        <pt x="170" y="1325" on="0"/>
        <pt x="161" y="1161" on="0"/>
        <pt x="160" y="984" on="0"/>
        <pt x="160" y="896" on="1"/>
        <pt x="160" y="808" on="0"/>
        <pt x="161" y="621" on="0"/>
        <pt x="170" y="443" on="0"/>
        <pt x="190" y="285" on="0"/>
        <pt x="225" y="166" on="0"/>
        <pt x="280" y="96" on="0"/>
        <pt x="320" y="96" on="1"/>
        <pt x="320" y="0" on="1"/>
        <pt x="248" y="0" on="0"/>
        <pt x="149" y="84" on="0"/>
        <pt x="85" y="224" on="0"/>
        <pt x="51" y="408" on="0"/>
        <pt x="35" y="607" on="0"/>
        <pt x="32" y="808" on="0"/>
      </contour>
    </TTGlyph>
    <TTGlyph name="parenright" xMin="31" yMin="0" xMax="320" yMax="1728">
      <component glyphName="parenleft" x="352" y="0" scalex="-0.999816894531" scaley="1.0" flags="0x1004"/>
    </TTGlyph>
    <TTGlyph name="partialdiff" xMin="36" yMin="-1" xMax="395" yMax="1760">
      <contour>
        <pt x="36" y="789" on="1"/>
        <pt x="36" y="874" on="0"/>
        <pt x="149" y="942" on="0"/>
        <pt x="260" y="942" on="1"/>
        <pt x="260" y="1760" on="1"/>
        <pt x="395" y="1760" on="1"/>
        <pt x="395" y="160" on="1"/>
        <pt x="395" y="122" on="0"/>
        <pt x="367" y="63" on="0"/>
        <pt x="319" y="21" on="0"/>
        <pt x="253" y="-1" on="0"/>
        <pt x="214" y="-1" on="1"/>
        <pt x="177" y="-1" on="0"/>
        <pt x="112" y="21" on="0"/>
        <pt x="64" y="62" on="0"/>
        <pt x="36" y="121" on="0"/>
        <pt x="36" y="159" on="1"/>
      </contour>
      <contour>
        <pt x="175" y="148" on="1"/>
        <pt x="175" y="126" on="0"/>
        <pt x="200" y="103" on="0"/>
        <pt x="217" y="103" on="1"/>
        <pt x="234" y="103" on="0"/>
        <pt x="260" y="126" on="0"/>
        <pt x="260" y="150" on="1"/>
        <pt x="260" y="826" on="1"/>
        <pt x="214" y="826" on="0"/>
        <pt x="175" y="810" on="0"/>
        <pt x="175" y="783" on="1"/>
      </contour>
    </TTGlyph>
    <TTGlyph name="percent" xMin="48" yMin="0" xMax="1036" yMax="1761">
      <contour>
        <pt x="1036" y="362" on="1"/>
        <pt x="1036" y="331" on="0"/>
        <pt x="1008" y="277" on="0"/>
        <pt x="960" y="236" on="0"/>
        <pt x="896" y="212" on="0"/>
        <pt x="861" y="212" on="1"/>
        <pt x="824" y="212" on="0"/>
        <pt x="759" y="236" on="0"/>
        <pt x="711" y="278" on="0"/>
        <pt x="683" y="335" on="0"/>
        <pt x="683" y="367" on="1"/>
        <pt x="683" y="909" on="1"/>
        <pt x="683" y="941" on="0"/>
        <pt x="711" y="997" on="0"/>
        <pt x="759" y="1039" on="0"/>
        <pt x="824" y="1063" on="0"/>
        <pt x="861" y="1063" on="1"/>
        <pt x="896" y="1063" on="0"/>
        <pt x="960" y="1040" on="0"/>
        <pt x="1008" y="1000" on="0"/>
        <pt x="1036" y="945" on="0"/>
        <pt x="1036" y="912" on="1"/>
      </contour>
      <contour>
        <pt x="898" y="933" on="1"/>
        <pt x="898" y="949" on="0"/>
        <pt x="876" y="968" on="0"/>
        <pt x="861" y="968" on="1"/>
        <pt x="845" y="968" on="0"/>
        <pt x="820" y="949" on="0"/>
        <pt x="820" y="933" on="1"/>
        <pt x="820" y="342" on="1"/>
        <pt x="820" y="334" on="0"/>
        <pt x="840" y="310" on="0"/>
        <pt x="861" y="310" on="1"/>
        <pt x="876" y="310" on="0"/>
        <pt x="898" y="329" on="0"/>
        <pt x="898" y="342" on="1"/>
      </contour>
      <contour>
        <pt x="402" y="844" on="1"/>
        <pt x="402" y="813" on="0"/>
        <pt x="373" y="758" on="0"/>
        <pt x="325" y="717" on="0"/>
        <pt x="261" y="693" on="0"/>
        <pt x="226" y="693" on="1"/>
        <pt x="190" y="693" on="0"/>
        <pt x="125" y="717" on="0"/>
        <pt x="77" y="759" on="0"/>
        <pt x="48" y="816" on="0"/>
        <pt x="48" y="849" on="1"/>
        <pt x="48" y="1391" on="1"/>
        <pt x="48" y="1422" on="0"/>
        <pt x="77" y="1478" on="0"/>
        <pt x="125" y="1520" on="0"/>
        <pt x="190" y="1545" on="0"/>
        <pt x="226" y="1545" on="1"/>
        <pt x="261" y="1545" on="0"/>
        <pt x="325" y="1522" on="0"/>
        <pt x="373" y="1482" on="0"/>
        <pt x="402" y="1426" on="0"/>
        <pt x="402" y="1393" on="1"/>
      </contour>
      <contour>
        <pt x="264" y="1415" on="1"/>
        <pt x="264" y="1430" on="0"/>
        <pt x="242" y="1450" on="0"/>
        <pt x="226" y="1450" on="1"/>
        <pt x="211" y="1450" on="0"/>
        <pt x="186" y="1430" on="0"/>
        <pt x="186" y="1415" on="1"/>
        <pt x="186" y="824" on="1"/>
        <pt x="186" y="815" on="0"/>
        <pt x="206" y="792" on="0"/>
        <pt x="226" y="792" on="1"/>
        <pt x="242" y="792" on="0"/>
        <pt x="264" y="810" on="0"/>
        <pt x="264" y="824" on="1"/>
      </contour>
      <contour>
        <pt x="701" y="1761" on="1"/>
        <pt x="512" y="0" on="1"/>
        <pt x="378" y="0" on="1"/>
        <pt x="567" y="1761" on="1"/>
      </contour>
    </TTGlyph>
    <TTGlyph name="period" xMin="32" yMin="0" xMax="192" yMax="160">
      <contour>
        <pt x="192" y="160" on="1"/>
        <pt x="192" y="0" on="1"/>
        <pt x="32" y="0" on="1"/>
        <pt x="32" y="160" on="1"/>
      </contour>
    </TTGlyph>
    <TTGlyph name="periodcentered" xMin="21" yMin="777" xMax="204" yMax="961">
      <contour>
        <pt x="204" y="961" on="1"/>
        <pt x="204" y="777" on="1"/>
        <pt x="21" y="777" on="1"/>
        <pt x="21" y="961" on="1"/>
      </contour>
    </TTGlyph>
    <TTGlyph name="perthousand" xMin="1" yMin="0" xMax="324" yMax="1761">
      <component glyphName="fraction" x="0" y="0" flags="0x1004"/>
    </TTGlyph>
    <TTGlyph name="pi" xMin="79" yMin="0" xMax="213" yMax="1517">
      <contour>
        <pt x="213" y="1517" on="1"/>
        <pt x="213" y="0" on="1"/>
        <pt x="79" y="0" on="1"/>
        <pt x="79" y="1517" on="1"/>
      </contour>
    </TTGlyph>
    <TTGlyph name="plus" xMin="32" yMin="512" xMax="608" yMax="1152">
      <contour>
        <pt x="32" y="896" on="1"/>
        <pt x="256" y="896" on="1"/>
        <pt x="256" y="1152" on="1"/>
        <pt x="384" y="1152" on="1"/>
        <pt x="384" y="896" on="1"/>
        <pt x="608" y="896" on="1"/>
        <pt x="608" y="768" on="1"/>
        <pt x="384" y="768" on="1"/>
        <pt x="384" y="512" on="1"/>
        <pt x="256" y="512" on="1"/>
        <pt x="256" y="768" on="1"/>
        <pt x="32" y="768" on="1"/>
      </contour>
    </TTGlyph>
    <TTGlyph name="plusminus" xMin="38" yMin="314" xMax="614" yMax="1179">
      <component glyphName="plus" x="6" y="27" flags="0x1004"/>
      <component glyphName="minus" x="96" y="-436" flags="0x1004"/>
    </TTGlyph>
    <TTGlyph name="product" xMin="24" yMin="355" xMax="1450" yMax="1781">
      <contour>
        <pt x="932" y="1151" on="1"/>
        <pt x="932" y="1113" on="0"/>
        <pt x="899" y="1062" on="0"/>
        <pt x="844" y="1029" on="0"/>
        <pt x="771" y="1014" on="0"/>
        <pt x="731" y="1012" on="1"/>
        <pt x="731" y="548" on="1"/>
        <pt x="601" y="548" on="1"/>
        <pt x="601" y="1581" on="1"/>
        <pt x="768" y="1581" on="1"/>
        <pt x="802" y="1581" on="0"/>
        <pt x="862" y="1561" on="0"/>
        <pt x="906" y="1526" on="0"/>
        <pt x="932" y="1479" on="0"/>
        <pt x="932" y="1452" on="1"/>
      </contour>
      <contour>
        <pt x="803" y="1452" on="1"/>
        <pt x="803" y="1469" on="0"/>
        <pt x="768" y="1482" on="0"/>
        <pt x="734" y="1482" on="1"/>
        <pt x="734" y="1119" on="1"/>
        <pt x="771" y="1119" on="0"/>
        <pt x="803" y="1131" on="0"/>
        <pt x="803" y="1147" on="1"/>
      </contour>
      <contour>
        <pt x="24" y="1068" on="1"/>
        <pt x="24" y="1166" on="0"/>
        <pt x="75" y="1348" on="0"/>
        <pt x="168" y="1507" on="0"/>
        <pt x="298" y="1637" on="0"/>
        <pt x="457" y="1730" on="0"/>
        <pt x="639" y="1781" on="0"/>
        <pt x="737" y="1781" on="1"/>
        <pt x="835" y="1781" on="0"/>
        <pt x="1017" y="1730" on="0"/>
        <pt x="1175" y="1637" on="0"/>
        <pt x="1306" y="1507" on="0"/>
        <pt x="1399" y="1348" on="0"/>
        <pt x="1450" y="1166" on="0"/>
        <pt x="1450" y="1068" on="1"/>
        <pt x="1450" y="970" on="0"/>
        <pt x="1399" y="788" on="0"/>
        <pt x="1306" y="630" on="0"/>
        <pt x="1175" y="499" on="0"/>
        <pt x="1017" y="406" on="0"/>
        <pt x="835" y="355" on="0"/>
        <pt x="737" y="355" on="1"/>
        <pt x="639" y="355" on="0"/>
        <pt x="457" y="406" on="0"/>
        <pt x="298" y="499" on="0"/>
        <pt x="168" y="630" on="0"/>
        <pt x="75" y="788" on="0"/>
        <pt x="24" y="970" on="0"/>
      </contour>
      <contour>
        <pt x="156" y="1068" on="1"/>
        <pt x="156" y="946" on="0"/>
        <pt x="246" y="731" on="0"/>
        <pt x="403" y="571" on="0"/>
        <pt x="615" y="478" on="0"/>
        <pt x="737" y="478" on="1"/>
        <pt x="818" y="478" on="0"/>
        <pt x="967" y="520" on="0"/>
        <pt x="1096" y="597" on="0"/>
        <pt x="1202" y="705" on="0"/>
        <pt x="1277" y="836" on="0"/>
        <pt x="1318" y="986" on="0"/>
        <pt x="1318" y="1068" on="1"/>
        <pt x="1318" y="1149" on="0"/>
        <pt x="1277" y="1299" on="0"/>
        <pt x="1202" y="1431" on="0"/>
        <pt x="1096" y="1538" on="0"/>
        <pt x="967" y="1616" on="0"/>
        <pt x="818" y="1658" on="0"/>
        <pt x="737" y="1658" on="1"/>
        <pt x="655" y="1658" on="0"/>
        <pt x="506" y="1616" on="0"/>
        <pt x="377" y="1538" on="0"/>
        <pt x="272" y="1431" on="0"/>
        <pt x="197" y="1299" on="0"/>
        <pt x="156" y="1149" on="0"/>
      </contour>
    </TTGlyph>
    <TTGlyph name="q" xMin="64" yMin="-192" xMax="448" yMax="1550">
      <contour>
        <pt x="192" y="64" on="1"/>
        <pt x="320" y="64" on="1"/>
        <pt x="384" y="-192" on="1"/>
        <pt x="256" y="-192" on="1"/>
      </contour>
      <contour>
        <pt x="448" y="144" on="1"/>
        <pt x="448" y="102" on="0"/>
        <pt x="417" y="41" on="0"/>
        <pt x="365" y="1" on="0"/>
        <pt x="299" y="-18" on="0"/>
        <pt x="264" y="-18" on="1"/>
        <pt x="227" y="-18" on="0"/>
        <pt x="155" y="3" on="0"/>
        <pt x="99" y="44" on="0"/>
        <pt x="64" y="105" on="0"/>
        <pt x="64" y="144" on="1"/>
        <pt x="64" y="1392" on="1"/>
        <pt x="64" y="1430" on="0"/>
        <pt x="99" y="1489" on="0"/>
        <pt x="156" y="1529" on="0"/>
        <pt x="228" y="1550" on="0"/>
        <pt x="265" y="1550" on="1"/>
        <pt x="300" y="1550" on="0"/>
        <pt x="366" y="1531" on="0"/>
        <pt x="417" y="1492" on="0"/>
        <pt x="448" y="1432" on="0"/>
        <pt x="448" y="1392" on="1"/>
      </contour>
      <contour>
        <pt x="320" y="1392" on="1"/>
        <pt x="320" y="1426" on="0"/>
        <pt x="287" y="1455" on="0"/>
        <pt x="265" y="1455" on="1"/>
        <pt x="252" y="1455" on="0"/>
        <pt x="226" y="1446" on="0"/>
        <pt x="205" y="1429" on="0"/>
        <pt x="192" y="1406" on="0"/>
        <pt x="192" y="1392" on="1"/>
        <pt x="192" y="144" on="1"/>
        <pt x="192" y="130" on="0"/>
        <pt x="205" y="106" on="0"/>
        <pt x="226" y="90" on="0"/>
        <pt x="251" y="81" on="0"/>
        <pt x="264" y="81" on="1"/>
        <pt x="286" y="81" on="0"/>
        <pt x="320" y="110" on="0"/>
        <pt x="320" y="144" on="1"/>
      </contour>
    </TTGlyph>
    <TTGlyph name="question" xMin="32" yMin="0" xMax="384" yMax="1760">
      <contour>
        <pt x="256" y="256" on="1"/>
        <pt x="128" y="256" on="1"/>
        <pt x="128" y="544" on="1"/>
        <pt x="128" y="651" on="0"/>
        <pt x="147" y="795" on="0"/>
        <pt x="175" y="903" on="0"/>
        <pt x="209" y="994" on="0"/>
        <pt x="237" y="1100" on="0"/>
        <pt x="256" y="1240" on="0"/>
        <pt x="256" y="1344" on="1"/>
        <pt x="256" y="1568" on="1"/>
        <pt x="256" y="1612" on="0"/>
        <pt x="226" y="1655" on="0"/>
        <pt x="207" y="1655" on="1"/>
        <pt x="190" y="1655" on="0"/>
        <pt x="160" y="1612" on="0"/>
        <pt x="160" y="1568" on="1"/>
        <pt x="160" y="1120" on="1"/>
        <pt x="32" y="1120" on="1"/>
        <pt x="32" y="1568" on="1"/>
        <pt x="32" y="1616" on="0"/>
        <pt x="62" y="1688" on="0"/>
        <pt x="112" y="1736" on="0"/>
        <pt x="175" y="1760" on="0"/>
        <pt x="208" y="1760" on="1"/>
        <pt x="241" y="1760" on="0"/>
        <pt x="304" y="1736" on="0"/>
        <pt x="354" y="1688" on="0"/>
        <pt x="384" y="1616" on="0"/>
        <pt x="384" y="1568" on="1"/>
        <pt x="384" y="1344" on="1"/>
        <pt x="384" y="1260" on="0"/>
        <pt x="373" y="1140" on="0"/>
        <pt x="355" y="1049" on="0"/>
        <pt x="332" y="976" on="0"/>
        <pt x="308" y="903" on="0"/>
        <pt x="285" y="820" on="0"/>
        <pt x="267" y="706" on="0"/>
        <pt x="256" y="554" on="0"/>
        <pt x="256" y="448" on="1"/>
      </contour>
      <contour>
        <pt x="256" y="128" on="1"/>
        <pt x="256" y="0" on="1"/>
        <pt x="128" y="0" on="1"/>
        <pt x="128" y="128" on="1"/>
      </contour>
    </TTGlyph>
    <TTGlyph name="questiondown" xMin="416" yMin="21" xMax="768" yMax="1782">
      <component glyphName="question" x="384" y="1782" scalex="1.0" scaley="-0.999816894531" flags="0x1004"/>
    </TTGlyph>
    <TTGlyph name="quotedbl" xMin="64" yMin="1376" xMax="384" yMax="1728">
      <contour>
        <pt x="384" y="1728" on="1"/>
        <pt x="352" y="1376" on="1"/>
        <pt x="288" y="1376" on="1"/>
        <pt x="256" y="1728" on="1"/>
      </contour>
      <contour>
        <pt x="192" y="1728" on="1"/>
        <pt x="160" y="1376" on="1"/>
        <pt x="96" y="1376" on="1"/>
        <pt x="64" y="1728" on="1"/>
      </contour>
    </TTGlyph>
    <TTGlyph name="quotedblbase" xMin="241" yMin="0" xMax="400" yMax="360">
      <contour>
        <pt x="400" y="360" on="1"/>
        <pt x="326" y="0" on="1"/>
        <pt x="242" y="0" on="1"/>
        <pt x="241" y="360" on="1"/>
      </contour>
    </TTGlyph>
    <TTGlyph name="quotedblleft" xMin="7" yMin="1403" xMax="385" yMax="1763">
      <contour>
        <pt x="226" y="1403" on="1"/>
        <pt x="300" y="1763" on="1"/>
        <pt x="384" y="1763" on="1"/>
        <pt x="385" y="1403" on="1"/>
      </contour>
      <contour>
        <pt x="7" y="1403" on="1"/>
        <pt x="81" y="1763" on="1"/>
        <pt x="166" y="1763" on="1"/>
        <pt x="166" y="1403" on="1"/>
      </contour>
    </TTGlyph>
    <TTGlyph name="quotedblright" xMin="21" yMin="1402" xMax="400" yMax="1761">
      <contour>
        <pt x="181" y="1761" on="1"/>
        <pt x="108" y="1402" on="1"/>
        <pt x="23" y="1402" on="1"/>
        <pt x="21" y="1761" on="1"/>
      </contour>
      <contour>
        <pt x="400" y="1761" on="1"/>
        <pt x="326" y="1402" on="1"/>
        <pt x="242" y="1402" on="1"/>
        <pt x="241" y="1761" on="1"/>
      </contour>
    </TTGlyph>
    <TTGlyph name="quoteleft" xMin="7" yMin="1403" xMax="166" yMax="1763">
      <contour>
        <pt x="7" y="1403" on="1"/>
        <pt x="81" y="1763" on="1"/>
        <pt x="166" y="1763" on="1"/>
        <pt x="166" y="1403" on="1"/>
      </contour>
    </TTGlyph>
    <TTGlyph name="quoteright" xMin="241" yMin="1402" xMax="400" yMax="1761">
      <contour>
        <pt x="400" y="1761" on="1"/>
        <pt x="326" y="1402" on="1"/>
        <pt x="242" y="1402" on="1"/>
        <pt x="241" y="1761" on="1"/>
      </contour>
    </TTGlyph>
    <TTGlyph name="quotesinglbase" xMin="7" yMin="0" xMax="166" yMax="360">
      <contour>
        <pt x="7" y="0" on="1"/>
        <pt x="81" y="360" on="1"/>
        <pt x="166" y="360" on="1"/>
        <pt x="166" y="0" on="1"/>
      </contour>
    </TTGlyph>
    <TTGlyph name="quotesingle" xMin="57" yMin="1402" xMax="216" yMax="1761">
      <contour>
        <pt x="216" y="1761" on="1"/>
        <pt x="174" y="1402" on="1"/>
        <pt x="88" y="1402" on="1"/>
        <pt x="57" y="1761" on="1"/>
      </contour>
    </TTGlyph>
    <TTGlyph name="r" xMin="64" yMin="0" xMax="416" yMax="1536">
      <contour>
        <pt x="416" y="896" on="1"/>
        <pt x="416" y="848" on="0"/>
        <pt x="368" y="796" on="0"/>
        <pt x="320" y="785" on="1"/>
        <pt x="368" y="772" on="0"/>
        <pt x="416" y="720" on="0"/>
        <pt x="416" y="672" on="1"/>
        <pt x="416" y="0" on="1"/>
        <pt x="288" y="0" on="1"/>
        <pt x="288" y="672" on="1"/>
        <pt x="288" y="696" on="0"/>
        <pt x="276" y="722" on="0"/>
        <pt x="252" y="734" on="0"/>
        <pt x="216" y="736" on="0"/>
        <pt x="192" y="736" on="1"/>
        <pt x="192" y="0" on="1"/>
        <pt x="64" y="0" on="1"/>
        <pt x="64" y="1536" on="1"/>
        <pt x="208" y="1536" on="1"/>
        <pt x="273" y="1536" on="0"/>
        <pt x="366" y="1515" on="0"/>
        <pt x="416" y="1462" on="0"/>
        <pt x="416" y="1408" on="1"/>
      </contour>
      <contour>
        <pt x="288" y="1376" on="1"/>
        <pt x="288" y="1400" on="0"/>
        <pt x="276" y="1426" on="0"/>
        <pt x="252" y="1438" on="0"/>
        <pt x="216" y="1440" on="0"/>
        <pt x="192" y="1440" on="1"/>
        <pt x="192" y="832" on="1"/>
        <pt x="216" y="832" on="0"/>
        <pt x="252" y="834" on="0"/>
        <pt x="276" y="846" on="0"/>
        <pt x="288" y="872" on="0"/>
        <pt x="288" y="896" on="1"/>
      </contour>
    </TTGlyph>
    <TTGlyph name="racute" xMin="64" yMin="0" xMax="480" yMax="2088">
      <component glyphName="acute" x="192" y="1576" flags="0x1004"/>
      <component glyphName="r" x="0" y="0" flags="0x1204"/>
    </TTGlyph>
    <TTGlyph name="radical" xMin="0" yMin="0" xMax="514" yMax="1761">
      <contour>
        <pt x="256" y="888" on="1"/>
        <pt x="316" y="313" on="1"/>
        <pt x="373" y="1761" on="1"/>
        <pt x="514" y="1761" on="1"/>
        <pt x="419" y="0" on="1"/>
        <pt x="225" y="0" on="1"/>
        <pt x="130" y="808" on="1"/>
        <pt x="0" y="808" on="1"/>
        <pt x="0" y="888" on="1"/>
      </contour>
    </TTGlyph>
    <TTGlyph name="rcaron" xMin="64" yMin="0" xMax="416" yMax="2018">
      <component glyphName="caron" x="76" y="1588" flags="0x1004"/>
      <component glyphName="r" x="0" y="0" flags="0x1204"/>
    </TTGlyph>
    <TTGlyph name="rcommaaccent" xMin="64" yMin="-474" xMax="416" yMax="1536">
      <component glyphName="comma" x="144" y="-314" flags="0x1004"/>
      <component glyphName="r" x="0" y="0" flags="0x1204"/>
    </TTGlyph>
    <TTGlyph name="registered" xMin="24" yMin="355" xMax="1450" yMax="1781">
      <contour>
        <pt x="897" y="1204" on="1"/>
        <pt x="897" y="1165" on="0"/>
        <pt x="872" y="1116" on="0"/>
        <pt x="857" y="1102" on="1"/>
        <pt x="839" y="1084" on="0"/>
        <pt x="819" y="1075" on="1"/>
        <pt x="830" y="1071" on="0"/>
        <pt x="849" y="1060" on="0"/>
        <pt x="857" y="1053" on="1"/>
        <pt x="872" y="1039" on="0"/>
        <pt x="897" y="997" on="0"/>
        <pt x="897" y="962" on="1"/>
        <pt x="897" y="597" on="1"/>
        <pt x="777" y="597" on="1"/>
        <pt x="777" y="999" on="1"/>
        <pt x="777" y="1009" on="0"/>
        <pt x="771" y="1023" on="0"/>
        <pt x="752" y="1031" on="0"/>
        <pt x="718" y="1035" on="0"/>
        <pt x="690" y="1035" on="1"/>
        <pt x="690" y="597" on="1"/>
        <pt x="567" y="597" on="1"/>
        <pt x="567" y="1560" on="1"/>
        <pt x="645" y="1560" on="0"/>
        <pt x="768" y="1557" on="0"/>
        <pt x="852" y="1533" on="0"/>
        <pt x="897" y="1481" on="0"/>
        <pt x="897" y="1433" on="1"/>
      </contour>
      <contour>
        <pt x="765" y="1433" on="1"/>
        <pt x="765" y="1453" on="0"/>
        <pt x="728" y="1462" on="0"/>
        <pt x="689" y="1462" on="1"/>
        <pt x="689" y="1109" on="1"/>
        <pt x="728" y="1109" on="0"/>
        <pt x="765" y="1117" on="0"/>
        <pt x="765" y="1139" on="1"/>
      </contour>
      <contour>
        <pt x="24" y="1068" on="1"/>
        <pt x="24" y="1166" on="0"/>
        <pt x="75" y="1348" on="0"/>
        <pt x="168" y="1507" on="0"/>
        <pt x="298" y="1637" on="0"/>
        <pt x="457" y="1730" on="0"/>
        <pt x="639" y="1781" on="0"/>
        <pt x="737" y="1781" on="1"/>
        <pt x="835" y="1781" on="0"/>
        <pt x="1017" y="1730" on="0"/>
        <pt x="1175" y="1637" on="0"/>
        <pt x="1306" y="1507" on="0"/>
        <pt x="1399" y="1348" on="0"/>
        <pt x="1450" y="1166" on="0"/>
        <pt x="1450" y="1068" on="1"/>
        <pt x="1450" y="970" on="0"/>
        <pt x="1399" y="788" on="0"/>
        <pt x="1306" y="630" on="0"/>
        <pt x="1175" y="499" on="0"/>
        <pt x="1017" y="406" on="0"/>
        <pt x="835" y="355" on="0"/>
        <pt x="737" y="355" on="1"/>
        <pt x="639" y="355" on="0"/>
        <pt x="457" y="406" on="0"/>
        <pt x="298" y="499" on="0"/>
        <pt x="168" y="630" on="0"/>
        <pt x="75" y="788" on="0"/>
        <pt x="24" y="970" on="0"/>
      </contour>
      <contour>
        <pt x="156" y="1068" on="1"/>
        <pt x="156" y="946" on="0"/>
        <pt x="246" y="731" on="0"/>
        <pt x="403" y="571" on="0"/>
        <pt x="615" y="478" on="0"/>
        <pt x="737" y="478" on="1"/>
        <pt x="818" y="478" on="0"/>
        <pt x="967" y="520" on="0"/>
        <pt x="1096" y="597" on="0"/>
        <pt x="1202" y="705" on="0"/>
        <pt x="1277" y="836" on="0"/>
        <pt x="1318" y="986" on="0"/>
        <pt x="1318" y="1068" on="1"/>
        <pt x="1318" y="1149" on="0"/>
        <pt x="1277" y="1299" on="0"/>
        <pt x="1202" y="1431" on="0"/>
        <pt x="1096" y="1538" on="0"/>
        <pt x="967" y="1616" on="0"/>
        <pt x="818" y="1658" on="0"/>
        <pt x="737" y="1658" on="1"/>
        <pt x="655" y="1658" on="0"/>
        <pt x="506" y="1616" on="0"/>
        <pt x="377" y="1538" on="0"/>
        <pt x="272" y="1431" on="0"/>
        <pt x="197" y="1299" on="0"/>
        <pt x="156" y="1149" on="0"/>
      </contour>
    </TTGlyph>
    <TTGlyph name="ring" xMin="33" yMin="66" xMax="318" yMax="348">
      <contour>
        <pt x="33" y="206" on="1"/>
        <pt x="33" y="236" on="0"/>
        <pt x="55" y="288" on="0"/>
        <pt x="93" y="326" on="0"/>
        <pt x="145" y="348" on="0"/>
        <pt x="175" y="348" on="1"/>
        <pt x="238" y="348" on="0"/>
        <pt x="278" y="308" on="1"/>
        <pt x="318" y="268" on="0"/>
        <pt x="318" y="206" on="1"/>
        <pt x="318" y="177" on="0"/>
        <pt x="296" y="126" on="0"/>
        <pt x="258" y="88" on="0"/>
        <pt x="206" y="66" on="0"/>
        <pt x="175" y="66" on="1"/>
        <pt x="145" y="66" on="0"/>
        <pt x="93" y="88" on="0"/>
        <pt x="55" y="126" on="0"/>
        <pt x="33" y="177" on="0"/>
      </contour>
      <contour>
        <pt x="112" y="207" on="1"/>
        <pt x="112" y="181" on="0"/>
        <pt x="148" y="144" on="0"/>
        <pt x="175" y="144" on="1"/>
        <pt x="204" y="144" on="0"/>
        <pt x="240" y="181" on="0"/>
        <pt x="240" y="207" on="1"/>
        <pt x="240" y="235" on="0"/>
        <pt x="204" y="270" on="0"/>
        <pt x="175" y="270" on="1"/>
        <pt x="148" y="270" on="0"/>
        <pt x="112" y="235" on="0"/>
      </contour>
    </TTGlyph>
    <TTGlyph name="s" xMin="64" yMin="-16" xMax="416" yMax="1552">
      <contour>
        <pt x="416" y="992" on="1"/>
        <pt x="288" y="992" on="1"/>
        <pt x="288" y="1392" on="1"/>
        <pt x="288" y="1428" on="0"/>
        <pt x="258" y="1456" on="0"/>
        <pt x="240" y="1456" on="1"/>
        <pt x="222" y="1456" on="0"/>
        <pt x="192" y="1428" on="0"/>
        <pt x="192" y="1392" on="1"/>
        <pt x="192" y="1285" on="0"/>
        <pt x="212" y="1105" on="0"/>
        <pt x="244" y="953" on="0"/>
        <pt x="284" y="828" on="0"/>
        <pt x="304" y="776" on="1"/>
        <pt x="320" y="735" on="0"/>
        <pt x="359" y="627" on="0"/>
        <pt x="393" y="477" on="0"/>
        <pt x="416" y="277" on="0"/>
        <pt x="416" y="144" on="1"/>
        <pt x="416" y="102" on="0"/>
        <pt x="386" y="41" on="0"/>
        <pt x="336" y="2" on="0"/>
        <pt x="273" y="-16" on="0"/>
        <pt x="240" y="-16" on="1"/>
        <pt x="207" y="-16" on="0"/>
        <pt x="144" y="2" on="0"/>
        <pt x="94" y="41" on="0"/>
        <pt x="64" y="102" on="0"/>
        <pt x="64" y="144" on="1"/>
        <pt x="64" y="544" on="1"/>
        <pt x="192" y="544" on="1"/>
        <pt x="192" y="144" on="1"/>
        <pt x="192" y="108" on="0"/>
        <pt x="222" y="80" on="0"/>
        <pt x="240" y="80" on="1"/>
        <pt x="258" y="80" on="0"/>
        <pt x="288" y="108" on="0"/>
        <pt x="288" y="144" on="1"/>
        <pt x="288" y="273" on="0"/>
        <pt x="263" y="468" on="0"/>
        <pt x="225" y="617" on="0"/>
        <pt x="180" y="729" on="0"/>
        <pt x="161" y="776" on="1"/>
        <pt x="142" y="822" on="0"/>
        <pt x="107" y="940" on="0"/>
        <pt x="80" y="1090" on="0"/>
        <pt x="64" y="1277" on="0"/>
        <pt x="64" y="1392" on="1"/>
        <pt x="64" y="1434" on="0"/>
        <pt x="94" y="1494" on="0"/>
        <pt x="144" y="1533" on="0"/>
        <pt x="207" y="1552" on="0"/>
        <pt x="240" y="1552" on="1"/>
        <pt x="273" y="1552" on="0"/>
        <pt x="336" y="1533" on="0"/>
        <pt x="386" y="1494" on="0"/>
        <pt x="416" y="1434" on="0"/>
        <pt x="416" y="1392" on="1"/>
      </contour>
    </TTGlyph>
    <TTGlyph name="sacute" xMin="64" yMin="-16" xMax="480" yMax="2090">
      <component glyphName="acute" x="192" y="1578" flags="0x1004"/>
      <component glyphName="s" x="0" y="0" flags="0x1204"/>
    </TTGlyph>
    <TTGlyph name="scaron" xMin="64" yMin="-16" xMax="416" yMax="2020">
      <component glyphName="caron" x="76" y="1590" flags="0x1004"/>
      <component glyphName="s" x="0" y="0" flags="0x1204"/>
    </TTGlyph>
    <TTGlyph name="scedilla" xMin="64" yMin="-412" xMax="416" yMax="1552">
      <component glyphName="cedilla" x="58" y="-2" flags="0x1004"/>
      <component glyphName="s" x="0" y="0" flags="0x1204"/>
    </TTGlyph>
    <TTGlyph name="scircumflex" xMin="64" yMin="-16" xMax="416" yMax="2020">
      <component glyphName="circumflex" x="77" y="1590" flags="0x1004"/>
      <component glyphName="s" x="0" y="0" flags="0x1204"/>
    </TTGlyph>
    <TTGlyph name="sdieresis" xMin="33" yMin="-16" xMax="417" yMax="1747">
      <component glyphName="s" x="1" y="0" flags="0x1004"/>
      <component glyphName="dieresis" x="-82" y="1512" flags="0x1004"/>
    </TTGlyph>
    <TTGlyph name="section" xMin="24" yMin="-11" xMax="386" yMax="1809">
      <contour>
        <pt x="24" y="932" on="1"/>
        <pt x="24" y="1005" on="0"/>
        <pt x="52" y="1102" on="0"/>
        <pt x="93" y="1160" on="0"/>
        <pt x="142" y="1189" on="0"/>
        <pt x="163" y="1195" on="1"/>
        <pt x="138" y="1240" on="0"/>
        <pt x="88" y="1333" on="0"/>
        <pt x="49" y="1444" on="0"/>
        <pt x="25" y="1582" on="0"/>
        <pt x="25" y="1673" on="1"/>
        <pt x="25" y="1705" on="0"/>
        <pt x="57" y="1756" on="0"/>
        <pt x="107" y="1791" on="0"/>
        <pt x="169" y="1809" on="0"/>
        <pt x="199" y="1809" on="1"/>
        <pt x="230" y="1809" on="0"/>
        <pt x="292" y="1791" on="0"/>
        <pt x="341" y="1757" on="0"/>
        <pt x="371" y="1707" on="0"/>
        <pt x="371" y="1674" on="1"/>
        <pt x="371" y="1390" on="1"/>
        <pt x="241" y="1390" on="1"/>
        <pt x="241" y="1673" on="1"/>
        <pt x="241" y="1689" on="0"/>
        <pt x="217" y="1707" on="0"/>
        <pt x="199" y="1707" on="1"/>
        <pt x="181" y="1707" on="0"/>
        <pt x="157" y="1689" on="0"/>
        <pt x="157" y="1673" on="1"/>
        <pt x="157" y="1576" on="0"/>
        <pt x="191" y="1429" on="0"/>
        <pt x="242" y="1309" on="0"/>
        <pt x="301" y="1205" on="0"/>
        <pt x="352" y="1096" on="0"/>
        <pt x="386" y="971" on="0"/>
        <pt x="386" y="890" on="1"/>
        <pt x="386" y="818" on="0"/>
        <pt x="359" y="722" on="0"/>
        <pt x="319" y="662" on="0"/>
        <pt x="270" y="632" on="0"/>
        <pt x="248" y="626" on="1"/>
        <pt x="272" y="581" on="0"/>
        <pt x="321" y="481" on="0"/>
        <pt x="361" y="360" on="0"/>
        <pt x="386" y="215" on="0"/>
        <pt x="386" y="126" on="1"/>
        <pt x="386" y="93" on="0"/>
        <pt x="354" y="41" on="0"/>
        <pt x="304" y="7" on="0"/>
        <pt x="242" y="-11" on="0"/>
        <pt x="212" y="-11" on="1"/>
        <pt x="181" y="-11" on="0"/>
        <pt x="120" y="6" on="0"/>
        <pt x="71" y="40" on="0"/>
        <pt x="41" y="90" on="0"/>
        <pt x="41" y="123" on="1"/>
        <pt x="41" y="421" on="1"/>
        <pt x="169" y="421" on="1"/>
        <pt x="169" y="126" on="1"/>
        <pt x="169" y="108" on="0"/>
        <pt x="193" y="90" on="0"/>
        <pt x="212" y="90" on="1"/>
        <pt x="230" y="90" on="0"/>
        <pt x="254" y="108" on="0"/>
        <pt x="254" y="126" on="1"/>
        <pt x="254" y="223" on="0"/>
        <pt x="220" y="372" on="0"/>
        <pt x="169" y="498" on="0"/>
        <pt x="109" y="608" on="0"/>
        <pt x="58" y="722" on="0"/>
        <pt x="24" y="851" on="0"/>
      </contour>
      <contour>
        <pt x="145" y="942" on="1"/>
        <pt x="145" y="873" on="0"/>
        <pt x="175" y="767" on="0"/>
        <pt x="199" y="717" on="1"/>
        <pt x="207" y="719" on="0"/>
        <pt x="230" y="734" on="0"/>
        <pt x="251" y="770" on="0"/>
        <pt x="265" y="831" on="0"/>
        <pt x="265" y="880" on="1"/>
        <pt x="265" y="949" on="0"/>
        <pt x="236" y="1058" on="0"/>
        <pt x="212" y="1109" on="1"/>
        <pt x="204" y="1107" on="0"/>
        <pt x="181" y="1090" on="0"/>
        <pt x="160" y="1053" on="0"/>
        <pt x="145" y="990" on="0"/>
      </contour>
    </TTGlyph>
    <TTGlyph name="semicolon" xMin="32" yMin="128" xMax="192" yMax="1120">
      <contour>
        <pt x="192" y="1120" on="1"/>
        <pt x="192" y="960" on="1"/>
        <pt x="32" y="960" on="1"/>
        <pt x="32" y="1120" on="1"/>
      </contour>
      <contour>
        <pt x="192" y="480" on="1"/>
        <pt x="128" y="128" on="1"/>
        <pt x="32" y="128" on="1"/>
        <pt x="32" y="480" on="1"/>
      </contour>
    </TTGlyph>
</ttFont>
